<svg width="39" height="24" viewBox="0 0 39 24" fill="none" xmlns="http://www.w3.org/2000/svg">
    <path d="M38.0477 0H0.719727V23.9282H38.0477V0Z" fill="#2557D6"/>
    <path d="M0.731685 11.2793H2.52348L2.92748 10.3457H3.83197L4.23492 11.2793H7.76041V10.5656L8.07511 11.2825H9.90528L10.22 10.5549V11.2794H18.9815L18.9775 9.74675H19.147C19.2656 9.75072 19.3003 9.7612 19.3003 9.94899V11.2794H23.8318V10.9226C24.1974 11.1102 24.7659 11.2794 25.5139 11.2794H27.4203L27.8282 10.3457H28.7327L29.1317 11.2794H32.8054V10.3925L33.3618 11.2794H36.3057V5.4165H33.3922V6.10889L32.9843 5.4165H29.9947V6.10889L29.6201 5.4165H25.582C24.9061 5.4165 24.3119 5.5069 23.8319 5.75882V5.4165H21.0453V5.75882C20.7398 5.49915 20.3236 5.4165 19.8608 5.4165H9.67983L8.99673 6.93073L8.2952 5.4165H5.08858V6.10889L4.73626 5.4165H2.00151L0.731445 8.20395V11.2793H0.731589L0.731685 11.2793ZM12.0421 10.4337H10.967L10.9631 7.14149L9.44242 10.4337H8.52166L6.99705 7.13857V10.4337H4.86409L4.46114 9.49607H2.27759L1.87057 10.4337H0.731541L2.60948 6.23011H4.16763L5.95119 10.21V6.23011H7.66283L9.03526 9.08173L10.296 6.23011H12.042L12.0421 10.4337ZM4.10269 8.62365L3.38494 6.94786L2.67116 8.62365H4.10269ZM16.3204 10.4336H12.8172V6.23006H16.3204V7.10541H13.8659V7.86312H16.2616V8.72477H13.8659V9.56427H16.3204L16.3204 10.4336ZM21.2573 7.3622C21.2573 8.03238 20.7905 8.37867 20.5185 8.48262C20.7479 8.56627 20.9439 8.71415 21.0372 8.83661C21.1853 9.0457 21.2108 9.23243 21.2108 9.60787V10.4336H20.153L20.1491 9.90352C20.1491 9.6506 20.1743 9.28685 19.9836 9.0846C19.8303 8.93673 19.5967 8.90466 19.2192 8.90466H18.0934V10.4337H17.0447V6.23006H19.4567C19.9927 6.23006 20.3876 6.24361 20.7266 6.4314C21.0584 6.61918 21.2573 6.89331 21.2573 7.3622ZM19.9317 7.98635C19.7875 8.07019 19.6172 8.07297 19.4129 8.07297H18.139V7.13929H19.4302C19.613 7.13929 19.8037 7.14714 19.9276 7.21509C20.0636 7.27635 20.1478 7.40666 20.1478 7.5867C20.1478 7.77047 20.0677 7.9183 19.9317 7.98635ZM22.9392 10.4336H21.8693V6.23006H22.9392V10.4336ZM35.3608 10.4336H33.8748L31.887 7.2786V10.4336H29.7513L29.3432 9.49603H27.1648L26.7689 10.4336H25.5415C25.0319 10.4336 24.3864 10.3256 24.021 9.9687C23.6524 9.61179 23.4607 9.12835 23.4607 8.36393C23.4607 7.74051 23.5753 7.17059 24.026 6.72021C24.365 6.38474 24.896 6.23006 25.6186 6.23006H26.6339V7.13077H25.6399C25.2572 7.13077 25.041 7.18533 24.8329 7.37977C24.6542 7.55679 24.5315 7.89135 24.5315 8.33197C24.5315 8.7823 24.6249 9.10705 24.8197 9.31915C24.9812 9.4855 25.2747 9.53594 25.5506 9.53594H26.0216L27.4996 6.23021H29.071L30.8465 10.2062V6.23025H32.4433L34.2867 9.15782V6.23025H35.3608V10.4336ZM28.9864 8.6237L28.2606 6.94791L27.5389 8.6237H28.9864ZM38.0331 17.146C37.7785 17.5028 37.2821 17.6838 36.6101 17.6838H34.5849V16.7822H36.6019C36.8019 16.7822 36.9419 16.7569 37.0262 16.6781C37.1059 16.6075 37.1509 16.508 37.1502 16.4039C37.1502 16.2814 37.0993 16.1841 37.0221 16.1258C36.946 16.0616 36.8353 16.0325 36.6526 16.0325C35.668 16.0004 34.4395 16.0616 34.4395 14.7311C34.4395 14.1213 34.8436 13.4794 35.9441 13.4794H38.033V12.6429H36.092C35.5064 12.6429 35.0809 12.7773 34.7796 12.9862V12.6428H31.9089C31.4497 12.6428 30.9109 12.7519 30.6561 12.9862V12.6428H25.5297V12.9862C25.1218 12.7042 24.4334 12.6428 24.1156 12.6428H20.7342V12.9862C20.4114 12.6867 19.6937 12.6428 19.2561 12.6428H15.4718L14.6059 13.5408L13.7948 12.6428H8.14149V18.5095H13.6881L14.5804 17.5973L15.421 18.5095L18.8399 18.5125V17.1324H19.1759C19.6296 17.1391 20.1647 17.1215 20.6367 16.926V18.5094H23.4567V16.9802H23.5928C23.7664 16.9802 23.7835 16.9871 23.7835 17.1532V18.5092H32.3502C32.8941 18.5092 33.4626 18.3758 33.7775 18.1337V18.5092H36.4948C37.0602 18.5092 37.6124 18.4332 38.0326 18.2388L38.0327 17.1458L38.0331 17.146ZM21.047 14.8893C21.047 16.0573 20.1375 16.2984 19.2208 16.2984H17.9123V17.7087H15.874L14.5827 16.3168L13.2407 17.7087H9.08665V13.5041H13.3045L14.5947 14.8823L15.9287 13.5041H19.2797C20.1119 13.5041 21.047 13.7249 21.047 14.8893ZM12.7094 16.8243H10.131V15.9878H12.4334V15.1299H10.131V14.3655H12.7602L13.9073 15.5908L12.7094 16.8243ZM16.8639 17.3058L15.2538 15.593L16.8639 13.9348V17.3058ZM19.245 15.4362H17.8898V14.3655H19.2572C19.6358 14.3655 19.8987 14.5133 19.8987 14.881C19.8987 15.2446 19.648 15.4362 19.245 15.4362ZM26.345 13.5041H29.8452V14.3736H27.3894V15.1381H29.7852V15.9959H27.3894V16.8325L29.8451 16.8363V17.7087H26.3449L26.345 13.5041ZM24.9994 15.7547C25.2328 15.8373 25.4236 15.9852 25.513 16.1077C25.6612 16.313 25.6825 16.5046 25.6868 16.8752V17.7087H24.6339V17.1827C24.6339 16.9297 24.6593 16.5552 24.4644 16.3596C24.3112 16.209 24.0775 16.1731 23.695 16.1731H22.5742V17.7088H21.5204V13.5041H23.9417C24.4725 13.5041 24.8592 13.5266 25.2035 13.7026C25.5344 13.8942 25.7426 14.1566 25.7426 14.6363C25.7426 15.3073 25.2753 15.6498 24.9994 15.7547ZM24.4066 15.2232C24.2663 15.303 24.0929 15.3099 23.8889 15.3099H22.6149V14.3656H23.9062C24.0929 14.3656 24.2798 14.3694 24.4066 14.4415C24.5426 14.5096 24.6238 14.6399 24.6238 14.8197C24.6238 14.9996 24.5425 15.1445 24.4066 15.2232ZM33.8736 15.491C34.078 15.6934 34.1873 15.9491 34.1873 16.3818C34.1873 17.2863 33.5976 17.7085 32.5398 17.7085H30.4973V16.8069H32.5317C32.7306 16.8069 32.8716 16.7818 32.96 16.7028C33.0322 16.6378 33.0839 16.5433 33.0839 16.4287C33.0839 16.3061 33.0279 16.2089 32.9559 16.1506C32.8757 16.0864 32.7651 16.0573 32.5824 16.0573C31.6017 16.0252 30.3735 16.0864 30.3735 14.756C30.3735 14.1461 30.7734 13.5041 31.8729 13.5041H33.9753V14.3991H32.0516C31.8609 14.3991 31.7369 14.406 31.6314 14.475C31.5166 14.5431 31.474 14.6441 31.474 14.7774C31.474 14.936 31.5715 15.044 31.7035 15.0907C31.8141 15.1275 31.9329 15.1383 32.1115 15.1383L32.6761 15.1529C33.2453 15.1662 33.6361 15.2605 33.8736 15.491ZM38.035 14.3655H36.1237C35.9329 14.3655 35.806 14.3724 35.6993 14.4414C35.5887 14.5095 35.5461 14.6105 35.5461 14.744C35.5461 14.9026 35.6395 15.0104 35.7754 15.0571C35.886 15.094 36.0048 15.1048 36.1795 15.1048L36.7479 15.1193C37.3214 15.1329 37.7042 15.2274 37.9376 15.4578C37.9803 15.4899 38.0057 15.5258 38.0349 15.5619V14.3655H38.035Z" fill="white"/>
</svg>
