<svg width="45" height="29" viewBox="0 0 45 29" fill="none" xmlns="http://www.w3.org/2000/svg">
<path d="M40.452 0.407715H4.54868C4.39915 0.407715 4.24935 0.407715 4.10009 0.408587C3.97391 0.409485 3.84803 0.410886 3.72215 0.414321C3.4476 0.421746 3.17071 0.437944 2.8996 0.486669C2.62416 0.53624 2.36785 0.617097 2.1178 0.744407C1.87198 0.869418 1.64693 1.03293 1.45189 1.22804C1.25678 1.42315 1.09327 1.64784 0.968284 1.89392C0.840948 2.14397 0.760038 2.40036 0.71081 2.67601C0.661823 2.9472 0.645517 3.22404 0.638118 3.49829C0.634736 3.62418 0.633286 3.75006 0.632464 3.87592C0.631592 4.0255 0.631882 4.17498 0.631882 4.32483V24.4909C0.631882 24.6407 0.631592 24.79 0.632464 24.9398C0.633286 25.0657 0.634736 25.1916 0.638118 25.3175C0.645517 25.5915 0.661823 25.8683 0.71081 26.1394C0.760038 26.4152 0.840948 26.6715 0.968284 26.9215C1.09327 27.1676 1.25678 27.3926 1.45189 27.5874C1.64693 27.7828 1.87198 27.9463 2.1178 28.071C2.36785 28.1987 2.62416 28.2796 2.8996 28.3291C3.17071 28.3775 3.4476 28.394 3.72215 28.4014C3.84803 28.4043 3.97391 28.406 4.10009 28.4066C4.24935 28.4077 4.39915 28.4077 4.54868 28.4077H40.452C40.6013 28.4077 40.7511 28.4077 40.9003 28.4066C41.0262 28.406 41.1521 28.4043 41.2785 28.4014C41.5525 28.394 41.8293 28.3775 42.1011 28.3291C42.3762 28.2796 42.6325 28.1987 42.8826 28.071C43.1287 27.9463 43.3531 27.7828 43.5485 27.5874C43.7433 27.3926 43.9068 27.1676 44.0321 26.9215C44.1597 26.6715 44.2406 26.4152 44.2896 26.1394C44.3386 25.8683 44.3545 25.5915 44.3619 25.3175C44.3654 25.1916 44.367 25.0657 44.3676 24.9398C44.3688 24.79 44.3688 24.6407 44.3688 24.4909V4.32483C44.3688 4.17498 44.3688 4.0255 44.3676 3.87592C44.367 3.75006 44.3654 3.62418 44.3619 3.49829C44.3545 3.22404 44.3386 2.9472 44.2896 2.67601C44.2406 2.40036 44.1597 2.14397 44.0321 1.89392C43.9068 1.64784 43.7433 1.42315 43.5485 1.22804C43.3531 1.03293 43.1287 0.869418 42.8826 0.744407C42.6325 0.617097 42.3762 0.53624 42.1011 0.486669C41.8293 0.437944 41.5525 0.421746 41.2785 0.414321C41.1521 0.410886 41.0262 0.409485 40.9003 0.408587C40.7511 0.407715 40.6013 0.407715 40.452 0.407715Z" fill="#333333"/>
<path d="M40.4542 1.33984L40.8959 1.34069C41.0155 1.34153 41.1352 1.34283 41.2555 1.34611C41.4648 1.35176 41.7096 1.3631 41.9378 1.404C42.1362 1.43973 42.3025 1.49405 42.4622 1.57533C42.6198 1.65542 42.7642 1.76038 42.8903 1.88629C43.0169 2.01304 43.1219 2.15769 43.2031 2.31705C43.2839 2.47546 43.3379 2.64103 43.3734 2.84085C43.4142 3.06656 43.4255 3.31204 43.4312 3.52261C43.4345 3.64146 43.436 3.76032 43.4366 3.882C43.4378 4.02915 43.4377 4.17623 43.4377 4.32367V24.4897C43.4377 24.6372 43.4378 24.784 43.4366 24.9343C43.436 25.0531 43.4345 25.172 43.4312 25.291C43.4255 25.5013 43.4142 25.7466 43.3729 25.975C43.3379 26.1721 43.284 26.3377 43.2027 26.4969C43.1218 26.6559 43.0168 26.8003 42.8908 26.9263C42.764 27.0531 42.6201 27.1578 42.4606 27.2386C42.3021 27.3195 42.136 27.3738 41.9396 27.4091C41.7068 27.4506 41.4518 27.462 41.2597 27.4672C41.1388 27.4699 41.0185 27.4716 40.8953 27.4722C40.7485 27.4733 40.6011 27.4733 40.4542 27.4733H4.55092C4.54896 27.4733 4.54706 27.4733 4.54508 27.4733C4.39991 27.4733 4.25445 27.4733 4.10663 27.4721C3.98611 27.4716 3.86586 27.47 3.74959 27.4673C3.5531 27.462 3.29788 27.4506 3.06696 27.4094C2.86886 27.3738 2.70279 27.3195 2.54224 27.2375C2.38425 27.1574 2.24042 27.0529 2.11356 26.9258C1.98768 26.8002 1.88307 26.6561 1.80218 26.4969C1.72122 26.3379 1.66705 26.1718 1.63144 25.9723C1.59027 25.7444 1.57896 25.5 1.5733 25.2912C1.57008 25.1717 1.56873 25.0521 1.56796 24.9333L1.56738 24.5824L1.56741 24.4897V4.32367L1.56738 4.23103L1.56794 3.88089C1.56873 3.76132 1.57008 3.64178 1.5733 3.52232C1.57896 3.31328 1.59027 3.06881 1.63178 2.83897C1.66708 2.64135 1.72122 2.47525 1.80261 2.31541C1.88286 2.15742 1.98765 2.0132 2.1142 1.88668C2.24024 1.76059 2.38454 1.65577 2.54353 1.57491C2.70236 1.49403 2.86875 1.43973 3.06685 1.40408C3.2951 1.36307 3.54008 1.35176 3.74988 1.34608C3.86948 1.34283 3.98907 1.34153 4.10777 1.34072L4.55092 1.33984H40.4542Z" fill="white"/>
<path d="M12.5744 9.82547C12.9489 9.35707 13.203 8.72814 13.136 8.08545C12.5878 8.11271 11.9188 8.44711 11.5315 8.91589C11.1838 9.31732 10.876 9.97258 10.9562 10.5883C11.5716 10.6417 12.1864 10.2807 12.5744 9.82547Z" fill="#333333"/>
<path d="M13.1287 10.7082C12.235 10.6549 11.4752 11.2154 11.0484 11.2154C10.6214 11.2154 9.96786 10.735 9.261 10.7479C8.34099 10.7614 7.48732 11.2816 7.02045 12.109C6.06018 13.764 6.76704 16.2191 7.70085 17.5671C8.15433 18.234 8.70085 18.9683 9.42097 18.9419C10.1014 18.9152 10.3681 18.5013 11.1951 18.5013C12.0216 18.5013 12.2618 18.9419 12.982 18.9285C13.7289 18.9152 14.1959 18.2613 14.6494 17.5938C15.1696 16.8336 15.3825 16.0995 15.3959 16.0592C15.3825 16.0459 13.9557 15.4985 13.9425 13.8572C13.929 12.4829 15.0627 11.8292 15.1161 11.7886C14.4758 10.8417 13.4755 10.735 13.1287 10.7082Z" fill="#333333"/>
<path d="M20.9104 8.84766C22.8528 8.84766 24.2053 10.1866 24.2053 12.1359C24.2053 14.0923 22.8249 15.4381 20.8617 15.4381H18.711V18.8582H17.1572V8.84766L20.9104 8.84766ZM18.711 14.1339H20.4939C21.8468 14.1339 22.6167 13.4055 22.6167 12.1429C22.6167 10.8804 21.8468 10.1589 20.5009 10.1589H18.711V14.1339Z" fill="#333333"/>
<path d="M24.6123 16.7844C24.6123 15.5078 25.5905 14.7239 27.3249 14.6268L29.3227 14.5089V13.947C29.3227 13.1353 28.7746 12.6497 27.8591 12.6497C26.9917 12.6497 26.4506 13.0659 26.3189 13.7181H24.9037C24.987 12.3999 26.1107 11.4287 27.9145 11.4287C29.6835 11.4287 30.8142 12.3653 30.8142 13.829V18.8586H29.3781V17.6584H29.3436C28.9205 18.4701 27.9977 18.9834 27.0404 18.9834C25.6113 18.9834 24.6123 18.0955 24.6123 16.7844ZM29.3227 16.1254V15.5496L27.5259 15.6605C26.631 15.723 26.1246 16.1184 26.1246 16.7428C26.1246 17.3809 26.6519 17.7972 27.4566 17.7972C28.5041 17.7972 29.3227 17.0757 29.3227 16.1254Z" fill="#333333"/>
<path d="M32.1698 21.5434V20.3293C32.2805 20.357 32.5302 20.357 32.6552 20.357C33.3489 20.357 33.7236 20.0657 33.9524 19.3165C33.9524 19.3026 34.0843 18.8725 34.0843 18.8656L31.4482 11.5605H33.0714L34.9169 17.499H34.9445L36.79 11.5605H38.3716L35.6381 19.2401C35.014 21.0092 34.2925 21.5781 32.7802 21.5781C32.6552 21.5781 32.2806 21.5641 32.1698 21.5434Z" fill="#333333"/>
</svg>
