<svg width="24" height="24" viewBox="0 0 24 24" xmlns="http://www.w3.org/2000/svg">
<path fill-rule="evenodd" clip-rule="evenodd" d="M4 11.9998C4 11.5722 4.34662 11.2256 4.77419 11.2256H19.2258C19.6534 11.2256 20 11.5722 20 11.9998C20 12.4274 19.6534 12.774 19.2258 12.774H4.77419C4.34662 12.774 4 12.4274 4 11.9998Z" fill="#000"/>
<path fill-rule="evenodd" clip-rule="evenodd" d="M9.21245 7.56172C9.51479 7.86406 9.51479 8.35425 9.21245 8.65659L5.86907 12L9.21245 15.3434C9.51479 15.6457 9.51479 16.1359 9.21245 16.4382C8.91011 16.7406 8.41992 16.7406 8.11757 16.4382L4.22676 12.5474C3.92441 12.2451 3.92441 11.7549 4.22676 11.4525L8.11757 7.56172C8.41992 7.25938 8.91011 7.25938 9.21245 7.56172Z" fill="#000"/>
</svg>
