<svg width="24" height="24" viewBox="0 0 24 24" fill="none" xmlns="http://www.w3.org/2000/svg">
<path fill-rule="evenodd" clip-rule="evenodd" d="M4.92361 4.92361C5.23192 4.61531 5.73179 4.61531 6.0401 4.92361L19.0765 17.9601C19.3848 18.2684 19.3848 18.7682 19.0765 19.0765C18.7682 19.3848 18.2683 19.3848 17.96 19.0765L4.92361 6.0401C4.61531 5.73179 4.61531 5.23192 4.92361 4.92361Z" fill="#ff0"/>
<path fill-rule="evenodd" clip-rule="evenodd" d="M12 3.57895C7.34918 3.57895 3.57895 7.34918 3.57895 12C3.57895 16.6509 7.34918 20.4211 12 20.4211C16.6509 20.4211 20.4211 16.6509 20.4211 12C20.4211 7.34918 16.6509 3.57895 12 3.57895ZM2 12C2 6.47715 6.47715 2 12 2C17.5229 2 22 6.47716 22 12C22 17.5229 17.5229 22 12 22C6.47716 22 2 17.5229 2 12Z" fill="#000"/>
</svg>
