<svg width="40" height="40" viewBox="0 0 40 40" fill="none" xmlns="http://www.w3.org/2000/svg">
<g clip-path="url(#clip0_14498_16124)">
<g clip-path="url(#clip1_14498_16124)">
<rect width="40" height="40" rx="20" fill="black"/>
<path d="M40 0H0V40H40V0Z" fill="url(#paint0_linear_14498_16124)"/>
<g opacity="0.6">
<path d="M38.4155 -0.204826C29.2896 3.79903 -8.42076 16.6054 -46.3477 17.8333C-44.8796 39.7151 -30.5369 63.6997 -18.8071 63.6997C10.946 63.6997 34.8683 14.0815 39.9013 3.46686C41.3605 0.530694 40.9008 -0.545898 39.759 -0.545898C39.3705 -0.545898 38.9048 -0.418367 38.4125 -0.201862" fill="url(#paint1_linear_14498_16124)"/>
</g>
<g opacity="0.6">
<path d="M52.5034 19.6659C44.0924 23.3554 9.3389 35.1564 -25.6133 36.2894C-24.2609 56.4569 -11.0422 78.5582 -0.231796 78.5582C27.1872 78.5582 49.2351 32.8312 53.8736 23.0499C55.2172 20.3421 54.7931 19.3516 53.7432 19.3516C53.3843 19.3516 52.9542 19.4672 52.5005 19.6659" fill="url(#paint2_linear_14498_16124)"/>
</g>
<path d="M26.3271 28.1807C11.7412 32.0184 -6.90489 35.6812 -25.6133 36.2862C-24.9756 45.8214 -21.6806 55.7895 -17.2437 63.6489C0.346535 62.6287 15.7896 44.5727 26.3271 28.1807Z" fill="url(#paint3_linear_14498_16124)"/>
</g>
<g filter="url(#filter0_d_14498_16124)">
<path fill-rule="evenodd" clip-rule="evenodd" d="M20.0302 10.7275C19.3297 10.7149 18.6335 10.8407 17.9816 11.0977C17.3297 11.3546 16.735 11.7377 16.2314 12.2249C15.7278 12.7121 15.3253 13.2939 15.047 13.9369C14.7694 14.5782 14.6207 15.2679 14.6094 15.9665V20.0443C14.6094 20.4731 14.2618 20.8207 13.833 20.8207C13.4042 20.8207 13.0566 20.4731 13.0566 20.0443V15.9487C13.0703 15.0439 13.2625 14.1506 13.622 13.3201C13.9815 12.4896 14.5013 11.7382 15.1517 11.1089C15.8021 10.4797 16.5703 9.98493 17.4122 9.65306C18.2498 9.32289 19.144 9.16038 20.0442 9.1747C20.9443 9.16038 21.8385 9.32289 22.6761 9.65306C23.5181 9.98493 24.2862 10.4797 24.9366 11.1089C25.587 11.7382 26.1068 12.4896 26.4663 13.3201C26.8258 14.1506 27.0179 15.0439 27.0316 15.9487L27.0318 15.9605L27.0317 20.0443C27.0317 20.4731 26.6841 20.8207 26.2553 20.8207C25.8265 20.8207 25.4789 20.4731 25.4789 20.0443V15.9665C25.4676 15.2679 25.3189 14.5782 25.0413 13.9369C24.763 13.2939 24.3605 12.7121 23.8569 12.2249C23.3533 11.7377 22.7586 11.3546 22.1067 11.0977C21.4548 10.8407 20.7587 10.7149 20.0581 10.7275L20.0442 9.9512L20.0302 10.7275Z" fill="white"/>
<path fill-rule="evenodd" clip-rule="evenodd" d="M11.503 18.4913C11.2971 18.4913 11.0996 18.5731 10.954 18.7187C10.8084 18.8643 10.7266 19.0617 10.7266 19.2676V22.3732C10.7266 22.5791 10.8084 22.7766 10.954 22.9222C11.0996 23.0678 11.2971 23.1496 11.503 23.1496H13.0558V18.4913H11.503ZM11.503 16.9385H13.0558C13.4676 16.9385 13.8626 17.1021 14.1538 17.3933C14.445 17.6845 14.6086 18.0794 14.6086 18.4913V23.1496C14.6086 23.5614 14.445 23.9564 14.1538 24.2476C13.8626 24.5388 13.4676 24.7024 13.0558 24.7024H11.503C10.8853 24.7024 10.2928 24.457 9.85603 24.0202C9.41922 23.5834 9.17383 22.9909 9.17383 22.3732V19.2676C9.17383 18.6499 9.41922 18.0575 9.85603 17.6207C10.2928 17.1839 10.8853 16.9385 11.503 16.9385Z" fill="white"/>
<path fill-rule="evenodd" clip-rule="evenodd" d="M28.5829 23.1494C28.7888 23.1494 28.9863 23.0676 29.1319 22.922C29.2775 22.7764 29.3593 22.5789 29.3593 22.373V19.2674C29.3593 19.0615 29.2775 18.864 29.1319 18.7184C28.9863 18.5728 28.7888 18.491 28.5829 18.491H27.0302V23.1494H28.5829ZM28.5829 24.7021H27.0302C26.6183 24.7021 26.2234 24.5386 25.9322 24.2473C25.641 23.9561 25.4774 23.5612 25.4774 23.1494V18.491C25.4774 18.0792 25.641 17.6842 25.9322 17.393C26.2234 17.1018 26.6183 16.9382 27.0302 16.9382H28.5829C29.2007 16.9382 29.7931 17.1836 30.2299 17.6204C30.6667 18.0572 30.9121 18.6497 30.9121 19.2674V22.373C30.9121 22.9907 30.6667 23.5831 30.2299 24.0199C29.7931 24.4568 29.2007 24.7021 28.5829 24.7021Z" fill="white"/>
<path fill-rule="evenodd" clip-rule="evenodd" d="M26.255 20.8203C26.6838 20.8203 27.0314 21.1679 27.0314 21.5967V25.0905C27.0314 26.12 26.6224 27.1074 25.8944 27.8354C25.1664 28.5634 24.179 28.9724 23.1494 28.9724C22.7206 28.9724 22.373 28.6248 22.373 28.196C22.373 27.7672 22.7206 27.4196 23.1494 27.4196C23.7672 27.4196 24.3596 27.1742 24.7964 26.7374C25.2332 26.3006 25.4786 25.7082 25.4786 25.0905V21.5967C25.4786 21.1679 25.8262 20.8203 26.255 20.8203Z" fill="white"/>
<path fill-rule="evenodd" clip-rule="evenodd" d="M18.8795 27.0313C18.5706 27.0313 18.2744 27.154 18.056 27.3724C17.8376 27.5908 17.7149 27.887 17.7149 28.1959C17.7149 28.5048 17.8376 28.801 18.056 29.0194C18.2744 29.2378 18.5706 29.3605 18.8795 29.3605H21.2087C21.5175 29.3605 21.8137 29.2378 22.0321 29.0194C22.2505 28.801 22.3732 28.5048 22.3732 28.1959C22.3732 27.887 22.2505 27.5908 22.0321 27.3724C21.8137 27.154 21.5175 27.0313 21.2087 27.0313H18.8795ZM16.958 26.2744C17.4676 25.7648 18.1588 25.4785 18.8795 25.4785H21.2087C21.9293 25.4785 22.6205 25.7648 23.1301 26.2744C23.6397 26.784 23.926 27.4752 23.926 28.1959C23.926 28.9166 23.6397 29.6077 23.1301 30.1174C22.6205 30.627 21.9293 30.9133 21.2087 30.9133H18.8795C18.1588 30.9133 17.4676 30.627 16.958 30.1174C16.4484 29.6077 16.1621 28.9166 16.1621 28.1959C16.1621 27.4752 16.4484 26.784 16.958 26.2744Z" fill="white"/>
</g>
</g>
<defs>
<filter id="filter0_d_14498_16124" x="3" y="4" width="34.0879" height="34.0869" filterUnits="userSpaceOnUse" color-interpolation-filters="sRGB">
<feFlood flood-opacity="0" result="BackgroundImageFix"/>
<feColorMatrix in="SourceAlpha" type="matrix" values="0 0 0 0 0 0 0 0 0 0 0 0 0 0 0 0 0 0 127 0" result="hardAlpha"/>
<feOffset dy="1"/>
<feGaussianBlur stdDeviation="2"/>
<feColorMatrix type="matrix" values="0 0 0 0 0 0 0 0 0 0 0 0 0 0 0 0 0 0 0.2 0"/>
<feBlend mode="normal" in2="BackgroundImageFix" result="effect1_dropShadow_14498_16124"/>
<feBlend mode="normal" in="SourceGraphic" in2="effect1_dropShadow_14498_16124" result="shape"/>
</filter>
<linearGradient id="paint0_linear_14498_16124" x1="19.9985" y1="1.31979" x2="19.9985" y2="44.8017" gradientUnits="userSpaceOnUse">
<stop stop-color="#EC1D24"/>
<stop offset="0.5" stop-color="#EC1D24"/>
<stop offset="0.75" stop-color="#F9A01B"/>
<stop offset="0.85" stop-color="#FEBE10"/>
<stop offset="1" stop-color="#FEDB00"/>
</linearGradient>
<linearGradient id="paint1_linear_14498_16124" x1="-45.6329" y1="31.5739" x2="43.4544" y2="31.5739" gradientUnits="userSpaceOnUse">
<stop stop-color="#FAED00"/>
<stop offset="0.03" stop-color="#F9DC05"/>
<stop offset="0.08" stop-color="#F9C20F"/>
<stop offset="0.14" stop-color="#F9AF15"/>
<stop offset="0.19" stop-color="#F9A319"/>
<stop offset="0.25" stop-color="#F9A01B"/>
<stop offset="0.56" stop-color="#F47920"/>
<stop offset="1" stop-color="#ED1C24"/>
</linearGradient>
<linearGradient id="paint2_linear_14498_16124" x1="-24.9519" y1="48.9534" x2="57.1479" y2="48.9534" gradientUnits="userSpaceOnUse">
<stop stop-color="#FAED00"/>
<stop offset="0.03" stop-color="#F9DC05"/>
<stop offset="0.08" stop-color="#F9C20F"/>
<stop offset="0.14" stop-color="#F9AF15"/>
<stop offset="0.19" stop-color="#F9A319"/>
<stop offset="0.25" stop-color="#F9A01B"/>
<stop offset="0.56" stop-color="#F47920"/>
<stop offset="1" stop-color="#ED1C24"/>
</linearGradient>
<linearGradient id="paint3_linear_14498_16124" x1="-0.214005" y1="42.0132" x2="24.684" y2="31.6269" gradientUnits="userSpaceOnUse">
<stop stop-color="#FEDB00"/>
<stop offset="1" stop-color="#F9A01B"/>
</linearGradient>
<clipPath id="clip0_14498_16124">
<rect width="40" height="40" fill="white"/>
</clipPath>
<clipPath id="clip1_14498_16124">
<rect width="40" height="40" rx="20" fill="white"/>
</clipPath>
</defs>
</svg>
