<svg width="40" height="40" viewBox="0 0 40 40" fill="none" xmlns="http://www.w3.org/2000/svg">
<g clip-path="url(#clip0_14498_16155)">
<g clip-path="url(#clip1_14498_16155)">
<rect width="40" height="40" rx="20" fill="black"/>
<path d="M40 0H0V40H40V0Z" fill="url(#paint0_linear_14498_16155)"/>
<g opacity="0.6">
<path d="M38.4155 -0.204826C29.2896 3.79903 -8.42076 16.6054 -46.3477 17.8333C-44.8796 39.7151 -30.5369 63.6997 -18.8071 63.6997C10.946 63.6997 34.8683 14.0815 39.9013 3.46686C41.3605 0.530694 40.9008 -0.545898 39.759 -0.545898C39.3705 -0.545898 38.9048 -0.418367 38.4125 -0.201862" fill="url(#paint1_linear_14498_16155)"/>
</g>
<g opacity="0.6">
<path d="M52.5034 19.6659C44.0924 23.3554 9.3389 35.1564 -25.6133 36.2894C-24.2609 56.4569 -11.0422 78.5582 -0.231796 78.5582C27.1872 78.5582 49.2351 32.8312 53.8736 23.0499C55.2172 20.3421 54.7931 19.3516 53.7432 19.3516C53.3843 19.3516 52.9542 19.4672 52.5005 19.6659" fill="url(#paint2_linear_14498_16155)"/>
</g>
<path d="M26.3271 28.1807C11.7412 32.0184 -6.90489 35.6812 -25.6133 36.2862C-24.9756 45.8214 -21.6806 55.7895 -17.2437 63.6489C0.346535 62.6287 15.7896 44.5727 26.3271 28.1807Z" fill="url(#paint3_linear_14498_16155)"/>
</g>
<g filter="url(#filter0_d_14498_16155)">
<mask id="mask0_14498_16155" style="mask-type:alpha" maskUnits="userSpaceOnUse" x="9" y="10" width="22" height="20">
<path fill-rule="evenodd" clip-rule="evenodd" d="M31.0009 10.2607H9.08789V29.826H31.0009V10.2607ZM17.1748 20.0434C17.1748 20.7938 16.5909 21.402 15.8705 21.402C15.1501 21.402 14.5662 20.7938 14.5662 20.0434C14.5662 19.2929 15.1501 18.6847 15.8705 18.6847C16.5909 18.6847 17.1748 19.2929 17.1748 20.0434ZM21.3488 20.0434C21.3488 20.7938 20.7648 21.402 20.0444 21.402C19.324 21.402 18.7401 20.7938 18.7401 20.0434C18.7401 19.2929 19.324 18.6847 20.0444 18.6847C20.7648 18.6847 21.3488 19.2929 21.3488 20.0434ZM24.2183 21.402C24.9387 21.402 25.5227 20.7938 25.5227 20.0434C25.5227 19.2929 24.9387 18.6847 24.2183 18.6847C23.4979 18.6847 22.914 19.2929 22.914 20.0434C22.914 20.7938 23.4979 21.402 24.2183 21.402Z" fill="#D9D9D9"/>
</mask>
<g mask="url(#mask0_14498_16155)">
<path d="M10.3926 18.6848C10.3926 15.083 13.1957 12.1631 16.6534 12.1631H23.4361C26.8938 12.1631 29.6969 15.083 29.6969 18.6848V21.4022C29.6969 25.0041 26.8938 27.924 23.4361 27.924H10.3926V18.6848Z" fill="white" stroke="white" stroke-width="1.5" stroke-linejoin="round"/>
</g>
</g>
</g>
<defs>
<filter id="filter0_d_14498_16155" x="3" y="4" width="34.0879" height="34.0869" filterUnits="userSpaceOnUse" color-interpolation-filters="sRGB">
<feFlood flood-opacity="0" result="BackgroundImageFix"/>
<feColorMatrix in="SourceAlpha" type="matrix" values="0 0 0 0 0 0 0 0 0 0 0 0 0 0 0 0 0 0 127 0" result="hardAlpha"/>
<feOffset dy="1"/>
<feGaussianBlur stdDeviation="2"/>
<feColorMatrix type="matrix" values="0 0 0 0 0 0 0 0 0 0 0 0 0 0 0 0 0 0 0.2 0"/>
<feBlend mode="normal" in2="BackgroundImageFix" result="effect1_dropShadow_14498_16155"/>
<feBlend mode="normal" in="SourceGraphic" in2="effect1_dropShadow_14498_16155" result="shape"/>
</filter>
<linearGradient id="paint0_linear_14498_16155" x1="19.9985" y1="1.31979" x2="19.9985" y2="44.8017" gradientUnits="userSpaceOnUse">
<stop stop-color="#EC1D24"/>
<stop offset="0.5" stop-color="#EC1D24"/>
<stop offset="0.75" stop-color="#F9A01B"/>
<stop offset="0.85" stop-color="#FEBE10"/>
<stop offset="1" stop-color="#FEDB00"/>
</linearGradient>
<linearGradient id="paint1_linear_14498_16155" x1="-45.6329" y1="31.5739" x2="43.4544" y2="31.5739" gradientUnits="userSpaceOnUse">
<stop stop-color="#FAED00"/>
<stop offset="0.03" stop-color="#F9DC05"/>
<stop offset="0.08" stop-color="#F9C20F"/>
<stop offset="0.14" stop-color="#F9AF15"/>
<stop offset="0.19" stop-color="#F9A319"/>
<stop offset="0.25" stop-color="#F9A01B"/>
<stop offset="0.56" stop-color="#F47920"/>
<stop offset="1" stop-color="#ED1C24"/>
</linearGradient>
<linearGradient id="paint2_linear_14498_16155" x1="-24.9519" y1="48.9534" x2="57.1479" y2="48.9534" gradientUnits="userSpaceOnUse">
<stop stop-color="#FAED00"/>
<stop offset="0.03" stop-color="#F9DC05"/>
<stop offset="0.08" stop-color="#F9C20F"/>
<stop offset="0.14" stop-color="#F9AF15"/>
<stop offset="0.19" stop-color="#F9A319"/>
<stop offset="0.25" stop-color="#F9A01B"/>
<stop offset="0.56" stop-color="#F47920"/>
<stop offset="1" stop-color="#ED1C24"/>
</linearGradient>
<linearGradient id="paint3_linear_14498_16155" x1="-0.214005" y1="42.0132" x2="24.684" y2="31.6269" gradientUnits="userSpaceOnUse">
<stop stop-color="#FEDB00"/>
<stop offset="1" stop-color="#F9A01B"/>
</linearGradient>
<clipPath id="clip0_14498_16155">
<rect width="40" height="40" fill="white"/>
</clipPath>
<clipPath id="clip1_14498_16155">
<rect width="40" height="40" rx="20" fill="white"/>
</clipPath>
</defs>
</svg>
