<svg width="24" height="24" viewBox="0 0 24 24" fill="none" xmlns="http://www.w3.org/2000/svg">
<g clip-path="url(#clip0_14944_6257)">
<mask id="mask0_14944_6257" style="mask-type:luminance" maskUnits="userSpaceOnUse" x="0" y="0" width="25" height="24">
<path d="M24.5 0H0.5V24H24.5V0Z" fill="white"/>
</mask>
<g mask="url(#mask0_14944_6257)">
<path d="M9.25 4.75H15.75C19.06 4.75 21.75 7.44 21.75 10.75V13.25C21.75 16.56 19.06 19.25 15.75 19.25H3.25V10.75C3.25 7.44 5.94 4.75 9.25 4.75Z" stroke="#333333" stroke-width="1.5" stroke-linecap="round" stroke-linejoin="round"/>
<path d="M8.5 13C9.05228 13 9.5 12.5523 9.5 12C9.5 11.4477 9.05228 11 8.5 11C7.94772 11 7.5 11.4477 7.5 12C7.5 12.5523 7.94772 13 8.5 13Z" fill="#333333"/>
<path d="M13.5 12C13.5 12.5523 13.0523 13 12.5 13C11.9477 13 11.5 12.5523 11.5 12C11.5 11.4477 11.9477 11 12.5 11C13.0523 11 13.5 11.4477 13.5 12Z" fill="#333333"/>
<path d="M16.5 13C17.0523 13 17.5 12.5523 17.5 12C17.5 11.4477 17.0523 11 16.5 11C15.9477 11 15.5 11.4477 15.5 12C15.5 12.5523 15.9477 13 16.5 13Z" fill="#333333"/>
</g>
</g>
<defs>
<clipPath id="clip0_14944_6257">
<rect width="24" height="24" fill="white"/>
</clipPath>
</defs>
</svg>
