<svg width="24" height="24" viewBox="0 0 24 24" fill="none" xmlns="http://www.w3.org/2000/svg">
<rect x="1.25" y="0.922119" width="21.5" height="21.5" rx="10.75" fill="#DA2128"/>
<rect x="1.25" y="0.922119" width="21.5" height="21.5" rx="10.75" stroke="#DA2128" stroke-width="1.5"/>
<path fill-rule="evenodd" clip-rule="evenodd" d="M17.3731 7.16106C17.6623 7.40007 17.703 7.82828 17.464 8.1175L11.0917 15.8287L11.09 15.8307C10.9559 15.9918 10.7875 16.121 10.5971 16.2088C10.4067 16.2967 10.1991 16.341 9.98948 16.3386C9.77639 16.336 9.56606 16.2851 9.37545 16.1898C9.18546 16.0948 9.01938 15.9581 8.88959 15.79C8.88916 15.7894 8.88874 15.7889 8.88832 15.7883L6.89314 13.2231C6.66279 12.9269 6.71614 12.5001 7.0123 12.2698C7.30846 12.0394 7.73528 12.0928 7.96563 12.3889L9.96505 14.9596C9.96986 14.9659 9.97603 14.971 9.98309 14.9745C9.99014 14.978 9.99791 14.9799 10.0058 14.98C10.0136 14.9801 10.0207 14.9784 10.0277 14.9752C10.0346 14.972 10.0407 14.9674 10.0456 14.9616C10.0455 14.9617 10.0457 14.9615 10.0456 14.9616L16.4166 7.25199C16.6557 6.96276 17.0839 6.92206 17.3731 7.16106Z" fill="white"/>
</svg>
