<svg width="9" height="8" viewBox="0 0 9 8" fill="none" xmlns="http://www.w3.org/2000/svg">
<path fill-rule="evenodd" clip-rule="evenodd" d="M7.83792 0.777956C8.0445 0.948674 8.07358 1.25454 7.90286 1.46113L3.3512 6.96911L3.35002 6.97053C3.25418 7.08561 3.1339 7.17789 2.99791 7.24065C2.86193 7.30341 2.71367 7.33508 2.56391 7.33335C2.41171 7.33145 2.26147 7.2951 2.12532 7.22702C1.98962 7.15917 1.87098 7.06155 1.77828 6.94146C1.77797 6.94107 1.77767 6.94068 1.77737 6.94029L0.35224 5.10798C0.187705 4.89644 0.225814 4.59157 0.437358 4.42703C0.648903 4.2625 0.953775 4.30061 1.11831 4.51215L2.54646 6.34835C2.5499 6.35282 2.5543 6.35645 2.55935 6.35898C2.56439 6.3615 2.56994 6.36284 2.57557 6.36291C2.58112 6.36298 2.58618 6.3618 2.59122 6.35947C2.59613 6.3572 2.6005 6.35389 2.60401 6.34977C2.60392 6.34986 2.60409 6.34967 2.60401 6.34977L7.15475 0.842901C7.32547 0.636315 7.63133 0.607238 7.83792 0.777956Z"/>
</svg>
