<svg width="13" height="12" viewBox="0 0 13 12" fill="none" xmlns="http://www.w3.org/2000/svg">
<path fill-rule="evenodd" clip-rule="evenodd" d="M12.1407 0.84468C12.4712 1.11783 12.5177 1.60721 12.2446 1.93775L4.96192 10.7505L4.96004 10.7528C4.80669 10.9369 4.61423 11.0846 4.39666 11.185C4.17909 11.2854 3.94187 11.3361 3.70226 11.3333C3.45873 11.3303 3.21836 11.2721 3.00052 11.1632C2.78338 11.0546 2.59358 10.8984 2.44524 10.7063C2.44476 10.7057 2.44428 10.705 2.4438 10.7044L0.163583 7.77273C-0.0996718 7.43426 -0.0386973 6.94646 0.299774 6.6832C0.638245 6.41995 1.12604 6.48092 1.3893 6.81939L3.67434 9.75731C3.67985 9.76446 3.68689 9.77028 3.69495 9.77431C3.70302 9.77834 3.7119 9.7805 3.72092 9.78061C3.7298 9.78071 3.73789 9.77883 3.74595 9.77511C3.75382 9.77148 3.7608 9.76618 3.76641 9.75958C3.76628 9.75974 3.76655 9.75942 3.76641 9.75958L11.0476 0.948593C11.3207 0.618055 11.8101 0.571531 12.1407 0.84468Z"/>
</svg>
