<svg width="77" height="33" viewBox="0 0 77 33" fill="none" xmlns="http://www.w3.org/2000/svg">
<g filter="url(#filter0_ddii_5055_31477)">
<rect x="4" y="2" width="69" height="21" rx="6" fill="#FF8A00"/>
<path d="M11.774 16.1C11.294 16.1 10.884 16.0433 10.544 15.93C10.2107 15.81 9.93065 15.66 9.70398 15.48C9.48398 15.2933 9.30732 15.1 9.17398 14.9C9.04065 14.6933 8.94065 14.5 8.87398 14.32C8.81398 14.1333 8.77398 13.9833 8.75398 13.87C8.74065 13.75 8.73398 13.69 8.73398 13.69H10.294C10.294 13.69 10.3073 13.7467 10.334 13.86C10.3673 13.9733 10.434 14.1067 10.534 14.26C10.634 14.4067 10.7873 14.5367 10.994 14.65C11.2007 14.7567 11.4807 14.81 11.834 14.81C12.2673 14.81 12.5873 14.72 12.794 14.54C13.0007 14.3533 13.104 14.1333 13.104 13.88C13.104 13.6533 13.024 13.4733 12.864 13.34C12.7107 13.2067 12.4707 13.1067 12.144 13.04L11.154 12.85C10.754 12.7767 10.3807 12.66 10.034 12.5C9.69398 12.34 9.41732 12.12 9.20398 11.84C8.99065 11.5533 8.88398 11.1867 8.88398 10.74C8.88398 10.2867 8.99732 9.89333 9.22398 9.56C9.45065 9.22 9.76732 8.96 10.174 8.78C10.5873 8.59333 11.0707 8.5 11.624 8.5C12.144 8.5 12.574 8.57667 12.914 8.73C13.2607 8.87667 13.534 9.06 13.734 9.28C13.9407 9.49333 14.0907 9.71 14.184 9.93C14.284 10.15 14.3473 10.3333 14.374 10.48C14.4073 10.6267 14.424 10.7 14.424 10.7H12.904C12.904 10.7 12.8907 10.6533 12.864 10.56C12.844 10.4667 12.7907 10.36 12.704 10.24C12.6173 10.12 12.484 10.0133 12.304 9.92C12.1307 9.82667 11.8907 9.78 11.584 9.78C11.164 9.78 10.8607 9.87333 10.674 10.06C10.4873 10.24 10.394 10.4367 10.394 10.65C10.394 10.87 10.4873 11.04 10.674 11.16C10.8607 11.28 11.104 11.37 11.404 11.43L12.454 11.64C12.854 11.7133 13.2207 11.8367 13.554 12.01C13.8873 12.1833 14.1507 12.4167 14.344 12.71C14.544 12.9967 14.644 13.3533 14.644 13.78C14.644 14.22 14.534 14.6167 14.314 14.97C14.094 15.3167 13.7707 15.5933 13.344 15.8C12.9173 16 12.394 16.1 11.774 16.1ZM19.1505 6.05L18.0205 6.04L18.8305 4.24H20.2405L19.1505 6.05ZM18.5805 7.93C18.2138 7.93 17.9138 7.87667 17.6805 7.77C17.4538 7.66333 17.2771 7.53333 17.1505 7.38C17.0238 7.22667 16.9338 7.07333 16.8805 6.92C16.8271 6.76 16.7938 6.62667 16.7805 6.52C16.7738 6.41333 16.7705 6.36 16.7705 6.36H17.7705C17.7705 6.36 17.7771 6.39667 17.7905 6.47C17.8038 6.54333 17.8338 6.62667 17.8805 6.72C17.9338 6.80667 18.0138 6.88667 18.1205 6.96C18.2338 7.02667 18.3871 7.06 18.5805 7.06C18.7738 7.06 18.9238 7.02667 19.0305 6.96C19.1438 6.88667 19.2238 6.80667 19.2705 6.72C19.3238 6.62667 19.3538 6.54333 19.3605 6.47C19.3738 6.39667 19.3805 6.36 19.3805 6.36H20.3805C20.3805 6.36 20.3738 6.41333 20.3605 6.52C20.3538 6.62667 20.3238 6.76 20.2705 6.92C20.2171 7.07333 20.1271 7.22667 20.0005 7.38C19.8738 7.53333 19.6971 7.66333 19.4705 7.77C19.2438 7.87667 18.9471 7.93 18.5805 7.93ZM15.0305 16L17.5505 8.6H19.6005L22.1205 16H20.5005L20.0205 14.55H17.1305L16.6505 16H15.0305ZM17.5505 13.21H19.6005L18.5805 10.12L17.5505 13.21ZM23.096 16V8.6H26.146C26.7527 8.6 27.256 8.72 27.656 8.96C28.0627 9.2 28.366 9.51 28.566 9.89C28.7727 10.2633 28.876 10.6533 28.876 11.06C28.876 11.48 28.7727 11.88 28.566 12.26C28.366 12.6333 28.0627 12.94 27.656 13.18C27.256 13.42 26.7527 13.54 26.146 13.54H24.636V16H23.096ZM26.146 9.95H24.636V12.2H26.146C26.406 12.2 26.6227 12.1467 26.796 12.04C26.9693 11.9267 27.0993 11.7867 27.186 11.62C27.2793 11.4467 27.326 11.2633 27.326 11.07C27.326 10.8833 27.2793 10.7033 27.186 10.53C27.0993 10.3567 26.9693 10.2167 26.796 10.11C26.6227 10.0033 26.406 9.95 26.146 9.95ZM31.7978 16L33.3678 8.6H35.4478C35.9611 8.6 36.3811 8.69333 36.7078 8.88C37.0411 9.06667 37.2878 9.31 37.4478 9.61C37.6078 9.90333 37.6878 10.2167 37.6878 10.55C37.6878 10.89 37.6078 11.2233 37.4478 11.55C37.2878 11.87 37.0511 12.15 36.7378 12.39C36.4311 12.6233 36.0511 12.7767 35.5978 12.85L36.7678 16H35.7478L34.6178 12.89H33.4378L32.7778 16H31.7978ZM35.4378 9.46H34.1678L33.6178 12.05H35.0878C35.4345 12.05 35.7278 11.9767 35.9678 11.83C36.2078 11.6833 36.3878 11.4967 36.5078 11.27C36.6345 11.0433 36.6978 10.8133 36.6978 10.58C36.6978 10.2867 36.5945 10.0267 36.3878 9.8C36.1878 9.57333 35.8711 9.46 35.4378 9.46ZM37.7224 16L41.9124 8.6H43.0724L44.1124 16H43.1524L42.9124 14.23H39.8024L38.8124 16H37.7224ZM40.3024 13.35H42.7924L42.3124 9.77L40.3024 13.35ZM47.6181 16L49.1881 8.6H50.4781L51.7181 13L54.8281 8.6H56.1181L54.5481 16H53.5681L54.7981 10.22L52.0181 14.1H51.0681L49.8781 9.95L48.5981 16H47.6181ZM61.4416 6.15L60.6616 6.14L61.5916 4.34H62.5416L61.4416 6.15ZM60.7416 7.85C60.435 7.85 60.1883 7.80333 60.0016 7.71C59.815 7.61 59.6716 7.49 59.5716 7.35C59.4783 7.21 59.415 7.07 59.3816 6.93C59.3483 6.79 59.3283 6.67333 59.3216 6.58C59.3216 6.48 59.3216 6.43 59.3216 6.43H60.0316C60.0316 6.43 60.0283 6.47 60.0216 6.55C60.0216 6.63 60.0383 6.72333 60.0716 6.83C60.1116 6.93 60.1816 7.02 60.2816 7.1C60.3883 7.18 60.545 7.22 60.7516 7.22C60.965 7.22 61.1383 7.18 61.2716 7.1C61.4116 7.02 61.5183 6.93 61.5916 6.83C61.6716 6.72333 61.7283 6.63 61.7616 6.55C61.795 6.47 61.8116 6.43 61.8116 6.43H62.5216C62.5216 6.43 62.5083 6.48 62.4816 6.58C62.455 6.67333 62.405 6.79 62.3316 6.93C62.2583 7.07 62.155 7.21 62.0216 7.35C61.8883 7.49 61.715 7.61 61.5016 7.71C61.295 7.80333 61.0416 7.85 60.7416 7.85ZM55.6716 16L59.8616 8.6H61.0216L62.0616 16H61.1016L60.8616 14.23H57.7516L56.7616 16H55.6716ZM58.2516 13.35H60.7416L60.2616 9.77L58.2516 13.35ZM64.0891 16L65.4791 9.46H63.0791L63.2591 8.6H69.0591L68.8791 9.46H66.4591L65.0691 16H64.0891Z" fill="white"/>
<path d="M40.3462 26.2308C39.6649 26.5146 39.3243 26.6565 38.9718 26.7127C38.6592 26.7624 38.3408 26.7624 38.0282 26.7127C37.6757 26.6565 37.3351 26.5146 36.6538 26.2308L26.5 22L50.5 22L40.3462 26.2308Z" fill="#FF8A00"/>
</g>
<defs>
<filter id="filter0_ddii_5055_31477" x="0" y="0" width="77" height="33" filterUnits="userSpaceOnUse" color-interpolation-filters="sRGB">
<feFlood flood-opacity="0" result="BackgroundImageFix"/>
<feColorMatrix in="SourceAlpha" type="matrix" values="0 0 0 0 0 0 0 0 0 0 0 0 0 0 0 0 0 0 127 0" result="hardAlpha"/>
<feOffset dy="2"/>
<feGaussianBlur stdDeviation="2"/>
<feComposite in2="hardAlpha" operator="out"/>
<feColorMatrix type="matrix" values="0 0 0 0 0 0 0 0 0 0 0 0 0 0 0 0 0 0 0.15 0"/>
<feBlend mode="normal" in2="BackgroundImageFix" result="effect1_dropShadow_5055_31477"/>
<feColorMatrix in="SourceAlpha" type="matrix" values="0 0 0 0 0 0 0 0 0 0 0 0 0 0 0 0 0 0 127 0" result="hardAlpha"/>
<feOffset dy="1"/>
<feGaussianBlur stdDeviation="1"/>
<feComposite in2="hardAlpha" operator="out"/>
<feColorMatrix type="matrix" values="0 0 0 0 0 0 0 0 0 0 0 0 0 0 0 0 0 0 0.1 0"/>
<feBlend mode="normal" in2="effect1_dropShadow_5055_31477" result="effect2_dropShadow_5055_31477"/>
<feBlend mode="normal" in="SourceGraphic" in2="effect2_dropShadow_5055_31477" result="shape"/>
<feColorMatrix in="SourceAlpha" type="matrix" values="0 0 0 0 0 0 0 0 0 0 0 0 0 0 0 0 0 0 127 0" result="hardAlpha"/>
<feOffset dy="0.5"/>
<feGaussianBlur stdDeviation="0.5"/>
<feComposite in2="hardAlpha" operator="arithmetic" k2="-1" k3="1"/>
<feColorMatrix type="matrix" values="0 0 0 0 1 0 0 0 0 1 0 0 0 0 1 0 0 0 0.25 0"/>
<feBlend mode="normal" in2="shape" result="effect3_innerShadow_5055_31477"/>
<feColorMatrix in="SourceAlpha" type="matrix" values="0 0 0 0 0 0 0 0 0 0 0 0 0 0 0 0 0 0 127 0" result="hardAlpha"/>
<feOffset dy="0.5"/>
<feComposite in2="hardAlpha" operator="arithmetic" k2="-1" k3="1"/>
<feColorMatrix type="matrix" values="0 0 0 0 1 0 0 0 0 1 0 0 0 0 1 0 0 0 0.05 0"/>
<feBlend mode="normal" in2="effect3_innerShadow_5055_31477" result="effect4_innerShadow_5055_31477"/>
</filter>
</defs>
</svg>
