<svg width="92" height="33" viewBox="0 0 92 33" fill="none" xmlns="http://www.w3.org/2000/svg">
<g filter="url(#filter0_ddii_1932_178)">
<rect x="4" y="2" width="84" height="21" rx="6" fill="#FF8A00"/>
<path d="M12.3796 16.1C11.7662 16.1 11.2296 15.9933 10.7696 15.78C10.3162 15.56 9.93624 15.27 9.62957 14.91C9.3229 14.5433 9.0929 14.1333 8.93957 13.68C8.78624 13.2267 8.70957 12.7633 8.70957 12.29C8.70957 11.8233 8.78624 11.3633 8.93957 10.91C9.0929 10.4567 9.3229 10.05 9.62957 9.69C9.93624 9.32333 10.3162 9.03333 10.7696 8.82C11.2296 8.60667 11.7662 8.5 12.3796 8.5C12.8929 8.5 13.3296 8.56667 13.6896 8.7C14.0562 8.82667 14.3596 8.99333 14.5996 9.2C14.8462 9.4 15.0429 9.61667 15.1896 9.85C15.3429 10.0767 15.4562 10.2933 15.5296 10.5C15.6029 10.7 15.6496 10.8667 15.6696 11C15.6962 11.1267 15.7096 11.19 15.7096 11.19H14.1796C14.1796 11.19 14.1662 11.1467 14.1396 11.06C14.1196 10.9667 14.0762 10.8567 14.0096 10.73C13.9429 10.5967 13.8429 10.4667 13.7096 10.34C13.5829 10.2133 13.4096 10.1067 13.1896 10.02C12.9762 9.92667 12.7096 9.88 12.3896 9.88C11.9296 9.88 11.5429 10 11.2296 10.24C10.9229 10.4733 10.6896 10.7733 10.5296 11.14C10.3762 11.5067 10.2996 11.89 10.2996 12.29C10.2996 12.69 10.3762 13.0767 10.5296 13.45C10.6896 13.8167 10.9229 14.12 11.2296 14.36C11.5429 14.5933 11.9296 14.71 12.3896 14.71C12.7096 14.71 12.9762 14.6667 13.1896 14.58C13.4096 14.4933 13.5829 14.3867 13.7096 14.26C13.8429 14.1267 13.9429 13.9967 14.0096 13.87C14.0762 13.7367 14.1196 13.6267 14.1396 13.54C14.1662 13.4533 14.1796 13.41 14.1796 13.41H15.7096C15.7096 13.41 15.6962 13.4767 15.6696 13.61C15.6496 13.7367 15.6029 13.9033 15.5296 14.11C15.4562 14.31 15.3429 14.5267 15.1896 14.76C15.0429 14.9867 14.8462 15.2033 14.5996 15.41C14.3596 15.61 14.0562 15.7767 13.6896 15.91C13.3296 16.0367 12.8929 16.1 12.3796 16.1ZM20.2523 16.1C19.639 16.1 19.099 15.9933 18.6323 15.78C18.1656 15.56 17.7723 15.27 17.4523 14.91C17.139 14.5433 16.9023 14.1333 16.7423 13.68C16.589 13.2267 16.5123 12.7633 16.5123 12.29C16.5123 11.8167 16.589 11.3567 16.7423 10.91C16.9023 10.4567 17.139 10.05 17.4523 9.69C17.7723 9.33 18.1656 9.04333 18.6323 8.83C19.099 8.61 19.639 8.5 20.2523 8.5C20.8723 8.5 21.4156 8.61 21.8823 8.83C22.349 9.04333 22.739 9.33 23.0523 9.69C23.3656 10.05 23.599 10.4567 23.7523 10.91C23.9123 11.3567 23.9923 11.8167 23.9923 12.29C23.9923 12.7633 23.9123 13.2267 23.7523 13.68C23.599 14.1333 23.3656 14.5433 23.0523 14.91C22.739 15.27 22.349 15.56 21.8823 15.78C21.4156 15.9933 20.8723 16.1 20.2523 16.1ZM20.2523 14.71C20.719 14.71 21.1123 14.5933 21.4323 14.36C21.7523 14.1267 21.9923 13.8267 22.1523 13.46C22.3123 13.0867 22.3923 12.6967 22.3923 12.29C22.3923 11.8833 22.3123 11.4967 22.1523 11.13C21.9923 10.7633 21.7523 10.4633 21.4323 10.23C21.1123 9.99667 20.719 9.88 20.2523 9.88C19.7856 9.88 19.3923 9.99667 19.0723 10.23C18.759 10.4633 18.5223 10.7633 18.3623 11.13C18.2023 11.4967 18.1223 11.8833 18.1223 12.29C18.1223 12.6967 18.2023 13.0867 18.3623 13.46C18.5223 13.8267 18.759 14.1267 19.0723 14.36C19.3923 14.5933 19.7856 14.71 20.2523 14.71ZM25.0736 16V8.6H27.1536L28.8436 12.41L30.5836 8.6H32.5936V16H31.0736V10.96L29.5536 14.27H28.1236L26.5936 10.94V16H25.0736ZM33.9505 16V8.6H35.4905V16H33.9505ZM36.8509 16V8.6H38.2609L41.4509 13.32V8.6H42.9809V16H41.5509L38.3809 11.41V16H36.8509ZM47.7811 16.1C47.1611 16.1 46.6178 15.9933 46.1511 15.78C45.6845 15.5667 45.2945 15.28 44.9811 14.92C44.6745 14.5533 44.4445 14.1467 44.2911 13.7C44.1378 13.2467 44.0611 12.7833 44.0611 12.31C44.0611 11.8367 44.1378 11.3733 44.2911 10.92C44.4511 10.4667 44.6845 10.06 44.9911 9.7C45.3045 9.33333 45.6978 9.04333 46.1711 8.83C46.6445 8.61 47.1978 8.5 47.8311 8.5C48.3245 8.5 48.7478 8.56333 49.1011 8.69C49.4611 8.81 49.7611 8.97 50.0011 9.17C50.2411 9.36333 50.4311 9.57 50.5711 9.79C50.7178 10.01 50.8278 10.22 50.9011 10.42C50.9811 10.6133 51.0311 10.7733 51.0511 10.9C51.0778 11.02 51.0911 11.08 51.0911 11.08H49.5611C49.5611 11.08 49.5411 11.02 49.5011 10.9C49.4611 10.78 49.3811 10.64 49.2611 10.48C49.1411 10.3133 48.9645 10.17 48.7311 10.05C48.5045 9.92333 48.2045 9.86 47.8311 9.86C47.3445 9.86 46.9378 9.98 46.6111 10.22C46.2911 10.4533 46.0478 10.7567 45.8811 11.13C45.7211 11.4967 45.6411 11.88 45.6411 12.28C45.6411 12.6933 45.7245 13.09 45.8911 13.47C46.0578 13.8433 46.3011 14.15 46.6211 14.39C46.9478 14.6233 47.3545 14.74 47.8411 14.74C48.3745 14.74 48.7945 14.6033 49.1011 14.33C49.4145 14.0567 49.6011 13.6867 49.6611 13.22H47.7411V12.01H51.1811V12.58C51.1811 13.3533 51.0311 14.0033 50.7311 14.53C50.4378 15.05 50.0345 15.4433 49.5211 15.71C49.0145 15.97 48.4345 16.1 47.7811 16.1ZM57.0162 16.1C56.5362 16.1 56.1362 16.0467 55.8162 15.94C55.4962 15.8267 55.2362 15.6833 55.0362 15.51C54.8362 15.33 54.6829 15.1433 54.5762 14.95C54.4695 14.75 54.3929 14.5633 54.3462 14.39C54.3062 14.21 54.2829 14.0667 54.2762 13.96C54.2762 13.8467 54.2762 13.79 54.2762 13.79H55.2662C55.2662 13.79 55.2695 13.84 55.2762 13.94C55.2829 14.0333 55.3095 14.1533 55.3562 14.3C55.4095 14.4467 55.4962 14.5933 55.6162 14.74C55.7362 14.8867 55.9062 15.01 56.1262 15.11C56.3529 15.2033 56.6495 15.25 57.0162 15.25C57.3229 15.25 57.6029 15.2 57.8562 15.1C58.1095 14.9933 58.3129 14.8467 58.4662 14.66C58.6262 14.4667 58.7062 14.24 58.7062 13.98C58.7062 13.6867 58.5995 13.4567 58.3862 13.29C58.1795 13.1167 57.9262 12.9667 57.6262 12.84L56.7762 12.47C56.5162 12.3567 56.2762 12.2233 56.0562 12.07C55.8362 11.91 55.6595 11.71 55.5262 11.47C55.3929 11.2233 55.3262 10.9267 55.3262 10.58C55.3262 10.22 55.4262 9.88333 55.6262 9.57C55.8262 9.25 56.1129 8.99333 56.4862 8.8C56.8662 8.6 57.3262 8.5 57.8662 8.5C58.2929 8.5 58.6495 8.55333 58.9362 8.66C59.2295 8.76 59.4662 8.89 59.6462 9.05C59.8262 9.21 59.9629 9.38 60.0562 9.56C60.1562 9.74 60.2262 9.91 60.2662 10.07C60.3062 10.23 60.3262 10.3633 60.3262 10.47C60.3329 10.57 60.3362 10.62 60.3362 10.62H59.3862C59.3862 10.62 59.3795 10.5767 59.3662 10.49C59.3529 10.4033 59.3229 10.2967 59.2762 10.17C59.2295 10.0367 59.1495 9.90667 59.0362 9.78C58.9295 9.65333 58.7795 9.54667 58.5862 9.46C58.3995 9.37333 58.1595 9.33 57.8662 9.33C57.3795 9.33 56.9962 9.44667 56.7162 9.68C56.4429 9.90667 56.3062 10.1867 56.3062 10.52C56.3062 10.7867 56.3895 11.0067 56.5562 11.18C56.7229 11.3467 56.9362 11.4867 57.1962 11.6L57.9962 11.95C58.2695 12.07 58.5329 12.21 58.7862 12.37C59.0462 12.53 59.2595 12.7367 59.4262 12.99C59.5995 13.2367 59.6862 13.56 59.6862 13.96C59.6862 14.36 59.5695 14.7233 59.3362 15.05C59.1029 15.37 58.7862 15.6267 58.3862 15.82C57.9862 16.0067 57.5295 16.1 57.0162 16.1ZM64.2057 16.1C63.679 16.1 63.2223 16.0133 62.8357 15.84C62.4557 15.66 62.139 15.42 61.8857 15.12C61.6323 14.8133 61.4423 14.4667 61.3157 14.08C61.1957 13.6933 61.1357 13.2867 61.1357 12.86C61.1357 12.34 61.2223 11.8233 61.3957 11.31C61.5757 10.7967 61.8357 10.33 62.1757 9.91C62.5157 9.48333 62.9323 9.14333 63.4257 8.89C63.919 8.63 64.4823 8.5 65.1157 8.5C65.6423 8.5 66.0957 8.59 66.4757 8.77C66.8623 8.94333 67.179 9.18333 67.4257 9.49C67.679 9.79 67.8657 10.1367 67.9857 10.53C68.1123 10.9167 68.1757 11.32 68.1757 11.74C68.1757 12.26 68.089 12.7767 67.9157 13.29C67.7423 13.8033 67.4857 14.2733 67.1457 14.7C66.8057 15.12 66.389 15.46 65.8957 15.72C65.4023 15.9733 64.839 16.1 64.2057 16.1ZM64.2357 15.21C64.709 15.21 65.1257 15.11 65.4857 14.91C65.8523 14.7033 66.1623 14.43 66.4157 14.09C66.669 13.75 66.859 13.3767 66.9857 12.97C67.119 12.5633 67.1857 12.16 67.1857 11.76C67.1857 11.34 67.109 10.95 66.9557 10.59C66.809 10.23 66.5823 9.94 66.2757 9.72C65.969 9.5 65.5723 9.39 65.0857 9.39C64.619 9.39 64.2023 9.49333 63.8357 9.7C63.469 9.9 63.159 10.17 62.9057 10.51C62.6523 10.85 62.459 11.2233 62.3257 11.63C62.199 12.0367 62.1357 12.44 62.1357 12.84C62.1357 13.26 62.209 13.65 62.3557 14.01C62.509 14.37 62.739 14.66 63.0457 14.88C63.359 15.1 63.7557 15.21 64.2357 15.21ZM72.0768 16.1C71.5501 16.1 71.0934 16.0133 70.7068 15.84C70.3268 15.66 70.0101 15.42 69.7568 15.12C69.5034 14.8133 69.3134 14.4667 69.1868 14.08C69.0668 13.6933 69.0068 13.2867 69.0068 12.86C69.0068 12.34 69.0934 11.8233 69.2668 11.31C69.4468 10.7967 69.7068 10.33 70.0468 9.91C70.3868 9.48333 70.8034 9.14333 71.2968 8.89C71.7901 8.63 72.3534 8.5 72.9868 8.5C73.5134 8.5 73.9668 8.59 74.3468 8.77C74.7334 8.94333 75.0501 9.18333 75.2968 9.49C75.5501 9.79 75.7368 10.1367 75.8568 10.53C75.9834 10.9167 76.0468 11.32 76.0468 11.74C76.0468 12.26 75.9601 12.7767 75.7868 13.29C75.6134 13.8033 75.3568 14.2733 75.0168 14.7C74.6768 15.12 74.2601 15.46 73.7668 15.72C73.2734 15.9733 72.7101 16.1 72.0768 16.1ZM72.1068 15.21C72.5801 15.21 72.9968 15.11 73.3568 14.91C73.7234 14.7033 74.0334 14.43 74.2868 14.09C74.5401 13.75 74.7301 13.3767 74.8568 12.97C74.9901 12.5633 75.0568 12.16 75.0568 11.76C75.0568 11.34 74.9801 10.95 74.8268 10.59C74.6801 10.23 74.4534 9.94 74.1468 9.72C73.8401 9.5 73.4434 9.39 72.9568 9.39C72.4901 9.39 72.0734 9.49333 71.7068 9.7C71.3401 9.9 71.0301 10.17 70.7768 10.51C70.5234 10.85 70.3301 11.2233 70.1968 11.63C70.0701 12.0367 70.0068 12.44 70.0068 12.84C70.0068 13.26 70.0801 13.65 70.2268 14.01C70.3801 14.37 70.6101 14.66 70.9168 14.88C71.2301 15.1 71.6268 15.21 72.1068 15.21ZM76.5879 16L78.1579 8.6H79.0379L81.7079 14.23L82.8979 8.6H83.8779L82.3079 16H81.4279L78.7679 10.38L77.5679 16H76.5879Z" fill="white"/>
<path d="M47.8462 26.2308C47.1649 26.5146 46.8243 26.6565 46.4718 26.7127C46.1592 26.7624 45.8408 26.7624 45.5282 26.7127C45.1757 26.6565 44.8351 26.5146 44.1538 26.2308L34 22L58 22L47.8462 26.2308Z" fill="#FF8A00"/>
</g>
<defs>
<filter id="filter0_ddii_1932_178" x="0" y="0" width="92" height="33" filterUnits="userSpaceOnUse" color-interpolation-filters="sRGB">
<feFlood flood-opacity="0" result="BackgroundImageFix"/>
<feColorMatrix in="SourceAlpha" type="matrix" values="0 0 0 0 0 0 0 0 0 0 0 0 0 0 0 0 0 0 127 0" result="hardAlpha"/>
<feOffset dy="2"/>
<feGaussianBlur stdDeviation="2"/>
<feComposite in2="hardAlpha" operator="out"/>
<feColorMatrix type="matrix" values="0 0 0 0 0 0 0 0 0 0 0 0 0 0 0 0 0 0 0.15 0"/>
<feBlend mode="normal" in2="BackgroundImageFix" result="effect1_dropShadow_1932_178"/>
<feColorMatrix in="SourceAlpha" type="matrix" values="0 0 0 0 0 0 0 0 0 0 0 0 0 0 0 0 0 0 127 0" result="hardAlpha"/>
<feOffset dy="1"/>
<feGaussianBlur stdDeviation="1"/>
<feComposite in2="hardAlpha" operator="out"/>
<feColorMatrix type="matrix" values="0 0 0 0 0 0 0 0 0 0 0 0 0 0 0 0 0 0 0.1 0"/>
<feBlend mode="normal" in2="effect1_dropShadow_1932_178" result="effect2_dropShadow_1932_178"/>
<feBlend mode="normal" in="SourceGraphic" in2="effect2_dropShadow_1932_178" result="shape"/>
<feColorMatrix in="SourceAlpha" type="matrix" values="0 0 0 0 0 0 0 0 0 0 0 0 0 0 0 0 0 0 127 0" result="hardAlpha"/>
<feOffset dy="0.5"/>
<feGaussianBlur stdDeviation="0.5"/>
<feComposite in2="hardAlpha" operator="arithmetic" k2="-1" k3="1"/>
<feColorMatrix type="matrix" values="0 0 0 0 1 0 0 0 0 1 0 0 0 0 1 0 0 0 0.25 0"/>
<feBlend mode="normal" in2="shape" result="effect3_innerShadow_1932_178"/>
<feColorMatrix in="SourceAlpha" type="matrix" values="0 0 0 0 0 0 0 0 0 0 0 0 0 0 0 0 0 0 127 0" result="hardAlpha"/>
<feOffset dy="0.5"/>
<feComposite in2="hardAlpha" operator="arithmetic" k2="-1" k3="1"/>
<feColorMatrix type="matrix" values="0 0 0 0 1 0 0 0 0 1 0 0 0 0 1 0 0 0 0.05 0"/>
<feBlend mode="normal" in2="effect3_innerShadow_1932_178" result="effect4_innerShadow_1932_178"/>
</filter>
</defs>
</svg>
