<svg width="48" height="48" viewBox="0 0 48 48" fill="none" xmlns="http://www.w3.org/2000/svg">
<g filter="url(#filter0_bd_7780_72077)">
<rect x="4" width="40" height="40" rx="20" fill="white" fill-opacity="0.84" shape-rendering="crispEdges"/>
<path d="M31 19.9999C31 18.6166 30.6333 17.3541 29.9 16.2124C29.1667 15.0707 28.1833 14.2166 26.95 13.6499C26.7 13.5332 26.5167 13.3541 26.4 13.1124C26.2833 12.8707 26.2667 12.6249 26.35 12.3749C26.45 12.1082 26.6292 11.9166 26.8875 11.7999C27.1458 11.6832 27.4083 11.6832 27.675 11.7999C29.2917 12.5166 30.5833 13.6124 31.55 15.0874C32.5167 16.5624 33 18.1999 33 19.9999C33 21.7999 32.5167 23.4374 31.55 24.9124C30.5833 26.3874 29.2917 27.4832 27.675 28.1999C27.4083 28.3166 27.1458 28.3166 26.8875 28.1999C26.6292 28.0832 26.45 27.8916 26.35 27.6249C26.2667 27.3749 26.2833 27.1291 26.4 26.8874C26.5167 26.6457 26.7 26.4666 26.95 26.3499C28.1833 25.7832 29.1667 24.9291 29.9 23.7874C30.6333 22.6457 31 21.3832 31 19.9999ZM19 23.0249H16C15.7167 23.0249 15.4792 22.9291 15.2875 22.7374C15.0958 22.5457 15 22.3082 15 22.0249V18.0249C15 17.7416 15.0958 17.5041 15.2875 17.3124C15.4792 17.1207 15.7167 17.0249 16 17.0249H19L22.3 13.7249C22.6167 13.4082 22.9792 13.3374 23.3875 13.5124C23.7958 13.6874 24 13.9999 24 14.4499V25.5999C24 26.0499 23.7958 26.3624 23.3875 26.5374C22.9792 26.7124 22.6167 26.6416 22.3 26.3249L19 23.0249ZM28.5 20.0249C28.5 20.7249 28.3417 21.3874 28.025 22.0124C27.7083 22.6374 27.2917 23.1499 26.775 23.5499C26.6083 23.6499 26.4375 23.6541 26.2625 23.5624C26.0875 23.4707 26 23.3249 26 23.1249V16.8749C26 16.6749 26.0875 16.5291 26.2625 16.4374C26.4375 16.3457 26.6083 16.3499 26.775 16.4499C27.2917 16.8666 27.7083 17.3916 28.025 18.0249C28.3417 18.6582 28.5 19.3249 28.5 20.0249Z" fill="#333333"/>
</g>
<defs>
<filter id="filter0_bd_7780_72077" x="-6" y="-10" width="60" height="60" filterUnits="userSpaceOnUse" color-interpolation-filters="sRGB">
<feFlood flood-opacity="0" result="BackgroundImageFix"/>
<feGaussianBlur in="BackgroundImageFix" stdDeviation="5"/>
<feComposite in2="SourceAlpha" operator="in" result="effect1_backgroundBlur_7780_72077"/>
<feColorMatrix in="SourceAlpha" type="matrix" values="0 0 0 0 0 0 0 0 0 0 0 0 0 0 0 0 0 0 127 0" result="hardAlpha"/>
<feOffset dy="4"/>
<feGaussianBlur stdDeviation="2"/>
<feComposite in2="hardAlpha" operator="out"/>
<feColorMatrix type="matrix" values="0 0 0 0 0 0 0 0 0 0 0 0 0 0 0 0 0 0 0.15 0"/>
<feBlend mode="normal" in2="effect1_backgroundBlur_7780_72077" result="effect2_dropShadow_7780_72077"/>
<feBlend mode="normal" in="SourceGraphic" in2="effect2_dropShadow_7780_72077" result="shape"/>
</filter>
</defs>
</svg>
