<svg width="48" height="48" viewBox="0 0 48 48" fill="none" xmlns="http://www.w3.org/2000/svg">
<g filter="url(#filter0_d_12829_28258)">
<rect x="4" width="40" height="40" rx="20" fill="white" fill-opacity="0.84" shape-rendering="crispEdges"/>
<path fill-rule="evenodd" clip-rule="evenodd" d="M30.0464 19.0991C30.0552 19.2477 30.0596 19.3977 30.0596 19.5492C30.0596 20.9326 29.6929 22.1951 28.9596 23.3367C28.2262 24.4784 27.2429 25.3326 26.0096 25.8992C25.7596 26.0159 25.5762 26.1951 25.4596 26.4367C25.3429 26.6784 25.3262 26.9242 25.4096 27.1742C25.5096 27.4409 25.6887 27.6326 25.9471 27.7492C26.2054 27.8659 26.4679 27.8659 26.7346 27.7492C28.3512 27.0326 29.6429 25.9367 30.6096 24.4617C31.5762 22.9867 32.0596 21.3492 32.0596 19.5492C32.0596 18.7478 31.9638 17.9786 31.7721 17.2416L30.0464 19.0991ZM29.3591 16.4683L30.7918 14.9262C30.7331 14.829 30.6724 14.7325 30.6096 14.6367C29.6429 13.1617 28.3512 12.0659 26.7346 11.3492C26.4679 11.2326 26.2054 11.2326 25.9471 11.3492C25.6887 11.4659 25.5096 11.6576 25.4096 11.9242C25.3262 12.1742 25.3429 12.4201 25.4596 12.6617C25.5762 12.9034 25.7596 13.0826 26.0096 13.1992C27.2429 13.7659 28.2262 14.6201 28.9596 15.7617C29.1077 15.9923 29.2409 16.2279 29.3591 16.4683ZM15.0596 22.5742H18.0596L20.9762 25.4908L23.0596 23.2485V13.9992C23.0596 13.5492 22.8554 13.2367 22.4471 13.0617C22.0387 12.8867 21.6762 12.9576 21.3596 13.2742L18.0596 16.5742H15.0596C14.7762 16.5742 14.5387 16.6701 14.3471 16.8617C14.1554 17.0534 14.0596 17.2909 14.0596 17.5742V21.5742C14.0596 21.8576 14.1554 22.0951 14.3471 22.2867C14.5387 22.4784 14.7762 22.5742 15.0596 22.5742ZM25.0596 21.0959V16.4242C25.0596 16.2242 25.1471 16.0784 25.3221 15.9867C25.4971 15.8951 25.6679 15.8992 25.8346 15.9992C26.3512 16.4159 26.7679 16.9409 27.0846 17.5742C27.2409 17.8868 27.3586 18.2075 27.4377 18.5363L25.0596 21.0959Z" fill="#333333"/>
<rect x="32.5264" y="11.5781" width="2" height="22.2683" rx="1" transform="rotate(45 32.5264 11.5781)" fill="#333333"/>
</g>
<defs>
<filter id="filter0_d_12829_28258" x="-6" y="-10" width="60" height="60" filterUnits="userSpaceOnUse" color-interpolation-filters="sRGB">
<feFlood flood-opacity="0" result="BackgroundImageFix"/>
<feColorMatrix in="SourceAlpha" type="matrix" values="0 0 0 0 0 0 0 0 0 0 0 0 0 0 0 0 0 0 127 0" result="hardAlpha"/>
<feOffset dy="4"/>
<feGaussianBlur stdDeviation="2"/>
<feComposite in2="hardAlpha" operator="out"/>
<feColorMatrix type="matrix" values="0 0 0 0 0 0 0 0 0 0 0 0 0 0 0 0 0 0 0.15 0"/>
<feBlend mode="normal" in2="BackgroundImageFix" result="effect1_dropShadow_12829_28258"/>
<feBlend mode="normal" in="SourceGraphic" in2="effect1_dropShadow_12829_28258" result="shape"/>
</filter>
</defs>
</svg>
