<svg width="24" height="24" viewBox="0 0 24 24" fill="none" xmlns="http://www.w3.org/2000/svg">
<path fill-rule="evenodd" clip-rule="evenodd" d="M3.7681 11.4276C3.65275 11.5733 3.57895 11.7764 3.57895 12C3.57895 12.2237 3.65277 12.4268 3.76813 12.5725C4.49126 13.4474 5.6618 14.7185 7.1133 15.7661C8.57401 16.8203 10.2511 17.5993 12 17.5993C13.7489 17.5993 15.426 16.8203 16.8868 15.7661C18.3384 14.7184 19.5091 13.4471 20.2322 12.5721C20.3474 12.4265 20.4211 12.2235 20.4211 12C20.4211 11.7764 20.3472 11.5732 20.2319 11.4276C19.5088 10.5526 18.3382 9.2815 16.8868 8.23392C15.426 7.17968 13.7489 6.40072 12 6.40072C10.2511 6.40072 8.57401 7.17968 7.1133 8.23392C5.66178 9.28153 4.49123 10.5527 3.7681 11.4276ZM6.18925 6.95361C7.78801 5.79973 9.78794 4.82178 12 4.82178C14.2121 4.82178 16.212 5.79973 17.8108 6.95361C19.416 8.11211 20.6856 9.49743 21.4535 10.4272L21.4607 10.4359L21.4607 10.436C21.8144 10.877 22 11.4349 22 12C22 12.5652 21.8144 13.123 21.4607 13.5641L21.4536 13.5729L21.4535 13.5729C20.6856 14.5026 19.416 15.8879 17.8108 17.0464C16.212 18.2003 14.2121 19.1782 12 19.1782C9.78794 19.1782 7.78802 18.2003 6.18926 17.0464C4.58409 15.8879 3.31445 14.5026 2.54655 13.5729L2.53938 13.5642L2.53944 13.5642C2.18559 13.1231 2 12.5652 2 12C2 11.4349 2.18559 10.877 2.53944 10.4359L2.54649 10.4271L2.54655 10.4272C3.31445 9.49743 4.58409 8.11211 6.18925 6.95361Z" fill="#000"/>
<path fill-rule="evenodd" clip-rule="evenodd" d="M8.37109 12C8.37109 9.9958 9.9958 8.37109 12 8.37109C14.0042 8.37109 15.6289 9.9958 15.6289 12C15.6289 14.0042 14.0042 15.6289 12 15.6289C9.9958 15.6289 8.37109 14.0042 8.37109 12ZM12 9.95004C10.8678 9.95004 9.95004 10.8678 9.95004 12C9.95004 13.1321 10.8678 14.0499 12 14.0499C13.1321 14.0499 14.0499 13.1321 14.0499 12C14.0499 10.8678 13.1321 9.95004 12 9.95004Z" fill="#000"/>
</svg>
