<svg width="24" height="24" viewBox="0 0 24 24" fill="none" xmlns="http://www.w3.org/2000/svg">
<path fill-rule="evenodd" clip-rule="evenodd" d="M12.0001 6.41293C10.4657 6.41293 8.98529 7.01347 7.65375 7.87872C7.28815 8.1163 6.79917 8.01251 6.5616 7.6469C6.32402 7.2813 6.42781 6.79233 6.79342 6.55475C8.27534 5.59178 10.0549 4.83398 12.0001 4.83398C14.2084 4.83398 16.2048 5.81026 17.8007 6.96204C19.4029 8.11844 20.6702 9.50123 21.4367 10.4292L21.4439 10.438L21.4439 10.438C21.7971 10.8785 21.9825 11.4357 21.9825 12.0001C21.9825 12.5645 21.7971 13.1216 21.4439 13.5621L21.4368 13.571L21.4367 13.5709C20.5932 14.5921 19.1386 16.1699 17.2949 17.3876C16.9311 17.6279 16.4413 17.5277 16.2011 17.1639C15.9608 16.8001 16.0609 16.3103 16.4247 16.07C18.0801 14.9768 19.4177 13.5352 20.2151 12.5705C20.33 12.4254 20.4035 12.223 20.4035 12.0001C20.4035 11.7772 20.33 11.5747 20.2151 11.4296C19.4934 10.5564 18.3252 9.28783 16.8766 8.24236C15.4188 7.19022 13.7452 6.41293 12.0001 6.41293ZM5.69606 8.33662C5.99169 8.65711 5.97153 9.15657 5.65104 9.4522C4.87586 10.1672 4.23984 10.8793 3.78501 11.4297C3.67009 11.5747 3.59653 11.7772 3.59653 12.0001C3.59653 12.223 3.6701 12.4254 3.78501 12.5705C4.50672 13.4437 5.67494 14.7123 7.12352 15.7578C8.58132 16.8099 10.2549 17.5872 12.0001 17.5872C12.6439 17.5872 13.278 17.4817 13.897 17.2945C14.3144 17.1683 14.755 17.4043 14.8812 17.8216C15.0075 18.2389 14.7715 18.6796 14.3541 18.8058C13.6061 19.0321 12.8176 19.1661 12.0001 19.1661C9.79175 19.1661 7.79533 18.1898 6.19948 17.0381C4.59723 15.8817 3.32991 14.4989 2.56343 13.5709L2.55626 13.5622L2.55632 13.5622C2.20292 13.1216 2.01758 12.5645 2.01758 12.0001C2.01758 11.4357 2.20292 10.8785 2.55632 10.438L2.56337 10.4292L2.56343 10.4292C3.05111 9.83878 3.73756 9.06913 4.58048 8.2916C4.90097 7.99597 5.40043 8.01613 5.69606 8.33662Z" fill="#000"/>
<path fill-rule="evenodd" clip-rule="evenodd" d="M9.43778 9.43775C10.8528 8.0227 13.1471 8.0227 14.5621 9.43775L14.5621 9.43775C15.9772 10.8528 15.9772 13.1471 14.5621 14.5621C14.2538 14.8704 13.754 14.8704 13.4457 14.5621C13.1373 14.2538 13.1373 13.754 13.4457 13.4456C14.2441 12.6472 14.2441 11.3527 13.4457 10.5542C12.6472 9.7558 11.3527 9.7558 10.5543 10.5542C10.2459 10.8625 9.74608 10.8625 9.43777 10.5542C9.12946 10.2459 9.12947 9.74605 9.43778 9.43775Z" fill="#000"/>
<path fill-rule="evenodd" clip-rule="evenodd" d="M2.23123 2.23123C2.53954 1.92292 3.03941 1.92292 3.34772 2.23123L21.7688 20.6523C22.0771 20.9606 22.0771 21.4605 21.7688 21.7688C21.4605 22.0771 20.9606 22.0771 20.6523 21.7688L2.23123 3.34772C1.92292 3.03941 1.92292 2.53954 2.23123 2.23123Z" fill="#000"/>
</svg>
