<svg width="24" height="24" viewBox="0 0 24 24" fill="none" xmlns="http://www.w3.org/2000/svg">
<path fill-rule="evenodd" clip-rule="evenodd" d="M20.2895 15.7529C20.6819 15.7529 21 16.071 21 16.4635V19.0141C21 19.5407 20.7908 20.0458 20.4184 20.4183C20.046 20.7907 19.5409 20.9999 19.0142 20.9999H16.4636C16.0712 20.9999 15.7531 20.6818 15.7531 20.2894C15.7531 19.897 16.0712 19.5788 16.4636 19.5788H19.0142C19.164 19.5788 19.3076 19.5193 19.4135 19.4134C19.5195 19.3075 19.579 19.1639 19.579 19.0141V16.4635C19.579 16.071 19.8971 15.7529 20.2895 15.7529Z" fill="#333333"/>
<path fill-rule="evenodd" clip-rule="evenodd" d="M15.7531 3.71053C15.7531 3.31811 16.0712 3 16.4636 3H19.0142C19.5409 3 20.046 3.20922 20.4184 3.58164C20.7908 3.95405 21 4.45915 21 4.98583V7.53644C21 7.92885 20.6819 8.24696 20.2895 8.24696C19.8971 8.24696 19.579 7.92885 19.579 7.53644V4.98583C19.579 4.83604 19.5195 4.69239 19.4135 4.58647C19.3076 4.48056 19.164 4.42105 19.0142 4.42105H16.4636C16.0712 4.42105 15.7531 4.10294 15.7531 3.71053Z" fill="#333333"/>
<path fill-rule="evenodd" clip-rule="evenodd" d="M4.98583 4.42105C4.83604 4.42105 4.69239 4.48056 4.58647 4.58647C4.48056 4.69239 4.42105 4.83604 4.42105 4.98583V7.53644C4.42105 7.92885 4.10294 8.24696 3.71053 8.24696C3.31811 8.24696 3 7.92885 3 7.53644V4.98583C3 4.45916 3.20922 3.95405 3.58164 3.58164C3.95405 3.20922 4.45916 3 4.98583 3H7.53644C7.92885 3 8.24696 3.31811 8.24696 3.71053C8.24696 4.10294 7.92885 4.42105 7.53644 4.42105H4.98583Z" fill="#333333"/>
<path fill-rule="evenodd" clip-rule="evenodd" d="M3.71053 15.7529C4.10294 15.7529 4.42105 16.071 4.42105 16.4635V19.0141C4.42105 19.1639 4.48056 19.3075 4.58647 19.4134C4.69239 19.5193 4.83604 19.5788 4.98583 19.5788H7.53644C7.92885 19.5788 8.24696 19.897 8.24696 20.2894C8.24696 20.6818 7.92885 20.9999 7.53644 20.9999H4.98583C4.45915 20.9999 3.95405 20.7907 3.58164 20.4183C3.20922 20.0458 3 19.5407 3 19.0141V16.4635C3 16.071 3.31811 15.7529 3.71053 15.7529Z" fill="#333333"/>
<path fill-rule="evenodd" clip-rule="evenodd" d="M8.17415 6.82617C8.56656 6.82617 8.88468 7.14429 8.88468 7.5367V10.0873C8.88468 10.4797 8.56656 10.7978 8.17415 10.7978C7.78174 10.7978 7.46362 10.4797 7.46362 10.0873V7.5367C7.46362 7.14429 7.78174 6.82617 8.17415 6.82617Z" fill="#333333"/>
<path fill-rule="evenodd" clip-rule="evenodd" d="M15.826 6.82617C16.2184 6.82617 16.5365 7.14429 16.5365 7.5367V10.0873C16.5365 10.4797 16.2184 10.7978 15.826 10.7978C15.4336 10.7978 15.1155 10.4797 15.1155 10.0873V7.5367C15.1155 7.14429 15.4336 6.82617 15.826 6.82617Z" fill="#333333"/>
<path fill-rule="evenodd" clip-rule="evenodd" d="M11.9999 8.10156C12.3924 8.10156 12.7105 8.41968 12.7105 8.81209V13.2757C12.7105 13.6681 12.3924 13.9862 11.9999 13.9862H10.087C9.69458 13.9862 9.37646 13.6681 9.37646 13.2757C9.37646 12.8832 9.69458 12.5651 10.087 12.5651H11.2894V8.81209C11.2894 8.41968 11.6075 8.10156 11.9999 8.10156Z" fill="#333333"/>
<path fill-rule="evenodd" clip-rule="evenodd" d="M8.29656 15.3364C8.56682 15.0519 9.01655 15.0403 9.30107 15.3106C10.0294 16.0024 10.9955 16.3881 12 16.3881C13.0045 16.3881 13.9706 16.0024 14.6989 15.3106C14.9834 15.0403 15.4331 15.0519 15.7034 15.3364C15.9737 15.6209 15.9621 16.0707 15.6776 16.3409C14.6852 17.2836 13.3687 17.8092 12 17.8092C10.6312 17.8092 9.31477 17.2836 8.32238 16.3409C8.03787 16.0707 8.02631 15.6209 8.29656 15.3364Z" fill="#333333"/>
</svg>
