<svg width="39" height="24" viewBox="0 0 39 24" fill="none" xmlns="http://www.w3.org/2000/svg">
    <path d="M38.0311 0H0.703125V23.9282H38.0311V0Z" fill="#0E4C96"/>
    <path d="M30.9604 17.2892C30.9604 19.2808 29.3462 20.8957 27.3539 20.8957H7.77441V6.64019C7.77441 4.64812 9.38876 3.03325 11.3811 3.03325L30.9601 3.0332L30.9602 17.2892L30.9604 17.2892Z" fill="white"/>
    <path d="M24.5771 12.2772C25.1362 12.2893 25.6987 12.2525 26.2557 12.2964C26.8197 12.4016 26.9558 13.2555 26.4546 13.5353C26.1128 13.7196 25.7064 13.6038 25.3357 13.6364H24.5771L24.5771 12.2772ZM26.579 10.7389C26.7033 11.1774 26.2805 11.5712 25.858 11.5108H24.5771C24.5859 11.0972 24.5594 10.6484 24.59 10.2566C25.1033 10.271 25.6213 10.2271 26.1315 10.2795C26.3507 10.3346 26.5341 10.5148 26.579 10.7389ZM29.6623 4.23518C29.6862 5.07271 29.6657 5.95452 29.6726 6.80904C29.6709 10.2832 29.676 13.7573 29.6699 17.2317C29.6474 18.5337 28.4935 19.6649 27.2005 19.6909C25.9062 19.6962 24.6117 19.6917 23.3173 19.6931V14.4409C24.7277 14.4335 26.1389 14.4556 27.5486 14.4298C28.2027 14.3887 28.9189 13.9572 28.9494 13.2375C29.0265 12.5147 28.3449 12.0147 27.6979 11.9358C27.4491 11.9293 27.4565 11.8632 27.6979 11.8344C28.3148 11.7011 28.7995 11.0624 28.618 10.4227C28.4631 9.74996 27.7196 9.48958 27.101 9.49087C25.84 9.48225 24.5786 9.48962 23.3174 9.48718C23.3257 8.50665 23.3005 7.52507 23.3311 6.54526C23.431 5.26673 24.6139 4.2124 25.8889 4.23523L29.6623 4.23518Z" fill="url(#paint0_linear_2115_1572)"/>
    <path d="M9.06572 6.67836C9.09798 5.37843 10.2568 4.25629 11.5483 4.23734C12.8377 4.23337 14.1273 4.23677 15.4168 4.23562C15.4133 8.58505 15.4239 12.935 15.4115 17.2842C15.3618 18.5684 14.2156 19.6691 12.9383 19.6917C11.6464 19.6965 10.3543 19.6924 9.06233 19.6937V14.2644C10.3173 14.5608 11.6333 14.6871 12.9135 14.4903C13.6788 14.3672 14.5161 13.9915 14.7752 13.1976C14.9659 12.5184 14.8586 11.8037 14.8869 11.1067V9.48796H12.6713C12.6613 10.5585 12.6917 11.6309 12.6552 12.7003C12.5955 13.3576 11.9448 13.7752 11.3248 13.7529C10.556 13.761 9.03261 13.1959 9.03261 13.1959C9.02878 11.1898 9.05491 8.6778 9.06572 6.67879V6.67836Z" fill="url(#paint1_linear_2115_1572)"/>
    <path d="M16.2431 10.1406C16.1266 10.1653 16.2197 9.74333 16.1899 9.58325C16.1978 8.57109 16.1733 7.55783 16.2034 6.54638C16.3031 5.26244 17.4951 4.20543 18.7752 4.23549H22.5446C22.5411 8.58487 22.5517 12.9348 22.5393 17.284C22.4896 18.5682 21.3433 19.6689 20.066 19.6916C18.7741 19.6964 17.4819 19.6923 16.1898 19.6936V13.7451C17.0723 14.4691 18.2716 14.5818 19.371 14.5837C20.1997 14.5834 21.0237 14.4558 21.8284 14.2645V13.1747C20.9214 13.6268 19.8552 13.9139 18.8497 13.6542C18.1483 13.4795 17.6392 12.8018 17.6506 12.078C17.5693 11.3253 18.0107 10.5305 18.7504 10.3067C19.6687 10.0192 20.6698 10.2391 21.5306 10.6129C21.7151 10.7095 21.9022 10.8292 21.8284 10.521V9.66432C20.3887 9.32186 18.8565 9.19571 17.4099 9.56842C16.9912 9.68658 16.5833 9.8657 16.2431 10.1407V10.1406Z" fill="url(#paint2_linear_2115_1572)"/>
    <defs>
        <linearGradient id="paint0_linear_2115_1572" x1="23.2928" y1="11.9925" x2="29.6515" y2="11.9925" gradientUnits="userSpaceOnUse">
            <stop stop-color="#007B40"/>
            <stop offset="1" stop-color="#55B330"/>
        </linearGradient>
        <linearGradient id="paint1_linear_2115_1572" x1="9.07745" y1="11.9928" x2="15.431" y2="11.9928" gradientUnits="userSpaceOnUse">
            <stop stop-color="#1D2970"/>
            <stop offset="1" stop-color="#006DBA"/>
        </linearGradient>
        <linearGradient id="paint2_linear_2115_1572" x1="16.195" y1="12.1623" x2="22.5517" y2="12.1623" gradientUnits="userSpaceOnUse">
            <stop stop-color="#6E2B2F"/>
            <stop offset="1" stop-color="#E30138"/>
        </linearGradient>
    </defs>
</svg>
