<svg width="24" height="24" viewBox="0 0 24 24" fill="none" xmlns="http://www.w3.org/2000/svg">
<path fill-rule="evenodd" clip-rule="evenodd" d="M3 4C1.34315 4 0 5.34315 0 7V17C0 18.6569 1.34315 20 3 20H21C22.6569 20 24 18.6569 24 17V7C24 5.34315 22.6569 4 21 4H3ZM3 7C2.44772 7 2 7.44772 2 8C2 8.55228 2.44772 9 3 9H5.25C5.80228 9 6.25 8.55228 6.25 8C6.25 7.44772 5.80228 7 5.25 7H3ZM7.25 8C7.25 7.44772 7.69772 7 8.25 7H10.5C11.0523 7 11.5 7.44772 11.5 8C11.5 8.55228 11.0523 9 10.5 9H8.25C7.69772 9 7.25 8.55228 7.25 8ZM13.5 7C12.9477 7 12.5 7.44772 12.5 8C12.5 8.55228 12.9477 9 13.5 9H15.75C16.3023 9 16.75 8.55228 16.75 8C16.75 7.44772 16.3023 7 15.75 7H13.5ZM17.75 8C17.75 7.44772 18.1977 7 18.75 7H21C21.5523 7 22 7.44772 22 8C22 8.55228 21.5523 9 21 9H18.75C18.1977 9 17.75 8.55228 17.75 8ZM3 11C2.44772 11 2 11.4477 2 12C2 12.5523 2.44772 13 3 13H5.25C5.80228 13 6.25 12.5523 6.25 12C6.25 11.4477 5.80228 11 5.25 11H3ZM7.25 12C7.25 11.4477 7.69772 11 8.25 11H10.5C11.0523 11 11.5 11.4477 11.5 12C11.5 12.5523 11.0523 13 10.5 13H8.25C7.69772 13 7.25 12.5523 7.25 12ZM13.5 11C12.9477 11 12.5 11.4477 12.5 12C12.5 12.5523 12.9477 13 13.5 13H15.75C16.3023 13 16.75 12.5523 16.75 12C16.75 11.4477 16.3023 11 15.75 11H13.5ZM17.75 12C17.75 11.4477 18.1977 11 18.75 11H21C21.5523 11 22 11.4477 22 12C22 12.5523 21.5523 13 21 13H18.75C18.1977 13 17.75 12.5523 17.75 12ZM3 15C2.44772 15 2 15.4477 2 16C2 16.5523 2.44772 17 3 17H5.25C5.80228 17 6.25 16.5523 6.25 16C6.25 15.4477 5.80228 15 5.25 15H3ZM7 16C7 15.4477 7.44772 15 8 15H16C16.5523 15 17 15.4477 17 16C17 16.5523 16.5523 17 16 17H8C7.44772 17 7 16.5523 7 16ZM18.75 15C18.1977 15 17.75 15.4477 17.75 16C17.75 16.5523 18.1977 17 18.75 17H21C21.5523 17 22 16.5523 22 16C22 15.4477 21.5523 15 21 15H18.75Z" fill="#000"/>
</svg>
