<svg width="25" height="24" viewBox="0 0 25 24" fill="none" xmlns="http://www.w3.org/2000/svg">
<path fill-rule="evenodd" clip-rule="evenodd" d="M7.20697 10.6639C6.86039 10.6639 6.57944 10.9449 6.57944 11.2914V19.7935C6.57944 20.14 6.86039 20.421 7.20697 20.421H18.543C18.8896 20.421 19.1705 20.14 19.1705 19.7935V11.2914C19.1705 10.9449 18.8896 10.6639 18.543 10.6639H7.20697ZM5.00049 11.2914C5.00049 10.0728 5.98836 9.08496 7.20697 9.08496H18.543C19.7616 9.08496 20.7495 10.0728 20.7495 11.2914V19.7935C20.7495 21.0121 19.7616 22 18.543 22H7.20697C5.98836 22 5.00049 21.0121 5.00049 19.7935V11.2914Z" fill="#000"/>
<path fill-rule="evenodd" clip-rule="evenodd" d="M8.80982 3.68384C9.88796 2.6057 11.3502 2 12.875 2C14.3997 2 15.862 2.6057 16.9401 3.68384C18.0183 4.76199 18.624 6.22426 18.624 7.74899V9.8745C18.624 10.3105 18.2705 10.664 17.8345 10.664C17.3985 10.664 17.045 10.3105 17.045 9.8745V7.74899C17.045 6.64303 16.6057 5.58236 15.8236 4.80033C15.0416 4.01829 13.9809 3.57895 12.875 3.57895C11.769 3.57895 10.7083 4.01829 9.9263 4.80033C9.14427 5.58236 8.70493 6.64303 8.70493 7.74899V9.8745C8.70493 10.3105 8.35147 10.664 7.91545 10.664C7.47944 10.664 7.12598 10.3105 7.12598 9.8745V7.74899C7.12598 6.22426 7.73167 4.76199 8.80982 3.68384Z" fill="#000"/>
<path fill-rule="evenodd" clip-rule="evenodd" d="M12.8749 15.6235C12.9196 15.6235 12.9559 15.5873 12.9559 15.5425C12.9559 15.4978 12.9196 15.4616 12.8749 15.4616C12.8302 15.4616 12.794 15.4978 12.794 15.5425C12.794 15.5873 12.8302 15.6235 12.8749 15.6235ZM11.377 15.5425C11.377 14.7152 12.0476 14.0446 12.8749 14.0446C13.7022 14.0446 14.3729 14.7152 14.3729 15.5425C14.3729 16.3698 13.7022 17.0405 12.8749 17.0405C12.0476 17.0405 11.377 16.3698 11.377 15.5425Z" fill="#ff0"/>
</svg>
