<svg width="25" height="24" viewBox="0 0 25 24" fill="none" xmlns="http://www.w3.org/2000/svg">
<path fill-rule="evenodd" clip-rule="evenodd" d="M6.05409 9.95325C6.48631 9.95325 6.8367 10.3036 6.8367 10.7359V20.2174C6.8367 20.6497 6.48631 21.0001 6.05409 21.0001C5.62187 21.0001 5.27148 20.6497 5.27148 20.2174V10.7359C5.27148 10.3036 5.62187 9.95325 6.05409 9.95325Z" fill="#000"/>
<path fill-rule="evenodd" clip-rule="evenodd" d="M6.05409 3C6.48631 3 6.8367 3.35039 6.8367 3.78261V6.94314C6.8367 7.37536 6.48631 7.72575 6.05409 7.72575C5.62187 7.72575 5.27148 7.37536 5.27148 6.94314V3.78261C5.27148 3.35039 5.62187 3 6.05409 3Z" fill="#000"/>
<path fill-rule="evenodd" clip-rule="evenodd" d="M18.6962 3C19.1284 3 19.4788 3.35039 19.4788 3.78261V6.94314C19.4788 7.37536 19.1284 7.72575 18.6962 7.72575C18.264 7.72575 17.9136 7.37536 17.9136 6.94314V3.78261C17.9136 3.35039 18.264 3 18.6962 3Z" fill="#000"/>
<path fill-rule="evenodd" clip-rule="evenodd" d="M18.6962 9.95325C19.1284 9.95325 19.4788 10.3036 19.4788 10.7359V20.2174C19.4788 20.6497 19.1284 21.0001 18.6962 21.0001C18.264 21.0001 17.9136 20.6497 17.9136 20.2174V10.7359C17.9136 10.3036 18.264 9.95325 18.6962 9.95325Z" fill="#000"/>
<path fill-rule="evenodd" clip-rule="evenodd" d="M12.3749 3C12.8071 3 13.1575 3.35039 13.1575 3.78261V10.1037C13.1575 10.5359 12.8071 10.8863 12.3749 10.8863C11.9427 10.8863 11.5923 10.5359 11.5923 10.1037V3.78261C11.5923 3.35039 11.9427 3 12.3749 3Z" fill="#000"/>
<path fill-rule="evenodd" clip-rule="evenodd" d="M12.3749 13.1136C12.8071 13.1136 13.1575 13.464 13.1575 13.8963V20.2173C13.1575 20.6495 12.8071 20.9999 12.3749 20.9999C11.9427 20.9999 11.5923 20.6495 11.5923 20.2173V13.8963C11.5923 13.464 11.9427 13.1136 12.3749 13.1136Z" fill="#000"/>
<path fill-rule="evenodd" clip-rule="evenodd" d="M6.05393 7.72574C5.43884 7.72574 4.94022 8.22436 4.94022 8.83945C4.94022 9.45453 5.43884 9.95316 6.05393 9.95316C6.66901 9.95316 7.16764 9.45453 7.16764 8.83945C7.16764 8.22436 6.66901 7.72574 6.05393 7.72574ZM3.375 8.83945C3.375 7.35992 4.5744 6.16052 6.05393 6.16052C7.53346 6.16052 8.73285 7.35992 8.73285 8.83945C8.73285 10.319 7.53346 11.5184 6.05393 11.5184C4.5744 11.5184 3.375 10.319 3.375 8.83945Z" fill="#ff0"/>
<path fill-rule="evenodd" clip-rule="evenodd" d="M18.696 7.72574C18.0809 7.72574 17.5823 8.22436 17.5823 8.83945C17.5823 9.45453 18.0809 9.95316 18.696 9.95316C19.3111 9.95316 19.8097 9.45453 19.8097 8.83945C19.8097 8.22436 19.3111 7.72574 18.696 7.72574ZM16.0171 8.83945C16.0171 7.35992 17.2165 6.16052 18.696 6.16052C20.1755 6.16052 21.3749 7.35992 21.3749 8.83945C21.3749 10.319 20.1755 11.5184 18.696 11.5184C17.2165 11.5184 16.0171 10.319 16.0171 8.83945Z" fill="#ff0"/>
<path fill-rule="evenodd" clip-rule="evenodd" d="M12.3752 10.8863C11.7601 10.8863 11.2615 11.3849 11.2615 12C11.2615 12.6151 11.7601 13.1137 12.3752 13.1137C12.9903 13.1137 13.4889 12.6151 13.4889 12C13.4889 11.3849 12.9903 10.8863 12.3752 10.8863ZM9.69629 12C9.69629 10.5204 10.8957 9.32104 12.3752 9.32104C13.8547 9.32104 15.0541 10.5204 15.0541 12C15.0541 13.4795 13.8547 14.6789 12.3752 14.6789C10.8957 14.6789 9.69629 13.4795 9.69629 12Z" fill="#ff0"/>
</svg>
