<svg width="34" height="24" viewBox="0 0 34 24" fill="none" xmlns="http://www.w3.org/2000/svg">
    <rect width="33.3913" height="24" rx="5" fill="#000"/>
    <path d="M20.1373 5.71045H13.2358V18.2896H20.1373V5.71045Z" fill="#FF5F00"/>
    <path d="M13.6741 12C13.673 10.7885 13.9436 9.59268 14.4655 8.503C14.9875 7.41331 15.747 6.45835 16.6866 5.7104C15.523 4.78277 14.1256 4.20588 12.6541 4.04569C11.1826 3.8855 9.69635 4.14845 8.36522 4.8045C7.03409 5.46056 5.91179 6.48325 5.12661 7.75566C4.34143 9.02808 3.92505 10.4989 3.92505 12C3.92505 13.5011 4.34143 14.9719 5.12661 16.2443C5.91179 17.5167 7.03409 18.5394 8.36522 19.1955C9.69635 19.8515 11.1826 20.1145 12.6541 19.9543C14.1256 19.7941 15.523 19.2172 16.6866 18.2896C15.747 17.5416 14.9875 16.5867 14.4656 15.497C13.9436 14.4073 13.673 13.2115 13.6741 12V12Z" fill="#EB001B"/>
    <path d="M29.4476 12C29.4477 13.5011 29.0314 14.9719 28.2462 16.2443C27.4611 17.5167 26.3388 18.5394 25.0077 19.1954C23.6766 19.8515 22.1904 20.1145 20.7189 19.9543C19.2474 19.7941 17.85 19.2172 16.6865 18.2896C17.6253 17.5409 18.3842 16.5857 18.906 15.4962C19.4279 14.4067 19.699 13.2113 19.699 12C19.699 10.7887 19.4279 9.59325 18.906 8.50374C18.3842 7.41422 17.6253 6.45911 16.6865 5.7104C17.85 4.78276 19.2474 4.20588 20.7189 4.04569C22.1904 3.8855 23.6766 4.14846 25.0077 4.80452C26.3388 5.46059 27.4611 6.48327 28.2462 7.75569C29.0314 9.02811 29.4477 10.4989 29.4476 12V12Z" fill="#F79E1B"/>
    <path d="M28.6952 16.9572V16.6997H28.7976V16.6472H28.5369V16.6997H28.6393V16.9572H28.6952ZM29.2014 16.9572V16.6467H29.1215L29.0296 16.8603L28.9376 16.6467H28.8577V16.9572H28.9141V16.723L29.0003 16.925H29.0588L29.145 16.7225V16.9572H29.2014Z" fill="#F79E1B"/>
</svg>
