<svg width="40" height="40" viewBox="0 0 40 40" fill="none" xmlns="http://www.w3.org/2000/svg">
<g clip-path="url(#clip0_6297_80490)">
<path d="M20 0.00390625C8.73828 0.00390625 0.00390625 8.25859 0.00390625 19.4C0.00390625 25.2305 2.39531 30.2695 6.28281 33.7492C6.61094 34.0375 6.81094 34.4531 6.81875 34.8852L6.93047 38.4445C6.9625 39.5805 8.13828 40.3164 9.17813 39.8602L13.1453 38.1086C13.4812 37.9563 13.857 37.9328 14.2172 38.0289C16.0406 38.5328 17.9844 38.7969 20.0078 38.7969C31.2695 38.7969 40.0039 30.5422 40.0039 19.4008C40.0039 8.25937 31.2617 0.00390625 20 0.00390625Z" fill="url(#paint0_radial_6297_80490)"/>
<path d="M7.99439 25.0709L13.8655 15.753C14.8014 14.2655 16.8006 13.9053 18.2006 14.953L22.8717 18.4561C23.3038 18.7764 23.8874 18.7764 24.3194 18.4483L30.6303 13.6569C31.4702 13.017 32.5741 14.0248 32.0061 14.9209L26.135 24.2389C25.1991 25.7264 23.1999 26.0866 21.7921 25.0389L17.121 21.5358C16.6889 21.2155 16.0975 21.2155 15.6733 21.5436L9.36236 26.335C8.53033 26.9741 7.42643 25.967 7.99439 25.0709Z" fill="white"/>
</g>
<defs>
<radialGradient id="paint0_radial_6297_80490" cx="0" cy="0" r="1" gradientUnits="userSpaceOnUse" gradientTransform="translate(7.70313 39.7789) scale(43.575 43.5749)">
<stop stop-color="#0099FF"/>
<stop offset="0.6098" stop-color="#A033FF"/>
<stop offset="0.9348" stop-color="#FF5280"/>
<stop offset="1" stop-color="#FF7061"/>
</radialGradient>
<clipPath id="clip0_6297_80490">
<rect width="40" height="40" fill="white"/>
</clipPath>
</defs>
</svg>
