<svg width="13" height="12" viewBox="0 0 13 12" fill="none" xmlns="http://www.w3.org/2000/svg">
<path fill-rule="evenodd" clip-rule="evenodd" d="M12.3087 5.09248C12.5641 5.3483 12.5637 5.76274 12.3079 6.01815L7.25601 11.0618C7.15968 11.1619 7.04441 11.2419 6.91686 11.2971C6.78527 11.3541 6.64339 11.3835 6.5 11.3835C6.35661 11.3835 6.21473 11.3541 6.08314 11.2971C5.95559 11.2419 5.84031 11.1619 5.74399 11.0618L0.69209 6.01815C0.436266 5.76274 0.435928 5.3483 0.691336 5.09248C0.946744 4.83666 1.36118 4.83632 1.617 5.09173L6.5 9.96678L11.383 5.09173C11.6388 4.83632 12.0533 4.83666 12.3087 5.09248Z" fill="white"/>
<path fill-rule="evenodd" clip-rule="evenodd" d="M12.3083 0.807923C12.5639 1.06354 12.5639 1.47797 12.3083 1.73359L7.24604 6.79584C7.04682 6.99111 6.77896 7.10047 6.5 7.10047C6.22104 7.10047 5.9532 6.99109 5.75399 6.79582L5.74931 6.79123L0.691712 1.73359C0.436097 1.47797 0.436097 1.06354 0.691712 0.807923C0.947329 0.552307 1.36176 0.552307 1.61738 0.807923L6.5 5.69054L11.3826 0.807923C11.6382 0.552307 12.0527 0.552307 12.3083 0.807923Z" fill="white"/>
</svg>
