<svg width="16" height="16" viewBox="0 0 16 16" fill="none" xmlns="http://www.w3.org/2000/svg">
<path fill-rule="evenodd" clip-rule="evenodd" d="M6.85222 1.68421C3.998 1.68421 1.68421 3.998 1.68421 6.85222C1.68421 9.70643 3.998 12.0202 6.85222 12.0202C9.70643 12.0202 12.0202 9.70643 12.0202 6.85222C12.0202 3.998 9.70643 1.68421 6.85222 1.68421ZM0.5 6.85222C0.5 3.34398 3.34398 0.5 6.85222 0.5C10.3604 0.5 13.2044 3.34398 13.2044 6.85222C13.2044 10.3604 10.3604 13.2044 6.85222 13.2044C3.34398 13.2044 0.5 10.3604 0.5 6.85222Z" fill="#9DA4AE"/>
<path fill-rule="evenodd" clip-rule="evenodd" d="M10.504 10.504C10.7352 10.2728 11.1101 10.2728 11.3414 10.504L15.3267 14.4893C15.5579 14.7205 15.5579 15.0954 15.3267 15.3267C15.0954 15.5579 14.7205 15.5579 14.4893 15.3267L10.504 11.3414C10.2728 11.1101 10.2728 10.7352 10.504 10.504Z" fill="#9DA4AE"/>
</svg>
