<svg width="18" height="20" viewBox="0 0 18 20" fill="none" xmlns="http://www.w3.org/2000/svg">
<mask id="mask0_16237_14664" style="mask-type:alpha" maskUnits="userSpaceOnUse" x="0" y="0" width="18" height="20">
<path fill-rule="evenodd" clip-rule="evenodd" d="M17.465 0.833008H0.665039V19.1663H17.465V0.833008ZM12.2307 6.70208C12.5431 7.02752 12.5431 7.55516 12.2307 7.8806L10.1964 9.99967L12.2307 12.1188C12.5431 12.4442 12.5431 12.9718 12.2307 13.2973C11.9183 13.6227 11.4118 13.6227 11.0994 13.2973L9.06504 11.1782L7.03073 13.2973C6.7183 13.6227 6.21177 13.6227 5.89935 13.2973C5.58693 12.9718 5.58693 12.4442 5.89935 12.1188L7.93368 9.99967L5.89935 7.8806C5.58693 7.55516 5.58693 7.02752 5.89935 6.70208C6.21177 6.37665 6.7183 6.37665 7.03073 6.70208L9.06504 8.82117L11.0994 6.70208C11.4118 6.37665 11.9183 6.37665 12.2307 6.70208Z" fill="#D9D9D9"/>
</mask>
<g mask="url(#mask0_16237_14664)">
<path d="M9.20736 17.9167C13.4645 17.9167 16.9157 14.4655 16.9157 10.2083C16.9157 5.95114 13.4645 2.5 9.20736 2.5C4.95016 2.5 1.49902 5.95114 1.49902 10.2083C1.49902 14.4655 4.95016 17.9167 9.20736 17.9167Z" fill="#6C737F" stroke="#6C737F" stroke-width="1.25" stroke-miterlimit="10" stroke-linecap="round"/>
</g>
</svg>
