<svg width="18" height="19" viewBox="0 0 18 19" fill="none" xmlns="http://www.w3.org/2000/svg">
<rect x="0.5" y="1.17676" width="17" height="17" rx="8.5" fill="#DA2128"/>
<rect x="0.5" y="1.17676" width="17" height="17" rx="8.5" stroke="white"/>
<path d="M8.85 13.7768C8.34333 13.7768 7.91667 13.7001 7.57 13.5468C7.22333 13.3934 6.94333 13.1968 6.73 12.9568C6.52333 12.7168 6.37333 12.4601 6.28 12.1868C6.18667 11.9134 6.14 11.6601 6.14 11.4268H7.42C7.42 11.6268 7.47 11.8234 7.57 12.0168C7.67667 12.2034 7.83667 12.3568 8.05 12.4768C8.26333 12.5901 8.52667 12.6468 8.84 12.6468C9.22667 12.6468 9.55 12.5468 9.81 12.3468C10.0767 12.1401 10.21 11.8568 10.21 11.4968C10.21 11.1768 10.0967 10.9168 9.87 10.7168C9.65 10.5168 9.34333 10.4168 8.95 10.4168H7.95V9.36676H8.96C9.29333 9.36676 9.56667 9.27342 9.78 9.08676C9.99333 8.90009 10.1 8.66009 10.1 8.36676C10.1 8.04676 9.97667 7.79009 9.73 7.59676C9.49 7.39676 9.19333 7.29676 8.84 7.29676C8.55333 7.29676 8.31333 7.36009 8.12 7.48676C7.92667 7.60676 7.78 7.76342 7.68 7.95676C7.58 8.15009 7.53 8.35009 7.53 8.55676H6.28C6.28 8.31676 6.32333 8.06009 6.41 7.78676C6.50333 7.51342 6.65 7.25676 6.85 7.01676C7.05667 6.77009 7.32333 6.57009 7.65 6.41676C7.98333 6.25676 8.38667 6.17676 8.86 6.17676C9.3 6.17676 9.71333 6.26009 10.1 6.42676C10.4933 6.58676 10.81 6.82342 11.05 7.13676C11.2967 7.44342 11.42 7.81009 11.42 8.23676C11.42 8.52342 11.3633 8.77676 11.25 8.99676C11.1433 9.21676 11.0033 9.39676 10.83 9.53676C10.6633 9.67676 10.4867 9.78009 10.3 9.84676V9.90676C10.6467 10.0268 10.9433 10.2234 11.19 10.4968C11.4367 10.7701 11.56 11.1268 11.56 11.5668C11.56 12.0334 11.4333 12.4334 11.18 12.7668C10.9333 13.0934 10.6033 13.3434 10.19 13.5168C9.77667 13.6901 9.33 13.7768 8.85 13.7768Z" fill="white"/>
</svg>
