<svg width="18" height="19" viewBox="0 0 18 19" fill="none" xmlns="http://www.w3.org/2000/svg">
<rect x="0.5" y="1.17676" width="17" height="17" rx="8.5" fill="#DA2128"/>
<rect x="0.5" y="1.17676" width="17" height="17" rx="8.5" stroke="white"/>
<path d="M6.16 13.6768V12.7368L7.55 11.5068C8.05667 11.0734 8.49333 10.7001 8.86 10.3868C9.22667 10.0668 9.51 9.76676 9.71 9.48676C9.91 9.20676 10.01 8.90009 10.01 8.56676C10.01 8.31342 9.94667 8.09676 9.82 7.91676C9.7 7.73676 9.54333 7.60009 9.35 7.50676C9.15667 7.41342 8.95667 7.36676 8.75 7.36676C8.46333 7.36676 8.23 7.42342 8.05 7.53676C7.87667 7.65009 7.74333 7.78676 7.65 7.94676C7.56333 8.10676 7.50333 8.26342 7.47 8.41676C7.43667 8.56342 7.42 8.67342 7.42 8.74676H6.12C6.12 8.60009 6.14333 8.42009 6.19 8.20676C6.24333 7.98676 6.33 7.76009 6.45 7.52676C6.57 7.29342 6.73 7.07342 6.93 6.86676C7.13 6.66009 7.38333 6.49342 7.69 6.36676C7.99667 6.24009 8.36 6.17676 8.78 6.17676C9.24667 6.17676 9.67333 6.27009 10.06 6.45676C10.4533 6.64342 10.7667 6.91009 11 7.25676C11.24 7.60342 11.36 8.02009 11.36 8.50676C11.36 8.95342 11.2467 9.36009 11.02 9.72676C10.8 10.0934 10.4967 10.4534 10.11 10.8068C9.72333 11.1534 9.28333 11.5268 8.79 11.9268L8.17 12.4868H11.49V13.6768H6.16Z" fill="white"/>
</svg>
