<svg width="24" height="24" viewBox="0 0 24 24" xmlns="http://www.w3.org/2000/svg">
<path fill-rule="evenodd" clip-rule="evenodd" d="M11.988 3.42935C11.3434 3.41779 10.703 3.53353 10.1032 3.76993C9.50352 4.00632 8.95634 4.35874 8.49305 4.80697C8.02976 5.25521 7.65946 5.79045 7.40339 6.38204C7.148 6.97204 7.01122 7.60651 7.00083 8.24928V12.0008C7.00083 12.3953 6.68103 12.7151 6.28655 12.7151C5.89206 12.7151 5.57227 12.3953 5.57227 12.0008V8.23291C5.58484 7.40044 5.76164 6.57862 6.09238 5.81456C6.42311 5.05049 6.90136 4.3592 7.49972 3.78028C8.09809 3.20137 8.8048 2.74621 9.57937 2.44089C10.35 2.13714 11.1727 1.98763 12.0008 2.0008C12.8289 1.98763 13.6516 2.13714 14.4222 2.44089C15.1968 2.74621 15.9035 3.20137 16.5018 3.78028C17.1002 4.3592 17.5785 5.05049 17.9092 5.81456C18.2399 6.57862 18.4166 7.40044 18.4292 8.23292L18.4294 8.24371L18.4293 12.0008C18.4293 12.3953 18.1095 12.7151 17.715 12.7151C17.3205 12.7151 17.0007 12.3953 17.0007 12.0008V8.24929C16.9903 7.60651 16.8536 6.97204 16.5982 6.38204C16.3421 5.79045 15.9718 5.25521 15.5085 4.80697C15.0452 4.35874 14.498 4.00632 13.8983 3.76993C13.2986 3.53353 12.6581 3.41779 12.0136 3.42935L12.0008 2.71518L11.988 3.42935Z"/>
<path fill-rule="evenodd" clip-rule="evenodd" d="M4.14284 10.5721C3.9534 10.5721 3.77172 10.6474 3.63777 10.7813C3.50381 10.9153 3.42856 11.097 3.42856 11.2864V14.1435C3.42856 14.333 3.50381 14.5146 3.63777 14.6486C3.77172 14.7825 3.9534 14.8578 4.14284 14.8578H5.5714V10.5721H4.14284ZM4.14284 9.14355H5.5714C5.95028 9.14355 6.31364 9.29406 6.58154 9.56197C6.84945 9.82988 6.99996 10.1932 6.99996 10.5721V14.8578C6.99996 15.2367 6.84945 15.6 6.58154 15.8679C6.31363 16.1358 5.95027 16.2864 5.5714 16.2864H4.14284C3.57452 16.2864 3.02948 16.0606 2.62762 15.6587C2.22576 15.2569 2 14.7118 2 14.1435V11.2864C2 10.7181 2.22576 10.173 2.62762 9.77118C3.02948 9.36932 3.57452 9.14355 4.14284 9.14355Z"/>
<path fill-rule="evenodd" clip-rule="evenodd" d="M19.8572 14.8571C20.0466 14.8571 20.2283 14.7818 20.3622 14.6479C20.4962 14.5139 20.5714 14.3322 20.5714 14.1428V11.2857C20.5714 11.0962 20.4962 10.9146 20.3622 10.7806C20.2283 10.6467 20.0466 10.5714 19.8572 10.5714H18.4286V14.8571H19.8572ZM19.8572 16.2856H18.4286C18.0497 16.2856 17.6864 16.1351 17.4185 15.8672C17.1505 15.5993 17 15.236 17 14.8571V10.5714C17 10.1925 17.1505 9.82917 17.4185 9.56126C17.6864 9.29335 18.0497 9.14285 18.4286 9.14285H19.8572C20.4255 9.14285 20.9705 9.36861 21.3724 9.77047C21.7742 10.1723 22 10.7174 22 11.2857V14.1428C22 14.7111 21.7742 15.2562 21.3724 15.658C20.9705 16.0599 20.4255 16.2856 19.8572 16.2856Z"/>
<path fill-rule="evenodd" clip-rule="evenodd" d="M17.714 12.7144C18.1085 12.7144 18.4283 13.0341 18.4283 13.4286V16.6429C18.4283 17.5901 18.052 18.4985 17.3822 19.1683C16.7125 19.838 15.8041 20.2143 14.8569 20.2143C14.4624 20.2143 14.1426 19.8945 14.1426 19.5C14.1426 19.1055 14.4624 18.7857 14.8569 18.7857C15.4252 18.7857 15.9702 18.56 16.3721 18.1581C16.7739 17.7562 16.9997 17.2112 16.9997 16.6429V13.4286C16.9997 13.0341 17.3195 12.7144 17.714 12.7144Z"/>
<path fill-rule="evenodd" clip-rule="evenodd" d="M10.9277 18.4286C10.6436 18.4286 10.371 18.5414 10.1701 18.7424C9.96917 18.9433 9.85629 19.2158 9.85629 19.5C9.85629 19.7841 9.96917 20.0567 10.1701 20.2576C10.371 20.4585 10.6436 20.5714 10.9277 20.5714H13.0706C13.3547 20.5714 13.6272 20.4585 13.8282 20.2576C14.0291 20.0567 14.142 19.7841 14.142 19.5C14.142 19.2158 14.0291 18.9433 13.8282 18.7424C13.6272 18.5414 13.3547 18.4286 13.0706 18.4286H10.9277ZM9.15996 17.7322C9.6288 17.2634 10.2647 17 10.9277 17H13.0706C13.7336 17 14.3695 17.2634 14.8383 17.7322C15.3071 18.2011 15.5705 18.8369 15.5705 19.5C15.5705 20.163 15.3071 20.7989 14.8383 21.2677C14.3695 21.7366 13.7336 22 13.0706 22H10.9277C10.2647 22 9.6288 21.7366 9.15996 21.2677C8.69112 20.7989 8.42773 20.163 8.42773 19.5C8.42773 18.8369 8.69112 18.2011 9.15996 17.7322Z"/>
</svg>
