<svg width="24" height="24" viewBox="0 0 24 24" fill="none" xmlns="http://www.w3.org/2000/svg">
<g clip-path="url(#clip0_14944_6230)">
<mask id="mask0_14944_6230" style="mask-type:luminance" maskUnits="userSpaceOnUse" x="0" y="0" width="24" height="24">
<path d="M24 0H0V24H24V0Z" fill="white"/>
</mask>
<g mask="url(#mask0_14944_6230)">
<path d="M2.75 5.75C2.75 5.19771 3.19772 4.75 3.75 4.75H20.25C20.8023 4.75 21.25 5.19772 21.25 5.75V18.25C21.25 18.8023 20.8023 19.25 20.25 19.25H3.75C3.19772 19.25 2.75 18.8023 2.75 18.25V5.75Z" stroke="#333333" stroke-width="1.5" stroke-linejoin="round"/>
<path d="M15.75 13.25H18.25" stroke="#333333" stroke-width="1.5" stroke-linecap="round" stroke-linejoin="round"/>
<path d="M8.25 13.25L5.75 10.75" stroke="#333333" stroke-width="1.5" stroke-linecap="round" stroke-linejoin="round"/>
<path d="M5.75 13.25L8.25 10.75" stroke="#333333" stroke-width="1.5" stroke-linecap="round" stroke-linejoin="round"/>
<path d="M13.25 13.25L10.75 10.75" stroke="#333333" stroke-width="1.5" stroke-linecap="round" stroke-linejoin="round"/>
<path d="M10.75 13.25L13.25 10.75" stroke="#333333" stroke-width="1.5" stroke-linecap="round" stroke-linejoin="round"/>
</g>
</g>
<defs>
<clipPath id="clip0_14944_6230">
<rect width="24" height="24" fill="white"/>
</clipPath>
</defs>
</svg>
