<svg width="24" height="24" viewBox="0 0 24 24" fill="none" xmlns="http://www.w3.org/2000/svg">
<path fill-rule="evenodd" clip-rule="evenodd" d="M11.9999 14.8594C11.6054 14.8594 11.2856 14.5396 11.2856 14.1451L11.2856 2.71652C11.2856 2.32203 11.6054 2.00223 11.9999 2.00223C12.3944 2.00223 12.7142 2.32203 12.7142 2.71652L12.7142 14.1451C12.7142 14.5396 12.3944 14.8594 11.9999 14.8594Z" fill="#ff0"/>
<path fill-rule="evenodd" clip-rule="evenodd" d="M8.63768 10.7829C8.91662 10.5039 9.36888 10.5039 9.64783 10.7829L11.9999 13.1349L14.352 10.7829C14.6309 10.5039 15.0832 10.5039 15.3621 10.7829C15.6411 11.0618 15.6411 11.5141 15.3621 11.793L12.505 14.6502C12.226 14.9291 11.7738 14.9291 11.4948 14.6502L8.63768 11.793C8.35873 11.5141 8.35873 11.0618 8.63768 10.7829Z" fill="#ff0"/>
<path fill-rule="evenodd" clip-rule="evenodd" d="M3.97483 8.98706C3.32361 10.7228 3.25267 12.6228 3.77266 14.4023C4.29264 16.1817 5.37553 17.7446 6.8589 18.8565C8.34226 19.9684 10.1461 20.5695 12 20.5695C13.8539 20.5695 15.6577 19.9684 17.1411 18.8565C18.6245 17.7446 19.7074 16.1817 20.2273 14.4023C20.7473 12.6228 20.6764 10.7228 20.0252 8.98706C19.3739 7.25135 18.1775 5.77356 16.6154 4.77533C16.283 4.56292 16.1857 4.12124 16.3981 3.78883C16.6105 3.45641 17.0522 3.35913 17.3846 3.57155C19.2071 4.73615 20.6029 6.46023 21.3627 8.48522C22.1225 10.5102 22.2052 12.7269 21.5986 14.803C20.9919 16.879 19.7285 18.7023 17.998 19.9996C16.2674 21.2968 14.1628 21.998 12 21.998C9.83717 21.998 7.73264 21.2968 6.00204 19.9996C4.27145 18.7023 3.00809 16.879 2.40143 14.803C1.79478 12.7269 1.87754 10.5102 2.6373 8.48522C3.39707 6.46023 4.79288 4.73615 6.61538 3.57155C6.9478 3.35913 7.38948 3.45641 7.60189 3.78883C7.81431 4.12124 7.71703 4.56292 7.38461 4.77533C5.82247 5.77356 4.62606 7.25135 3.97483 8.98706Z" fill="#000"/>
</svg>
