<svg width="24" height="24" viewBox="0 0 24 24" fill="none" xmlns="http://www.w3.org/2000/svg">
<path fill-rule="evenodd" clip-rule="evenodd" d="M16.8508 4.60776C17.176 4.3174 17.6751 4.34569 17.9655 4.67096C19.2737 6.13643 19.9967 8.03218 19.9966 9.99661C19.9966 9.9966 19.9966 9.99663 19.9966 9.99661V14.0037C19.9966 15.0539 19.7897 16.0937 19.3879 17.0639C18.986 18.0341 18.397 18.9156 17.6545 19.6581C16.9119 20.4007 16.0304 20.9897 15.0602 21.3916C14.09 21.7934 13.0502 22.0003 12 22.0003C11.564 22.0003 11.2106 21.6468 11.2106 21.2108C11.2106 20.7748 11.564 20.4213 12 20.4213C12.8428 20.4213 13.6773 20.2553 14.456 19.9328C15.2346 19.6103 15.942 19.1376 16.538 18.5417C17.1339 17.9457 17.6066 17.2383 17.9291 16.4596C18.2516 15.681 18.4176 14.8465 18.4176 14.0037V9.99661C18.4177 8.42005 17.8375 6.89857 16.7876 5.72246C16.4972 5.39719 16.5255 4.89812 16.8508 4.60776Z" fill="#333333"/>
<path fill-rule="evenodd" clip-rule="evenodd" d="M4.79289 10.8066C5.22891 10.8066 5.58237 11.1601 5.58237 11.5961V14.0033C5.58194 15.2666 5.9544 16.5023 6.65307 17.5549C7.35175 18.6074 8.34555 19.4304 9.50993 19.9206C9.91179 20.0897 10.1004 20.5526 9.93124 20.9545C9.76207 21.3564 9.29916 21.545 8.8973 21.3758C7.44644 20.765 6.20813 19.7396 5.33755 18.4281C4.46703 17.1166 4.00294 15.5774 4.00342 14.0033C4.00342 14.0032 4.00342 14.0034 4.00342 14.0033V11.5961C4.00342 11.1601 4.35688 10.8066 4.79289 10.8066Z" fill="#333333"/>
<path fill-rule="evenodd" clip-rule="evenodd" d="M9.93039 2.27247C11.9789 1.7236 14.1615 2.01096 15.9981 3.07132C16.3758 3.28932 16.5051 3.77215 16.2871 4.14976C16.0691 4.52736 15.5863 4.65674 15.2087 4.43873C13.7347 3.58775 11.983 3.35713 10.339 3.79762C8.69501 4.23811 7.29331 5.31362 6.44226 6.78757L6.44178 6.7884C6.09214 7.39225 5.84545 8.05009 5.71182 8.73495C5.62832 9.16289 5.21372 9.44212 4.78577 9.35862C4.35783 9.27512 4.0786 8.86051 4.1621 8.43257C4.32925 7.57589 4.63781 6.75301 5.07512 5.99764C6.13558 4.16126 7.88204 2.82129 9.93039 2.27247Z" fill="#333333"/>
<path fill-rule="evenodd" clip-rule="evenodd" d="M12.6647 7.76613C12.2538 7.66453 11.8253 7.65645 11.4108 7.74249C10.9839 7.83112 10.566 7.55689 10.4773 7.12998C10.3887 6.70306 10.6629 6.28514 11.0898 6.19651C11.7357 6.06243 12.4034 6.07502 13.0437 6.23335C13.684 6.39168 14.2806 6.69171 14.7896 7.11132C15.2985 7.53093 15.7067 8.05941 15.9842 8.65781C16.2609 9.25459 16.4006 9.90573 16.3929 10.5635V12.8793C16.3929 13.3153 16.0394 13.6688 15.6034 13.6688C15.1674 13.6688 14.8139 13.3153 14.8139 12.8793V10.5484C14.8194 10.1252 14.7298 9.70606 14.5518 9.32204C14.3737 8.93802 14.1117 8.59886 13.7851 8.32957C13.4585 8.06029 13.0756 7.86774 12.6647 7.76613Z" fill="#333333"/>
<path fill-rule="evenodd" clip-rule="evenodd" d="M8.99233 8.38977C9.39388 8.5597 9.58164 9.02296 9.41171 9.4245C9.26055 9.78172 9.18369 10.166 9.18584 10.5539L9.18586 10.5582L9.18585 13.4537C9.1767 14.0269 9.34275 14.5893 9.66197 15.0655C9.98119 15.5417 10.4382 15.909 10.972 16.1184C11.5057 16.3277 12.0906 16.369 12.6485 16.2368C13.2063 16.1046 13.7105 15.8051 14.0935 15.3785C14.3847 15.054 14.8839 15.0271 15.2083 15.3184C15.5328 15.6097 15.5597 16.1088 15.2684 16.4333C14.6705 17.0993 13.8835 17.5667 13.0126 17.7732C12.1418 17.9796 11.2287 17.9151 10.3955 17.5883C9.56227 17.2615 8.84876 16.688 8.35043 15.9446C7.85333 15.2031 7.594 14.3277 7.6069 13.4351V10.5603C7.60388 9.95887 7.7232 9.36307 7.95761 8.80915C8.12753 8.40761 8.59079 8.21985 8.99233 8.38977Z" fill="#333333"/>
<path fill-rule="evenodd" clip-rule="evenodd" d="M12 9.92773C12.4361 9.92773 12.7895 10.2812 12.7895 10.7172V13.1244C12.7895 13.5604 12.4361 13.9138 12 13.9138C11.564 13.9138 11.2106 13.5604 11.2106 13.1244V10.7172C11.2106 10.2812 11.564 9.92773 12 9.92773Z" fill="#333333"/>
</svg>
