<svg width="39" height="24" viewBox="0 0 39 24" fill="none" xmlns="http://www.w3.org/2000/svg">
    <g clip-path="url(#clip0_2115_1274)">
        <path d="M7.53746 0H17.1042C18.4397 0 19.2703 1.0885 18.9588 2.42836L14.5047 21.5512C14.1904 22.8864 12.8533 23.9758 11.517 23.9758H1.9511C0.617531 23.9758 -0.214931 22.8864 0.0966011 21.5512L4.55249 2.42836C4.86402 1.0885 6.20039 0 7.53746 0Z" fill="#E21836"/>
        <path d="M16.3083 0H27.3099C28.6451 0 28.043 1.0885 27.7289 2.42836L23.2756 21.5512C22.9631 22.8864 23.0606 23.9758 21.7226 23.9758H10.7211C9.38305 23.9758 8.55502 22.8864 8.86935 21.5512L13.3224 2.42836C13.6386 1.0885 14.9722 0 16.3083 0Z" fill="#00447C"/>
        <path d="M26.8733 0H36.4401C37.7774 0 38.608 1.0885 38.2939 2.42836L33.8406 21.5512C33.5263 22.8864 32.1883 23.9758 30.8512 23.9758H21.2888C19.9508 23.9758 19.1209 22.8864 19.4343 21.5512L23.8884 2.42836C24.1999 1.0885 25.5353 0 26.8733 0Z" fill="#007B84"/>
        <path d="M10.0362 6.12849C9.05238 6.13852 8.76183 6.12849 8.66903 6.10657C8.63335 6.2761 7.96948 9.33848 7.96761 9.34105C7.82467 9.96062 7.72067 10.4023 7.3674 10.6874C7.16686 10.8532 6.93275 10.9332 6.66132 10.9332C6.22504 10.9332 5.97087 10.7166 5.9282 10.3057L5.92004 10.1647C5.92004 10.1647 6.05295 9.33475 6.05295 9.33009C6.05295 9.33009 6.7497 6.53936 6.87445 6.17046C6.88098 6.14948 6.88285 6.13852 6.88448 6.12849C5.52829 6.14038 5.28788 6.12849 5.27132 6.10657C5.26223 6.13665 5.22865 6.30967 5.22865 6.30967L4.51721 9.45508L4.45611 9.72184L4.33789 10.5944C4.33789 10.8532 4.38872 11.0645 4.48993 11.2431C4.81405 11.8095 5.73862 11.8944 6.26165 11.8944C6.93555 11.8944 7.5677 11.7512 7.99489 11.4898C8.73642 11.0517 8.93042 10.3668 9.10345 9.75821L9.18366 9.44598C9.18366 9.44598 9.9014 6.54752 10.0234 6.17046C10.028 6.14948 10.0299 6.13852 10.0362 6.12849ZM12.4782 8.46671C12.3052 8.46671 11.989 8.50868 11.705 8.64789C11.6019 8.70082 11.5045 8.76192 11.4016 8.82278L11.4944 8.48769L11.4436 8.43126C10.8413 8.55322 10.7065 8.56954 10.1501 8.64789L10.1035 8.6789C10.0389 9.21452 9.98154 9.61723 9.74206 10.6701C9.65089 11.0581 9.55622 11.4498 9.46131 11.8369L9.48696 11.8861C10.0571 11.856 10.2301 11.856 10.7256 11.8642L10.7657 11.8206C10.8287 11.4981 10.8369 11.4225 10.9763 10.7694C11.0418 10.4597 11.1785 9.77929 11.2459 9.53702C11.3697 9.47965 11.4919 9.42322 11.6085 9.42322C11.8862 9.42322 11.8524 9.6655 11.8416 9.76204C11.8297 9.9241 11.7285 10.4534 11.6248 10.9079L11.5555 11.2012C11.5073 11.4179 11.4543 11.6284 11.4061 11.8432L11.427 11.8861C11.989 11.856 12.1604 11.856 12.6403 11.8642L12.6967 11.8206C12.7835 11.3169 12.8089 11.1821 12.9628 10.4488L13.0402 10.1118C13.1906 9.45237 13.2662 9.11799 13.1524 8.84563C13.032 8.54039 12.7434 8.46671 12.4782 8.46671ZM15.2063 9.15714C14.9076 9.2145 14.7171 9.25274 14.5277 9.27746C14.34 9.30754 14.157 9.33482 13.8683 9.37493L13.8454 9.39568L13.8244 9.41224C13.7944 9.62723 13.7734 9.81308 13.7335 10.0316C13.6997 10.2575 13.6477 10.5143 13.563 10.8832C13.4975 11.1655 13.4637 11.2639 13.4264 11.3633C13.39 11.4626 13.3499 11.5592 13.2762 11.8369L13.2935 11.8625L13.3079 11.8861C13.5777 11.8733 13.7543 11.8642 13.9357 11.8625C14.1169 11.856 14.3046 11.8625 14.5951 11.8642L14.6205 11.8434L14.6478 11.8206C14.6898 11.5701 14.6961 11.5027 14.7217 11.3805C14.7471 11.2495 14.791 11.0681 14.8985 10.5835C14.9493 10.3559 15.006 10.129 15.0587 9.89679C15.1135 9.66548 15.1708 9.43766 15.2254 9.21007L15.2172 9.18255L15.2063 9.15714ZM15.2126 8.22623C14.9412 8.06603 14.4648 8.11686 14.1442 8.33815C13.8245 8.55501 13.7881 8.86281 14.0586 9.02511C14.3254 9.18088 14.8036 9.13447 15.1215 8.91132C15.4405 8.68979 15.4803 8.38479 15.2126 8.22623ZM16.8541 11.9363C17.4033 11.9363 17.9662 11.7849 18.3899 11.3358C18.7159 10.9716 18.8653 10.4297 18.9171 10.2065C19.0857 9.46687 18.9544 9.12153 18.7896 8.9112C18.5391 8.59057 18.0965 8.48774 17.6374 8.48774C17.3613 8.48774 16.7037 8.51502 16.19 8.98862C15.8211 9.33023 15.6507 9.7938 15.5478 10.2382C15.4441 10.6911 15.3247 11.5063 16.0744 11.8097C16.3057 11.909 16.6391 11.9363 16.8541 11.9363ZM16.8112 10.2721C16.9378 9.71195 17.0873 9.24185 17.4688 9.24185C17.7677 9.24185 17.7894 9.59163 17.6565 10.1536C17.6327 10.2784 17.5236 10.7422 17.376 10.9397C17.2729 11.0854 17.151 11.1738 17.0162 11.1738C16.9761 11.1738 16.7375 11.1738 16.7338 10.8196C16.7319 10.6447 16.7676 10.4661 16.8112 10.2721ZM20.2899 11.8642L20.3328 11.8206C20.3936 11.4982 20.4036 11.4224 20.5384 10.7695C20.6058 10.4598 20.7453 9.77936 20.8108 9.53709C20.9348 9.47949 21.0549 9.42306 21.1752 9.42306C21.4511 9.42306 21.4175 9.66534 21.4066 9.76187C21.3965 9.92417 21.2953 10.4533 21.1897 10.9077L21.1242 11.2011C21.074 11.4179 21.0195 11.6283 20.9712 11.8433L20.9922 11.8862C21.556 11.8561 21.7209 11.8561 22.2036 11.8642L22.2619 11.8206C22.3465 11.3167 22.3694 11.182 22.5279 10.4488L22.6035 10.1116C22.7546 9.45221 22.8311 9.11806 22.7191 8.8457C22.5953 8.54046 22.3048 8.46678 22.0434 8.46678C21.8701 8.46678 21.5523 8.50852 21.2699 8.64796C21.1689 8.70089 21.0677 8.76175 20.9684 8.82285L21.0549 8.48776L21.0085 8.4311C20.4064 8.55329 20.2689 8.56961 19.7132 8.64796L19.6705 8.67897C19.6031 9.21459 19.5483 9.61707 19.3089 10.6701C19.2177 11.0581 19.123 11.4499 19.0283 11.837L19.0537 11.8862C19.6248 11.8561 19.7953 11.8561 20.2899 11.8642ZM24.4325 11.8861C24.4679 11.713 24.6785 10.6875 24.6803 10.6875C24.6803 10.6875 24.8596 9.93501 24.8706 9.90773C24.8706 9.90773 24.927 9.82938 24.9835 9.79837H25.0665C25.8497 9.79837 26.7342 9.79837 27.4275 9.2884C27.8992 8.93862 28.2217 8.42212 28.3656 7.7944C28.4029 7.64049 28.4304 7.45745 28.4304 7.2744C28.4304 7.03399 28.3821 6.79614 28.2427 6.61029C27.8892 6.11571 27.1852 6.10662 26.3725 6.10289C26.37 6.10289 25.9719 6.10662 25.9719 6.10662C24.9317 6.11944 24.5145 6.11571 24.3432 6.09473C24.3287 6.17051 24.3014 6.30529 24.3014 6.30529C24.3014 6.30529 23.9288 8.03224 23.9288 8.03504C23.9288 8.03504 23.0371 11.7067 22.9951 11.8798C23.9034 11.8688 24.2758 11.8688 24.4325 11.8861ZM25.1229 8.8183C25.1229 8.8183 25.5191 7.09485 25.5172 7.10138L25.53 7.013L25.5356 6.94561L25.694 6.96193C25.694 6.96193 26.511 7.03212 26.5302 7.03399C26.8527 7.15874 26.9856 7.4803 26.8928 7.90003C26.8081 8.28361 26.5593 8.6061 26.2396 8.76187C25.9764 8.89385 25.6539 8.90481 25.3216 8.90481H25.1066L25.1229 8.8183ZM27.5896 10.304C27.4849 10.7503 27.3646 11.5655 28.1105 11.856C28.3484 11.9572 28.5615 11.9873 28.7781 11.9764C29.0069 11.964 29.2189 11.8493 29.4152 11.6842C29.3975 11.752 29.3798 11.8199 29.362 11.888L29.3958 11.9316C29.9324 11.909 30.0989 11.909 30.6802 11.9134L30.7329 11.8733C30.8178 11.3743 30.8978 10.8897 31.1184 9.93508C31.2259 9.47781 31.3331 9.02497 31.4434 8.56956L31.4262 8.51943C30.826 8.63066 30.6655 8.65444 30.0882 8.73629L30.0443 8.77197C30.0385 8.81837 30.0324 8.86291 30.0268 8.90745C29.9371 8.76241 29.8069 8.63859 29.6062 8.5614C29.3494 8.46043 28.7464 8.59055 28.2281 9.06251C27.8638 9.39946 27.6889 9.86116 27.5896 10.304ZM28.8502 10.3313C28.9787 9.78118 29.1263 9.31575 29.5087 9.31575C29.7505 9.31575 29.8778 9.53891 29.852 9.91946C29.8314 10.0144 29.8093 10.1144 29.7829 10.2275C29.7447 10.391 29.7032 10.553 29.6628 10.7153C29.6218 10.8263 29.574 10.931 29.5215 11.0007C29.4231 11.1402 29.189 11.2267 29.0542 11.2267C29.016 11.2267 28.78 11.2267 28.7718 10.8788C28.77 10.7055 28.8057 10.5271 28.8502 10.3313ZM35.4331 8.51498L35.3867 8.46204C34.7927 8.58237 34.6852 8.60149 34.1396 8.67517L34.0995 8.71528C34.0976 8.72181 34.096 8.73184 34.0932 8.74093L34.0913 8.73184C33.6851 9.669 33.697 9.46683 33.3664 10.2046C33.3645 10.171 33.3645 10.1501 33.3626 10.1144L33.2799 8.51498L33.2279 8.46204C32.6057 8.58237 32.591 8.60149 32.0165 8.67517L31.9717 8.71528C31.9654 8.7344 31.9654 8.75539 31.9617 8.77824L31.9654 8.7864C32.0372 9.15343 32.02 9.07158 32.092 9.65081C32.1256 9.93506 32.1704 10.2209 32.2039 10.5017C32.2606 10.9716 32.2923 11.2029 32.3616 11.9199C31.9736 12.5602 31.8817 12.8025 31.5081 13.3645L31.5107 13.3701L31.2477 13.7861C31.2176 13.8299 31.1903 13.86 31.1521 13.8728C31.1101 13.8936 31.0555 13.8973 30.9797 13.8973H30.834L30.6174 14.6178L31.3605 14.6307C31.7968 14.6288 32.071 14.4248 32.2186 14.1505L32.6859 13.3498H32.6785L32.7277 13.2934C33.042 12.6167 35.4331 8.51498 35.4331 8.51498ZM27.5896 17.9781H27.2743L28.4412 14.1187H28.8283L28.9511 13.7211L28.963 14.1632C28.9486 14.4365 29.1636 14.6788 29.7283 14.6387H30.3815L30.6063 13.8956H30.3605C30.2192 13.8956 30.1537 13.8599 30.1618 13.7834L30.1499 13.3336H28.9404V13.3359C28.5494 13.3441 27.3816 13.3735 27.1451 13.4364C26.859 13.5101 26.5575 13.727 26.5575 13.727L26.676 13.3289H25.5446L25.3088 14.1187L24.1264 18.0371H23.8969L23.6719 18.7749H25.9254L25.8498 19.0209H26.9602L27.0339 18.7749H27.3454L27.5896 17.9781ZM26.665 14.9029C26.4838 14.953 26.1467 15.1051 26.1467 15.1051L26.4465 14.1187H27.3454L27.1286 14.8374C27.1286 14.8374 26.8509 14.8537 26.665 14.9029ZM26.6823 16.312C26.6823 16.312 26.3999 16.3475 26.214 16.3894C26.031 16.4449 25.6878 16.6198 25.6878 16.6198L25.9974 15.5934H26.901L26.6823 16.312ZM26.1786 17.9872H25.2769L25.5383 17.1209H26.4372L26.1786 17.9872ZM28.3501 15.5934H29.6499L29.4631 16.1982H28.1461L27.9484 16.8595H29.1008L28.2282 18.0882C28.1671 18.1784 28.1123 18.2104 28.0514 18.2358C27.9903 18.2668 27.9101 18.3032 27.8173 18.3032H27.4976L27.278 19.0274H28.1142C28.5488 19.0274 28.8055 18.8297 28.9951 18.5702L29.5935 17.7512L29.722 18.5828C29.7492 18.7385 29.8612 18.8297 29.9369 18.8651C30.0207 18.9071 30.1072 18.9792 30.2294 18.9899C30.3604 18.9955 30.4551 18.9999 30.518 18.9999H30.9289L31.1756 18.1894H31.0135C30.9205 18.1894 30.7603 18.1738 30.733 18.1446C30.7057 18.1092 30.7058 18.0546 30.6911 17.9716L30.5607 17.1382H30.027L30.2611 16.8595H31.5755L31.7777 16.1982H30.5607L30.7503 15.5934H31.9635L32.1886 14.8474H28.5714L28.3501 15.5934ZM17.3723 18.1556L17.6757 17.1464H18.9225L19.1503 16.3958H17.9023L18.0928 15.7746H19.3124L19.5384 15.0478H16.4869L16.2656 15.7746H16.9589L16.774 16.3958H16.0788L15.8485 17.1592H16.5415L16.1371 18.4945C16.0826 18.6712 16.1628 18.7386 16.2136 18.8207C16.2656 18.9007 16.3183 18.9536 16.4368 18.9837C16.559 19.011 16.6427 19.0273 16.7565 19.0273H18.1621L18.4125 18.1957L17.7895 18.2813C17.6692 18.2813 17.3359 18.2669 17.3723 18.1556ZM17.5153 13.3244L17.1994 13.8954C17.1317 14.0202 17.0709 14.0976 17.0161 14.1333C16.9678 14.1634 16.8722 14.176 16.7337 14.176H16.5688L16.3485 14.9065H16.896C17.1593 14.9065 17.3614 14.81 17.458 14.7617C17.5617 14.7062 17.589 14.7379 17.6692 14.6605L17.8541 14.5003H19.5638L19.7907 13.7397H18.5392L18.7577 13.3244H17.5153ZM20.0394 18.1703C20.0102 18.1283 20.0312 18.0544 20.0758 17.9005L20.5431 16.3538H22.2054C22.4477 16.3503 22.6226 16.3475 22.7364 16.3394C22.8586 16.3265 22.9915 16.2829 23.1363 16.2046C23.2858 16.1225 23.3622 16.036 23.4268 15.9366C23.4989 15.8375 23.6145 15.6207 23.7139 15.2863L24.3013 13.329L22.5762 13.339C22.5762 13.339 22.045 13.4173 21.8111 13.5039C21.5751 13.6004 21.2379 13.8699 21.2379 13.8699L21.3937 13.3334H20.3281L18.8362 18.2813C18.7832 18.4734 18.7478 18.6129 18.7396 18.6966C18.7368 18.7868 18.8534 18.8761 18.929 18.9435C19.0183 19.0109 19.1503 19 19.2769 19.0109C19.41 19.021 19.5994 19.0272 19.8608 19.0272H20.6797L20.9311 18.1785L20.198 18.2477C20.1196 18.2477 20.0629 18.2057 20.0394 18.1703ZM20.8446 15.3092H22.5906L22.4796 15.6571C22.464 15.6652 22.4267 15.6398 22.249 15.6608H20.7371L20.8446 15.3092ZM21.1943 14.1423H22.9551L22.8285 14.5613C22.8285 14.5613 21.9986 14.5532 21.8657 14.5777C21.2809 14.6789 20.9392 14.9913 20.9392 14.9913L21.1943 14.1423ZM22.5187 16.8221C22.5043 16.8741 22.4814 16.9058 22.4495 16.9296C22.414 16.9525 22.3567 16.9606 22.2711 16.9606H22.0223L22.037 16.5369H21.0021L20.9601 18.6083C20.9585 18.7578 20.973 18.8443 21.0823 18.9135C21.1917 19 21.5286 19.011 21.9822 19.011H22.6307L22.8648 18.2357L22.3002 18.2667L22.1125 18.2776C22.0869 18.2667 22.0624 18.2567 22.0351 18.2294C22.0113 18.2058 21.9712 18.2203 21.9777 18.0708L21.9822 17.5398L22.5742 17.5154C22.8939 17.5154 23.0306 17.4114 23.1472 17.3123C23.2584 17.2174 23.2948 17.1082 23.3367 16.9606L23.4361 16.4905H22.6225L22.5187 16.8221Z" fill="#FEFEFE"/>
    </g>
    <defs>
        <clipPath id="clip0_2115_1274">
            <rect width="38.4" height="24" fill="white" transform="translate(0.03125)"/>
        </clipPath>
    </defs>
</svg>
