<svg width="38" height="24" viewBox="0 0 38 24" fill="none" xmlns="http://www.w3.org/2000/svg">
    <path d="M37.7196 0H0.391602V23.9282H37.7196V0Z" fill="#0E4595"/>
    <path d="M14.4239 16.6893L16.0204 7.32092H18.574L16.9763 16.6893H14.4239ZM26.2018 7.52287C25.696 7.33307 24.9031 7.12939 23.9132 7.12939C21.39 7.12939 19.6126 8.39998 19.5975 10.2211C19.5832 11.5673 20.8664 12.3182 21.8349 12.7664C22.8289 13.2255 23.163 13.5184 23.1583 13.9285C23.1521 14.5564 22.3646 14.8433 21.6307 14.8433C20.6086 14.8433 20.0656 14.7013 19.227 14.3515L18.8979 14.2027L18.5395 16.2999C19.1359 16.5614 20.2389 16.7879 21.384 16.7996C24.0683 16.7996 25.8107 15.5436 25.8306 13.5989C25.8402 12.5332 25.1599 11.7222 23.6866 11.0535C22.7941 10.6202 22.2475 10.3309 22.2533 9.89215C22.2533 9.50274 22.7159 9.08629 23.7156 9.08629C24.5507 9.07337 25.1556 9.25546 25.6269 9.44522L25.8557 9.55337L26.2018 7.52287ZM32.773 7.32077H30.7998C30.1885 7.32077 29.731 7.48765 29.4626 8.09767L25.6703 16.6831H28.3517C28.3517 16.6831 28.7901 15.5287 28.8892 15.2753C29.1824 15.2753 31.7872 15.2793 32.1596 15.2793C32.236 15.6073 32.4702 16.6831 32.4702 16.6831H34.8398L32.773 7.32049V7.32077ZM29.6423 13.3703C29.8534 12.8305 30.6597 10.7515 30.6597 10.7515C30.6446 10.7764 30.8693 10.2091 30.9983 9.85731L31.1708 10.6651C31.1708 10.6651 31.6598 12.9014 31.762 13.3703H29.6423ZM12.2561 7.32077L9.75604 13.7096L9.48962 12.4113C9.02422 10.9146 7.57417 9.29318 5.95312 8.48139L8.23904 16.6744L10.9408 16.6713L14.961 7.32068H12.2561" fill="white"/>
    <path d="M7.42267 7.3205H3.30505L3.27246 7.51542C6.47588 8.29089 8.59553 10.1649 9.47561 12.4164L8.58022 8.11124C8.42564 7.51806 7.97737 7.34103 7.42276 7.32031" fill="#F2AE14"/>
</svg>
