<svg width="62" height="36" viewBox="0 0 62 36" fill="none" xmlns="http://www.w3.org/2000/svg">
<path d="M22.9748 35.9471C15.7471 35.3152 9.3637 32.6344 5.21176 28.4825C2.84204 26.1177 1.40539 23.5505 0.758657 20.5242C0.462442 19.1468 0.462442 16.8659 0.763594 15.4737C1.66705 11.2675 4.38235 7.58946 8.66266 4.78035C18.4229 -1.61789 33.3769 -1.58827 43.0483 4.8544C44.3319 5.70849 45.1613 6.38979 46.3264 7.53515C47.7927 8.98167 48.8245 10.4232 49.9106 12.5362C49.9501 12.6152 50.1525 12.714 50.3549 12.7535C51.0412 12.8966 51.9545 13.4298 52.6901 14.1161C53.2628 14.6492 53.7022 15.2318 54.7932 16.8807C55.8941 18.5445 60.8706 26.2263 61.1717 26.7299C61.2902 26.9274 61.0582 27.2384 60.7965 27.2384C60.6089 27.2384 60.4805 27.115 60.2041 26.6805C60.0115 26.3744 58.7427 24.4046 57.3851 22.3015C52.5815 14.8665 52.3248 14.5209 50.9869 13.8495L50.2858 13.4989H48.2222C46.1585 13.4989 46.1585 13.4989 46.1092 13.7162C45.8376 14.906 45.7833 15.1972 45.8426 15.2516C45.8821 15.2861 47.0521 15.9526 48.4443 16.7326L50.977 18.1495L50.819 18.4803C50.7301 18.663 50.6314 18.8111 50.5968 18.8111C50.5623 18.8111 48.4295 17.6311 45.8574 16.1846C43.2853 14.743 41.0291 13.5187 40.8464 13.4693C40.1158 13.2669 38.9901 14.0766 38.9901 14.8072C38.9901 15.5478 39.2074 15.7601 43.7296 19.4627C46.5486 21.7732 48.1629 23.1605 48.4098 23.4863C48.859 24.0837 49.3132 24.9625 49.7279 26.0437C50.4635 27.9493 51.6583 29.0107 53.6182 29.5044L54.265 29.6674L54.2107 30.0179C54.181 30.2104 54.1415 30.3881 54.1169 30.4128C54.0329 30.5066 52.7345 30.0919 51.9841 29.7315C50.8091 29.1687 49.9995 28.364 49.2046 26.9619C49.1997 26.952 48.7356 27.11 48.1827 27.3124C47.1953 27.6728 47.1459 27.7025 46.2129 28.6158C42.2288 32.5061 36.5118 34.9893 29.6149 35.8336C28.4844 35.9915 24.1695 36.0557 22.9748 35.9471ZM29.842 34.7524C33.0066 34.3327 35.4652 33.7057 38.0324 32.6542C40.7279 31.5483 43.2754 29.9636 45.0527 28.2751L45.7537 27.6087L43.9863 26.7644C42.1004 25.861 41.9128 25.7129 41.6709 24.9082C41.5178 24.3997 41.6906 23.8566 42.1745 23.3382L42.5497 22.9285L41.7301 22.3064C41.0834 21.8127 40.881 21.6004 40.7526 21.2746C40.5502 20.7463 40.6243 20.1737 40.9501 19.7145L41.1969 19.364L38.61 18.9098C37.1882 18.658 35.8601 18.4062 35.6627 18.347C35.2726 18.2334 34.8826 17.7891 34.779 17.3596C34.7246 17.1276 35.9934 10.9367 36.2748 10.053C36.4032 9.65803 36.9413 9.17914 37.3511 9.10509C37.7806 9.0261 45.4032 10.364 45.7833 10.5862C46.3856 10.9367 46.5732 11.4995 46.3856 12.3684L46.3067 12.7288H46.7263C46.9583 12.7288 47.5063 12.6992 47.9457 12.6646L48.7455 12.6004L48.3505 11.8648C47.1607 9.64815 44.9934 7.40679 42.3226 5.6295C41.0735 4.8001 38.4125 3.48688 36.808 2.9142C34.5272 2.0996 31.7674 1.48743 29.1163 1.21096C27.6599 1.05791 23.8536 1.06285 22.4416 1.2159C19.0598 1.58123 15.989 2.34645 13.3034 3.49182C7.08285 6.14294 2.90128 10.5368 1.82997 15.5428C1.54856 16.8511 1.52882 19.1418 1.78554 20.3316C2.35328 22.963 3.58751 25.2389 5.59684 27.3569C9.69448 31.6717 15.9545 34.3278 23.4586 34.9252C24.4657 35.0042 28.8201 34.8857 29.842 34.7524ZM28.4745 30.0426C28.0894 29.929 27.6945 29.4699 27.6105 29.0305C27.5562 28.7441 27.6204 28.5467 28.0302 27.7518C29.689 24.5428 30.4098 21.5906 30.4098 18.0113C30.4098 14.5505 29.7729 11.855 28.1882 8.62621C27.8475 7.93504 27.5711 7.2883 27.5711 7.1945C27.5711 6.84892 27.8574 6.35029 28.1684 6.15775C28.593 5.89116 29.3088 5.94053 29.6544 6.26143C29.7877 6.38485 30.1284 6.94766 30.4147 7.51047C31.5502 9.73702 32.3253 12.1808 32.7104 14.7233C32.9474 16.2982 32.9967 19.2801 32.8042 20.7217C32.4537 23.3777 31.7526 25.7524 30.627 28.0727C29.9457 29.4748 29.5211 30.0524 29.1657 30.0524C29.0966 30.0524 28.9781 30.0722 28.909 30.0919C28.8398 30.1117 28.6424 30.0919 28.4745 30.0426ZM23.8585 27.6284C23.2661 27.4556 22.8365 26.7249 23.0093 26.1819C23.0488 26.0486 23.3302 25.4414 23.6314 24.8292C24.9002 22.2373 25.4284 19.4627 25.1717 16.7376C24.9594 14.4962 24.5595 13.0842 23.5475 11.0206C22.8711 9.63334 22.8365 9.42105 23.2315 8.85824C23.6067 8.32506 24.5447 8.24113 25.0335 8.69039C25.3741 9.00142 26.4356 11.2181 26.8453 12.4721C28.198 16.6191 27.9907 21.0771 26.2578 25.1501C25.3643 27.2384 24.7373 27.8851 23.8585 27.6284ZM19.0993 25.1797C18.734 25.0168 18.418 24.6268 18.3291 24.2367C18.2748 23.9998 18.3686 23.7332 18.8031 22.8544C20.4027 19.6158 20.4175 16.5006 18.8574 13.336C18.1712 11.9488 18.1564 11.6723 18.734 11.1243C19.0203 10.8528 19.1437 10.8083 19.5436 10.8083C20.22 10.8083 20.5705 11.149 21.1728 12.3881C22.1009 14.2938 22.4811 15.9477 22.4762 18.0656C22.4712 20.2428 22.1158 21.7387 21.1284 23.748C20.5606 24.8983 20.2792 25.2044 19.7115 25.2784C19.5387 25.2932 19.2622 25.2537 19.0993 25.1797ZM14.6561 22.8988C14.3648 22.7804 14.034 22.3854 13.9353 22.0398C13.8267 21.6547 13.9155 21.3486 14.35 20.6328C14.9128 19.7096 15.0412 19.2159 15.0412 18.0113C15.0412 16.8067 14.9128 16.3081 14.35 15.3898C14.1575 15.0788 13.9698 14.7036 13.9254 14.5554C13.7428 13.9482 14.2513 13.2027 14.9325 13.0744C15.5102 12.9658 15.9051 13.2225 16.4383 14.0519C17.9737 16.4512 17.9737 19.6503 16.4383 22.0299C15.8952 22.8643 15.2929 23.1605 14.6561 22.8988ZM47.7482 26.6213C48.2617 26.4386 48.706 26.2658 48.7356 26.2362C48.7652 26.2066 48.6665 25.8807 48.5135 25.5055C48.2074 24.7403 48.2567 24.7601 47.1607 24.9674C45.9808 25.1945 45.2946 24.9921 44.0011 24.0393C43.6506 23.7776 43.2853 23.5653 43.1964 23.5653C43.1026 23.5653 42.9051 23.6986 42.7471 23.8665C42.4164 24.2219 42.367 24.7749 42.6336 25.1056C42.8706 25.392 46.1141 26.9372 46.4992 26.9471C46.672 26.952 47.2299 26.8039 47.7482 26.6213ZM47.2348 24.138C47.7137 24.0393 47.768 24.0096 47.6841 23.8517C47.5903 23.6789 43.1026 19.9564 42.7126 19.7244C42.3917 19.5368 42.13 19.5812 41.8634 19.8676C41.0834 20.7019 41.1772 20.8796 43.1964 22.4249C45.6352 24.296 45.8969 24.4046 47.2348 24.138ZM41.2118 18.4951C41.2118 18.4704 40.7033 18.031 40.0812 17.5225C38.5458 16.2587 38.215 15.7847 38.215 14.8467C38.215 14.0667 38.7384 13.3113 39.5776 12.8769C39.9923 12.6597 40.7378 12.5955 41.1574 12.7337C41.4537 12.8325 42.7965 13.5582 44.6528 14.6246L45.0428 14.8517L45.3637 13.3212C45.6945 11.7562 45.6994 11.3415 45.3933 11.2477C45.2995 11.2181 43.5074 10.8923 41.4142 10.522C37.6917 9.86538 37.282 9.82588 37.1092 10.1073C37.0154 10.2554 35.5985 16.8215 35.5985 17.098C35.5985 17.2362 35.6676 17.409 35.7565 17.483C35.8404 17.5571 37.0499 17.8188 38.4421 18.0656C41.1278 18.5494 41.2118 18.5642 41.2118 18.4951Z" fill="#333333"/>
</svg>
