<svg width="50" height="33" viewBox="0 0 50 33" fill="none" xmlns="http://www.w3.org/2000/svg">
<g clip-path="url(#clip0_13997_206453)">
<path d="M45.3455 0.927734H4.9543C4.78608 0.927734 4.61756 0.927734 4.44964 0.928715C4.30769 0.929726 4.16607 0.931302 4.02445 0.935166C3.71559 0.943519 3.40408 0.961742 3.09909 1.01656C2.78921 1.07233 2.50086 1.16329 2.21956 1.30651C1.94301 1.44715 1.68983 1.6311 1.47042 1.8506C1.25091 2.0701 1.06696 2.32287 0.926355 2.59972C0.783102 2.88102 0.692079 3.16946 0.636698 3.47957C0.581587 3.78466 0.563243 4.0961 0.554919 4.40464C0.551114 4.54625 0.549482 4.68787 0.548558 4.82946C0.547577 4.99775 0.547904 5.16591 0.547904 5.33449V28.0213C0.547904 28.1899 0.547577 28.3578 0.548558 28.5264C0.549482 28.668 0.551114 28.8096 0.554919 28.9512C0.563243 29.2595 0.581587 29.5709 0.636698 29.8759C0.692079 30.1861 0.783102 30.4744 0.926355 30.7558C1.06696 31.0326 1.25091 31.2857 1.47042 31.5049C1.68983 31.7248 1.94301 31.9087 2.21956 32.049C2.50086 32.1926 2.78921 32.2836 3.09909 32.3393C3.40408 32.3938 3.71559 32.4123 4.02445 32.4207C4.16607 32.4239 4.30769 32.4258 4.44964 32.4264C4.61756 32.4277 4.78608 32.4277 4.9543 32.4277H45.3455C45.5135 32.4277 45.682 32.4277 45.8499 32.4264C45.9915 32.4258 46.1331 32.4239 46.2754 32.4207C46.5836 32.4123 46.895 32.3938 47.2008 32.3393C47.5102 32.2836 47.7986 32.1926 48.08 32.049C48.3568 31.9087 48.6093 31.7248 48.8291 31.5049C49.0483 31.2857 49.2322 31.0326 49.3732 30.7558C49.5168 30.4744 49.6077 30.1861 49.6628 29.8759C49.7179 29.5709 49.7358 29.2595 49.7442 28.9512C49.7481 28.8096 49.75 28.668 49.7506 28.5264C49.7519 28.3578 49.7519 28.1899 49.7519 28.0213V5.33449C49.7519 5.16591 49.7519 4.99775 49.7506 4.82946C49.75 4.68787 49.7481 4.54625 49.7442 4.40464C49.7358 4.0961 49.7179 3.78466 49.6628 3.47957C49.6077 3.16946 49.5168 2.88102 49.3732 2.59972C49.2322 2.32287 49.0483 2.0701 48.8291 1.8506C48.6093 1.6311 48.3568 1.44715 48.08 1.30651C47.7986 1.16329 47.5102 1.07233 47.2008 1.01656C46.895 0.961742 46.5836 0.943519 46.2754 0.935166C46.1331 0.931302 45.9915 0.929726 45.8499 0.928715C45.682 0.927734 45.5135 0.927734 45.3455 0.927734Z" fill="#333333"/>
<path d="M45.3483 1.97656L45.8452 1.97751C45.9798 1.97847 46.1144 1.97992 46.2497 1.98361C46.4852 1.98997 46.7606 2.00272 47.0173 2.04874C47.2405 2.08893 47.4276 2.15005 47.6072 2.24149C47.7845 2.33159 47.947 2.44966 48.0889 2.59131C48.2312 2.73391 48.3495 2.89664 48.4408 3.07592C48.5317 3.25413 48.5924 3.4404 48.6324 3.66519C48.6783 3.91912 48.691 4.19528 48.6974 4.43217C48.701 4.56588 48.7028 4.69959 48.7035 4.83649C48.7048 5.00203 48.7047 5.16749 48.7047 5.33337V28.0202C48.7047 28.1861 48.7048 28.3512 48.7035 28.5203C48.7028 28.654 48.701 28.7877 48.6974 28.9217C48.691 29.1582 48.6783 29.4342 48.6318 29.6911C48.5924 29.9128 48.5317 30.0991 48.4403 30.2782C48.3493 30.4571 48.2312 30.6196 48.0894 30.7613C47.9468 30.904 47.7849 31.0217 47.6054 31.1127C47.4272 31.2037 47.2403 31.2647 47.0194 31.3045C46.7575 31.3512 46.4705 31.364 46.2544 31.3699C46.1184 31.3729 45.9831 31.3748 45.8445 31.3754C45.6793 31.3767 45.5135 31.3767 45.3483 31.3767H4.95707C4.95487 31.3767 4.95273 31.3767 4.9505 31.3767C4.78718 31.3767 4.62353 31.3767 4.45724 31.3754C4.32166 31.3748 4.18637 31.373 4.05557 31.37C3.83452 31.364 3.54739 31.3512 3.28761 31.3048C3.06475 31.2647 2.87792 31.2037 2.6973 31.1115C2.51956 31.0213 2.35776 30.9037 2.21504 30.7608C2.07342 30.6194 1.95573 30.4574 1.86474 30.2783C1.77366 30.0993 1.71272 29.9125 1.67265 29.6881C1.62633 29.4317 1.61361 29.1568 1.60725 28.9219C1.60362 28.7873 1.6021 28.6529 1.60124 28.5192L1.60059 28.1244L1.60062 28.0202V5.33337L1.60059 5.22915L1.60121 4.83524C1.6021 4.70072 1.60362 4.56624 1.60725 4.43185C1.61361 4.19668 1.62633 3.92164 1.67303 3.66308C1.71275 3.44075 1.77366 3.25389 1.86521 3.07407C1.95549 2.89634 2.07339 2.73409 2.21575 2.59176C2.35755 2.4499 2.51989 2.33198 2.69875 2.24101C2.87744 2.15002 3.06463 2.08893 3.28749 2.04883C3.54427 2.00269 3.81987 1.98997 4.0559 1.98358C4.19044 1.97992 4.32499 1.97846 4.45852 1.97754L4.95707 1.97656H45.3483Z" fill="white"/>
<path d="M13.9834 11.523C14.4047 10.996 14.6906 10.2885 14.6152 9.56543C13.9984 9.5961 13.2458 9.9723 12.8101 10.4997C12.4189 10.9513 12.0726 11.6885 12.1629 12.3812C12.8552 12.4412 13.5469 12.0351 13.9834 11.523Z" fill="#333333"/>
<path d="M14.6067 12.5157C13.6013 12.4558 12.7465 13.0863 12.2664 13.0863C11.786 13.0863 11.0508 12.5459 10.2555 12.5605C9.22053 12.5757 8.26015 13.1609 7.73492 14.0916C6.65462 15.9536 7.44983 18.7156 8.50037 20.232C9.01053 20.9823 9.62537 21.8083 10.4355 21.7787C11.201 21.7486 11.501 21.283 12.4314 21.283C13.3612 21.283 13.6314 21.7787 14.4417 21.7636C15.282 21.7486 15.8073 21.013 16.3174 20.2621C16.9027 19.4068 17.1423 18.581 17.1573 18.5357C17.1423 18.5207 15.5371 17.9049 15.5222 16.0584C15.507 14.5123 16.7824 13.7769 16.8425 13.7313C16.1222 12.666 14.9969 12.5459 14.6067 12.5157Z" fill="#333333"/>
<path d="M23.3609 10.4229C25.5462 10.4229 27.0678 11.9291 27.0678 14.1222C27.0678 16.323 25.5148 17.8371 23.3062 17.8371H20.8867V21.6847H19.1387V10.4229L23.3609 10.4229ZM20.8867 16.3698H22.8925C24.4144 16.3698 25.2806 15.5505 25.2806 14.13C25.2806 12.7097 24.4144 11.898 22.9003 11.898H20.8867V16.3698Z" fill="#333333"/>
<path d="M27.5254 19.3513C27.5254 17.9152 28.6258 17.0333 30.5771 16.924L32.8246 16.7914V16.1593C32.8246 15.2461 32.208 14.6998 31.178 14.6998C30.2023 14.6998 29.5935 15.168 29.4453 15.9017H27.8533C27.9469 14.4188 29.2111 13.3262 31.2404 13.3262C33.2305 13.3262 34.5025 14.3798 34.5025 16.0265V21.6848H32.8869V20.3346H32.8481C32.3721 21.2478 31.334 21.8252 30.257 21.8252C28.6493 21.8252 27.5254 20.8263 27.5254 19.3513ZM32.8246 18.6099V17.9621L30.8032 18.0869C29.7964 18.1572 29.2268 18.6021 29.2268 19.3045C29.2268 20.0224 29.8199 20.4907 30.7252 20.4907C31.9036 20.4907 32.8246 19.679 32.8246 18.6099Z" fill="#333333"/>
<path d="M36.0275 24.7053V23.3395C36.1522 23.3707 36.4331 23.3707 36.5737 23.3707C37.3541 23.3707 37.7756 23.0429 38.033 22.2001C38.033 22.1844 38.1814 21.7006 38.1814 21.6928L35.2158 13.4746H37.0418L39.1181 20.1553H39.1491L41.2253 13.4746H43.0046L39.9295 22.1141C39.2273 24.1044 38.4156 24.7443 36.7143 24.7443C36.5737 24.7443 36.1522 24.7287 36.0275 24.7053Z" fill="#333333"/>
</g>
<defs>
<clipPath id="clip0_13997_206453">
<rect width="49.2041" height="31.5" fill="white" transform="translate(0.547852 0.926758)"/>
</clipPath>
</defs>
</svg>
