<svg width="66" height="26" viewBox="0 0 66 26" fill="none" xmlns="http://www.w3.org/2000/svg">
<path d="M31.0003 12.6562V20.0815H28.6279V1.74536H34.9173C36.5112 1.74536 37.8704 2.27311 38.9825 3.3286C40.1192 4.38409 40.6876 5.67277 40.6876 7.19465C40.6876 8.75334 40.1192 10.042 38.9825 11.0852C37.8828 12.1285 36.5236 12.6439 34.9173 12.6439H31.0003V12.6562ZM31.0003 4.00362V10.3979H34.9667C35.9058 10.3979 36.6966 10.0788 37.3144 9.45291C37.9445 8.82697 38.2658 8.06604 38.2658 7.20692C38.2658 6.36007 37.9445 5.61141 37.3144 4.98548C36.6966 4.335 35.9181 4.0159 34.9667 4.0159H31.0003V4.00362Z" fill="#5F6368"/>
<path d="M46.8908 7.12109C48.6454 7.12109 50.0293 7.58747 51.0425 8.52023C52.0557 9.45299 52.5623 10.7294 52.5623 12.3495V20.0815H50.3011V18.3388H50.2023C49.2261 19.7747 47.9163 20.4866 46.2853 20.4866C44.8891 20.4866 43.7276 20.0815 42.7885 19.2592C41.8494 18.4369 41.3799 17.4183 41.3799 16.191C41.3799 14.89 41.8741 13.8591 42.8626 13.0981C43.8511 12.3249 45.1733 11.9444 46.8166 11.9444C48.2253 11.9444 49.3867 12.2022 50.2888 12.7177V12.1776C50.2888 11.3553 49.9675 10.668 49.3126 10.0912C48.6577 9.51436 47.8916 9.23207 47.0143 9.23207C45.6922 9.23207 44.6419 9.78437 43.8758 10.9012L41.7876 9.60027C42.9368 7.94339 44.6419 7.12109 46.8908 7.12109ZM43.8264 16.2278C43.8264 16.8414 44.0859 17.3569 44.6172 17.7619C45.1362 18.1669 45.754 18.3756 46.4583 18.3756C47.4592 18.3756 48.3488 18.0074 49.1273 17.271C49.9057 16.5346 50.3011 15.6755 50.3011 14.6814C49.5597 14.1045 48.5342 13.81 47.212 13.81C46.2483 13.81 45.4451 14.0432 44.8026 14.4973C44.1477 14.9759 43.8264 15.5528 43.8264 16.2278Z" fill="#5F6368"/>
<path d="M65.463 7.52612L57.555 25.5922H55.1085L58.0493 19.2715L52.835 7.52612H55.4174L59.1737 16.5346H59.2231L62.8806 7.52612H65.463Z" fill="#5F6368"/>
<path d="M21.5619 11.1589C21.5619 10.3906 21.4927 9.65542 21.3642 8.94849H11.4199V12.9986L17.147 12.9999C16.9147 14.3474 16.1672 15.4962 15.0218 16.2621V18.8897H18.4309C20.4214 17.0598 21.5619 14.3548 21.5619 11.1589Z" fill="#4285F4"/>
<path d="M15.0225 16.2621C14.0735 16.8978 12.8515 17.2697 11.4219 17.2697C8.66023 17.2697 6.31749 15.4214 5.4785 12.9299H1.96191V15.6398C3.70414 19.0739 7.28498 21.4303 11.4219 21.4303C14.2811 21.4303 16.6831 20.4963 18.4316 18.8886L15.0225 16.2621Z" fill="#34A853"/>
<path d="M5.148 10.9197C5.148 10.2202 5.26539 9.54391 5.47915 8.90816V6.19824H1.96257C1.2422 7.61825 0.836914 9.22112 0.836914 10.9197C0.836914 12.6183 1.24343 14.2212 1.96257 15.6412L5.47915 12.9313C5.26539 12.2955 5.148 11.6193 5.148 10.9197Z" fill="#FABB05"/>
<path d="M11.4219 4.56831C12.9824 4.56831 14.3799 5.1022 15.4833 6.14542L18.5045 3.14708C16.6695 1.44971 14.2774 0.407715 11.4219 0.407715C7.28622 0.407715 3.70414 2.76416 1.96191 6.19819L5.4785 8.9081C6.31749 6.41665 8.66023 4.56831 11.4219 4.56831Z" fill="#E94235"/>
</svg>
