<svg width="24" height="24" viewBox="0 0 24 24" xmlns="http://www.w3.org/2000/svg">
    <path fill-rule="evenodd" clip-rule="evenodd" d="M12 3.57895C7.34918 3.57895 3.57895 7.34918 3.57895 12C3.57895 16.6508 7.34918 20.4211 12 20.4211C16.6508 20.4211 20.4211 16.6508 20.4211 12C20.4211 7.34918 16.6508 3.57895 12 3.57895ZM2 12C2 6.47715 6.47715 2 12 2C17.5228 2 22 6.47715 22 12C22 17.5228 17.5228 22 12 22C6.47715 22 2 17.5228 2 12Z" fill="#000"/>
    <path fill-rule="evenodd" clip-rule="evenodd" d="M11.9999 6.25098C12.4359 6.25098 12.7894 6.60444 12.7894 7.04045V11.2915C12.7894 11.7275 12.4359 12.0809 11.9999 12.0809C11.5639 12.0809 11.2104 11.7275 11.2104 11.2915V7.04045C11.2104 6.60444 11.5639 6.25098 11.9999 6.25098Z" fill="#ff0"/>
    <path fill-rule="evenodd" clip-rule="evenodd" d="M12.0002 15.6234C12.0449 15.6234 12.0811 15.5871 12.0811 15.5424C12.0811 15.4977 12.0449 15.4614 12.0002 15.4614C11.9555 15.4614 11.9192 15.4977 11.9192 15.5424C11.9192 15.5871 11.9555 15.6234 12.0002 15.6234ZM10.5022 15.5424C10.5022 14.7151 11.1729 14.0444 12.0002 14.0444C12.8275 14.0444 13.4981 14.7151 13.4981 15.5424C13.4981 16.3697 12.8275 17.0404 12.0002 17.0404C11.1729 17.0404 10.5022 16.3697 10.5022 15.5424Z" fill="#ff0"/>
</svg>
