<svg width="40" height="40" viewBox="0 0 40 40" fill="none" xmlns="http://www.w3.org/2000/svg">
<g clip-path="url(#clip0_6297_80473)">
<path d="M7.10674 -0.141585C8.47623 -0.357548 9.869 -0.358841 11.2527 -0.327804L11.1337 -0.217883C9.32327 0.967975 7.82187 2.5961 6.73688 4.46477C4.56173 8.20597 3.76901 12.63 3.94876 16.9182C4.12722 20.4098 4.96521 23.9208 6.74206 26.956C7.03949 27.4991 7.53478 27.9789 7.54254 28.6384C7.59815 30.0532 6.89853 31.3864 5.95192 32.3977C6.01399 32.4624 6.07477 32.527 6.13684 32.5917C7.02268 33.559 7.968 34.4681 8.86806 35.4225C10.147 36.8683 11.6045 38.1486 12.8576 39.6202C10.7729 39.6512 8.66374 39.7482 6.60369 39.359C4.01083 38.8559 1.70895 37.0584 0.609738 34.6556C-0.0562563 33.2668 -0.255408 31.7136 -0.307136 30.1915C-0.308429 23.1643 -0.308429 16.1384 -0.307136 9.1125C-0.278685 6.76406 0.34334 4.307 1.99604 2.56507C3.30475 1.08953 5.1579 0.129986 7.10674 -0.141585Z" fill="#0068FF"/>
<path d="M26.0933 12.7617C26.6481 12.7617 27.2029 12.7617 27.7589 12.7617C27.7499 16.0115 27.7499 19.2626 27.7589 22.5124C27.2158 22.4361 26.3118 22.784 26.1075 22.0611C26.0739 18.9626 26.1049 15.8615 26.0933 12.7617Z" fill="#0068FF"/>
<path d="M9.12137 12.8768C11.7026 12.8742 14.2812 12.8574 16.8611 12.8755C16.843 13.3811 16.8146 13.932 16.4758 14.3407C14.7118 16.5365 12.9854 18.7608 11.2228 20.9566C13.0966 20.9683 14.9705 20.9605 16.8443 20.9605C16.8094 21.3989 16.9633 21.9097 16.6788 22.2899C16.5003 22.5356 16.177 22.5136 15.9093 22.5162C13.5648 22.5033 11.2202 22.5279 8.87695 22.5033C8.88342 22.008 8.88859 21.4597 9.23517 21.0653C10.9784 18.8785 12.7423 16.7072 14.4778 14.5152C12.6945 14.5178 10.9099 14.5036 9.12654 14.523C9.1149 13.9747 9.11878 13.4251 9.12137 12.8768Z" fill="#0068FF"/>
<path d="M31.8885 15.0291C33.7455 14.6139 35.7603 15.8334 36.2685 17.662C36.9061 19.5643 35.7422 21.8261 33.8192 22.4054C32.1859 22.9809 30.2306 22.2296 29.3836 20.7243C28.7189 19.6121 28.6788 18.156 29.2827 17.0115C29.7948 16.0015 30.7841 15.2631 31.8885 15.0291ZM31.8575 16.6766C30.7246 17.0762 30.1142 18.4547 30.5565 19.5682C30.9225 20.6208 32.1549 21.2648 33.2257 20.9415C34.4477 20.6493 35.1861 19.2177 34.7529 18.0448C34.3908 16.8835 32.9877 16.2136 31.8575 16.6766Z" fill="#0068FF"/>
<path d="M18.1314 16.3832C19.025 15.2762 20.5898 14.7305 21.9683 15.1249C22.4235 15.24 22.836 15.4676 23.2343 15.7094C23.2305 15.5879 23.2214 15.3461 23.2175 15.2245C23.7387 15.2219 24.2586 15.2232 24.7797 15.2206C24.7771 17.6518 24.7745 20.083 24.781 22.5155C24.3982 22.5052 24.009 22.5504 23.6326 22.4728C23.3688 22.3655 23.2874 22.0771 23.1826 21.8418C21.7446 22.9591 19.4854 22.7056 18.2905 21.3452C17.0167 20.0274 16.9507 17.7824 18.1314 16.3832ZM20.2367 16.7091C19.0392 17.1307 18.4586 18.6734 19.0651 19.7856C19.5824 20.8693 21.0385 21.3245 22.0795 20.727C23.0455 20.2201 23.4917 18.9618 23.0766 17.9557C22.6744 16.8617 21.3178 16.2487 20.2367 16.7091Z" fill="#0068FF"/>
<path d="M11.1339 -0.217769C11.4236 -0.300533 11.7262 -0.326397 12.0262 -0.335449C17.1977 -0.316051 22.3692 -0.338036 27.5406 -0.328983C28.9231 -0.312172 30.3132 -0.405282 31.6853 -0.194491C33.585 -0.0496536 35.4136 0.754712 36.827 2.02592C38.6013 3.7213 39.5479 6.16284 39.5777 8.59793C39.579 15.4531 39.5751 22.3135 39.5815 29.1662C39.5634 29.2062 39.5285 29.289 39.5104 29.3304C37.6676 31.3917 35.1899 32.7871 32.5996 33.6897C29.1093 34.8795 25.3707 35.2623 21.7019 34.9829C18.0331 34.6674 14.3358 33.7091 11.2244 31.6814C9.6338 32.3888 7.87893 32.7354 6.137 32.5918C6.07493 32.5272 6.01415 32.4625 5.95208 32.3978C6.89869 31.3866 7.59831 30.0533 7.5427 28.6385C7.53494 27.979 7.03965 27.4992 6.74222 26.9561C4.96537 23.921 4.12738 20.4099 3.94892 16.9183C3.76917 12.6301 4.56189 8.20609 6.73704 4.46488C7.82203 2.59622 9.32343 0.968089 11.1339 -0.217769ZM26.0935 12.762C26.1052 15.8618 26.0742 18.9629 26.1078 22.0614C26.3121 22.7843 27.216 22.4364 27.7592 22.5127C27.7501 19.2629 27.7501 16.0118 27.7592 12.762C27.2031 12.762 26.6483 12.762 26.0935 12.762ZM9.12169 12.8771C9.1191 13.4254 9.11523 13.975 9.12686 14.5233C10.9102 14.5039 12.6948 14.5182 14.4781 14.5156C12.7426 16.7075 10.9787 18.8788 9.23549 21.0656C8.88892 21.46 8.88374 22.0083 8.87728 22.5036C11.2205 22.5282 13.5651 22.5036 15.9097 22.5166C16.1773 22.514 16.5006 22.536 16.6791 22.2902C16.9636 21.91 16.8097 21.3992 16.8446 20.9608C14.9708 20.9608 13.097 20.9686 11.2231 20.957C12.9858 18.7611 14.7122 16.5368 16.4761 14.341C16.8149 13.9323 16.8433 13.3814 16.8614 12.8758C14.2815 12.8577 11.7029 12.8745 9.12169 12.8771ZM31.8883 15.029C30.784 15.263 29.7947 16.0015 29.2826 17.0114C28.6786 18.1559 28.7187 19.612 29.3834 20.7242C30.2305 22.2295 32.1858 22.9808 33.8191 22.4053C35.7421 21.826 36.9059 19.5642 36.2684 17.6619C35.7602 15.8333 33.7454 14.6139 31.8883 15.029ZM18.1314 16.3829C16.9507 17.7822 17.0166 20.0272 18.2904 21.3449C19.4853 22.7054 21.7445 22.9588 23.1826 21.8415C23.2873 22.0769 23.3688 22.3653 23.6326 22.4726C24.0089 22.5502 24.3982 22.5049 24.781 22.5153C24.7745 20.0828 24.7771 17.6516 24.7797 15.2204C24.2585 15.223 23.7386 15.2217 23.2175 15.2242C23.2214 15.3458 23.2304 15.5876 23.2343 15.7092C22.836 15.4674 22.4235 15.2398 21.9683 15.1247C20.5897 14.7302 19.025 15.276 18.1314 16.3829Z" fill="white"/>
<path d="M20.2368 16.7087C21.3179 16.2484 22.6745 16.8613 23.0767 17.9554C23.4918 18.9615 23.0456 20.2197 22.0796 20.7267C21.0386 21.3241 19.5824 20.8689 19.0652 19.7852C18.4587 18.6731 19.0393 17.1303 20.2368 16.7087Z" fill="white"/>
<path d="M31.8573 16.6767C32.9875 16.2138 34.3907 16.8836 34.7527 18.0449C35.186 19.2178 34.4476 20.6494 33.2255 20.9417C32.1547 21.265 30.9223 20.621 30.5563 19.5683C30.1141 18.4549 30.7245 17.0763 31.8573 16.6767Z" fill="white"/>
<path d="M39.5101 29.3305L39.6123 29.2192C39.6653 31.2405 39.4468 33.3497 38.4549 35.1485C37.3014 37.259 35.209 38.8264 32.8554 39.3281C31.535 39.601 30.181 39.6618 28.8361 39.645C24.6992 39.6462 20.5623 39.645 16.4254 39.6462C15.2356 39.6269 14.0433 39.6825 12.8574 39.6204C11.6043 38.1487 10.1469 36.8685 8.86794 35.4227C7.96788 34.4683 7.02256 33.5592 6.13672 32.5919C7.87865 32.7354 9.63351 32.3889 11.2241 31.6815C14.3356 33.7092 18.0328 34.6675 21.7016 34.983C25.3704 35.2623 29.109 34.8795 32.5993 33.6898C35.1896 32.7872 37.6673 31.3918 39.5101 29.3305Z" fill="#005BE0"/>
</g>
<defs>
<clipPath id="clip0_6297_80473">
<rect width="40" height="40" fill="white"/>
</clipPath>
</defs>
</svg>
