<svg width="115" height="40" viewBox="0 0 115 40" fill="none" xmlns="http://www.w3.org/2000/svg">
<path d="M113.703 5.49184C107.148 7.96026 100.23 9.39313 93.2103 9.7362C93.5601 14.8882 97.0304 20.5273 99.8697 20.5273C107.064 20.5273 112.845 8.85529 114.066 6.35939C114.533 5.43177 114.176 5.29163 113.703 5.49184Z" fill="white"/>
<path d="M97.1333 7.56051C93.7041 6.35927 94.39 0.606696 94.3145 0.219631C93.9716 -1.04166 88.7731 3.40958 88.7731 6.43268C88.7731 7.69398 89.6166 8.09439 91.002 8.13443C93.0531 8.12136 95.0995 7.94054 97.1195 7.59387C97.1676 7.60055 97.1607 7.56718 97.1333 7.56051Z" fill="white"/>
<path fill-rule="evenodd" clip-rule="evenodd" d="M0.000294625 29.0826V13.6133C-0.00408432 13.3763 0.0403886 13.1408 0.131088 12.9207C0.221788 12.7006 0.356876 12.5005 0.528378 12.332C0.695239 12.1617 0.89658 12.027 1.11969 11.9362C1.34279 11.8455 1.58281 11.8007 1.82458 11.8048H3.60087V18.2314H10.802V11.8048H14.4506V29.0826H10.802V21.3947H3.60087V29.0826H0.000294625Z" fill="white"/>
<path fill-rule="evenodd" clip-rule="evenodd" d="M16.2472 29.0827V13.6135C16.2463 13.3757 16.2938 13.1402 16.3868 12.9203C16.4799 12.7005 16.6168 12.5008 16.7895 12.3327C16.9623 12.1646 17.1676 12.0314 17.3935 11.9408C17.6194 11.8502 17.8615 11.8041 18.1058 11.8049H22.6322C25.3481 11.8049 27.3781 12.5079 28.7223 13.9138C30.094 15.382 30.7318 17.5642 30.7318 20.4405C30.7644 21.8597 30.532 23.2729 30.046 24.6114C29.5958 25.7481 28.8488 26.751 27.8788 27.5211C27.1342 28.0742 26.2829 28.476 25.3755 28.7023C24.1417 28.9796 22.8759 29.0985 21.6103 29.056L16.2472 29.0827ZM19.8066 25.9662H22.1316C23.8187 25.9662 25.0532 25.5324 25.8487 24.6315C26.6443 23.7305 26.9803 22.4225 26.9803 20.4138C26.9803 18.4051 26.6237 17.077 25.8967 16.1427C25.4995 15.6764 24.9916 15.3112 24.4169 15.0786C23.8421 14.8461 23.2178 14.7532 22.5979 14.808H19.8066V25.9662Z" fill="white"/>
<path fill-rule="evenodd" clip-rule="evenodd" d="M32.4807 29.0826V13.6134C32.476 13.3757 32.521 13.1395 32.613 12.9193C32.7049 12.699 32.8419 12.4992 33.0156 12.332C33.1851 12.1614 33.3888 12.0265 33.6142 11.9358C33.8396 11.8451 34.0817 11.8005 34.3255 11.8048H40.7791C42.2522 11.7081 43.7159 12.0959 44.9352 12.906C45.4103 13.3109 45.7863 13.8141 46.0355 14.3788C46.2847 14.9435 46.4009 15.5553 46.3755 16.1693C46.3998 16.9449 46.2028 17.7118 45.8062 18.3849C45.4094 18.9614 44.8596 19.4226 44.2151 19.7196C45.04 20.0353 45.7541 20.575 46.2726 21.2746C46.7568 22.0267 46.9959 22.9037 46.9584 23.7905C47.0007 24.5193 46.8762 25.2481 46.594 25.9243C46.3117 26.6006 45.8787 27.2075 45.3261 27.7012C43.9367 28.681 42.2371 29.1535 40.5254 29.0359L32.4807 29.0826ZM35.9647 18.485H40.1207C40.8035 18.5336 41.4847 18.3726 42.0685 18.0246C42.2782 17.8541 42.4429 17.6374 42.5491 17.3925C42.6553 17.1476 42.6998 16.8815 42.6789 16.6165C42.6998 16.3524 42.6553 16.0873 42.5491 15.8434C42.4429 15.5995 42.278 15.384 42.0685 15.215C41.461 14.8792 40.7607 14.7369 40.0659 14.8079H35.9509L35.9647 18.485ZM35.9647 25.9661H40.2716C41.0474 26.0143 41.8187 25.8203 42.4731 25.4122C42.7223 25.2037 42.9151 24.9389 43.0347 24.641C43.1542 24.3432 43.1969 24.0214 43.1589 23.7037C43.1928 23.3794 43.1484 23.0519 43.0294 22.7472C42.9103 22.4425 42.7199 22.1691 42.4731 21.9486C41.7971 21.5527 41.0097 21.3752 40.2236 21.4414H35.9647V25.9661Z" fill="white"/>
<path fill-rule="evenodd" clip-rule="evenodd" d="M74.8164 29.0825H72.9853C72.7491 29.092 72.5135 29.0543 72.2929 28.9716C72.0723 28.889 71.8714 28.7632 71.7028 28.602C71.5358 28.4427 71.405 28.2512 71.3188 28.0397C71.2325 27.8282 71.1928 27.6014 71.2022 27.3741V20.2C71.2316 19.8689 71.1784 19.5358 71.047 19.2291C70.9157 18.9223 70.7101 18.651 70.4477 18.4382C69.9582 18.0785 69.3603 17.8861 68.7469 17.891C68.1412 17.8817 67.5505 18.0749 67.0735 18.4382C66.8167 18.6545 66.6162 18.9269 66.4887 19.2332C66.3611 19.5395 66.31 19.8708 66.3397 20.2V29.0825H62.6774V20.9008C62.6774 18.6273 63.2969 17.1035 64.5359 16.3294C65.7693 15.5642 67.1893 15.1312 68.6509 15.0748C70.1458 15.0648 71.6131 15.4674 72.8824 16.236C74.1718 17.0034 74.8233 18.5583 74.8233 20.9074L74.8164 29.0825Z" fill="white"/>
<path fill-rule="evenodd" clip-rule="evenodd" d="M59.31 16.0226C58.3019 15.3552 56.7862 15.0616 54.7699 15.0616C53.2859 14.9678 51.8145 15.3782 50.6069 16.2228C50.1915 16.5345 49.8437 16.9233 49.5835 17.3666C49.3234 17.8098 49.1561 18.2989 49.0913 18.8055H52.7124C52.7935 18.6234 52.9129 18.4598 53.0629 18.3253C53.213 18.1908 53.3902 18.0884 53.5834 18.0247C54.0257 17.8829 54.4895 17.8152 54.955 17.8245C55.4754 17.831 55.9924 17.9073 56.4913 18.0514C56.7317 18.0871 56.9503 18.2074 57.1057 18.3894C57.2612 18.5714 57.3427 18.8025 57.3349 19.039C57.3349 19.7064 56.5393 20.1468 54.955 20.3737C54.6648 20.4002 54.3763 20.4425 54.0909 20.5005C53.8652 20.546 53.6356 20.5706 53.4051 20.5739C52.2097 20.7241 51.0664 21.1422 50.0651 21.7952C49.153 22.4025 48.6935 23.4102 48.6935 24.8317C48.6935 26.2531 49.1804 27.4343 50.1543 28.095C51.1634 28.7645 52.3624 29.1098 53.5834 29.0827C55.0605 29.187 56.5356 28.8543 57.8149 28.1284C57.8846 28.3221 57.9916 28.501 58.1304 28.6556C58.2725 28.8096 58.4473 28.9318 58.6427 29.0136C58.838 29.0954 59.0494 29.1349 59.262 29.1294H60.8806V18.8588C60.8996 18.2932 60.7643 17.7328 60.4884 17.2346C60.2125 16.7364 59.806 16.3182 59.31 16.0226ZM57.3623 23.3101C57.3854 23.7197 57.3205 24.1294 57.1718 24.5132C57.023 24.897 56.7935 25.2464 56.4981 25.539C56.1756 25.8195 55.7994 26.0351 55.391 26.1737C54.9826 26.3123 54.5501 26.371 54.1183 26.3465C53.6274 26.3709 53.1428 26.2294 52.7467 25.9461C52.5836 25.7875 52.4561 25.5976 52.3723 25.3886C52.2885 25.1795 52.2501 24.9558 52.2598 24.7315C52.2703 24.331 52.4041 23.9428 52.6438 23.6171C53.0492 23.2859 53.532 23.0567 54.0498 22.9497L55.2568 22.6961C55.9809 22.5467 56.6867 22.323 57.3623 22.0288V23.3101Z" fill="white"/>
<path fill-rule="evenodd" clip-rule="evenodd" d="M80.1659 15.7223V20.3938L84.4866 15.0549H88.7592L83.9585 20.8275L88.8347 29.0693H84.562L82.0793 24.5447C81.5649 23.6438 81.126 23.2567 80.7488 23.3902C80.3716 23.5236 80.1933 23.7305 80.1933 23.9908V29.0693H76.6064V11.8049H78.4376C78.8897 11.8099 79.3221 11.9851 79.6444 12.2937C79.9666 12.6022 80.1535 13.0202 80.1659 13.46V15.7223Z" fill="white"/>
</svg>
