<svg width="24" height="25" viewBox="0 0 24 25" fill="none" xmlns="http://www.w3.org/2000/svg">
<path fill-rule="evenodd" clip-rule="evenodd" d="M6.21967 9.94367C6.51256 9.65078 6.98744 9.65078 7.28033 9.94367L12 14.6633L16.7197 9.94367C17.0126 9.65078 17.4874 9.65078 17.7803 9.94367C18.0732 10.2366 18.0732 10.7114 17.7803 11.0043L12.8192 15.9654C12.7149 16.0737 12.5901 16.1603 12.452 16.2201C12.3093 16.2818 12.1555 16.3137 12 16.3137C11.8445 16.3137 11.6907 16.2818 11.548 16.2201C11.4099 16.1603 11.2851 16.0737 11.1808 15.9654L6.21967 11.0043C5.92678 10.7114 5.92678 10.2366 6.21967 9.94367Z" fill="#6C737F"/>
</svg>
