<svg width="1600" height="1600" viewBox="0 0 1600 1600" fill="none" xmlns="http://www.w3.org/2000/svg">
<path d="M1529.7 989.9V1303.3H70V959.8C153.7 932 247.3 956.3 331.2 985C440.7 1022.5 550.8 1076.2 669.2 1071.7H669.4C728.7 1069.4 782.4 1048 837.5 1027.9C843.7 1025.6 850 1023.4 856.3 1021.4C909 1004.3 961.7 996.2 1018 1000.7C1078 1005.5 1136.5 1020.8 1196.1 1028.8C1251.1 1036.2 1305.7 1036.7 1360.7 1028.1C1417.7 1019.2 1473.6 1003.5 1529.7 989.9Z" fill="#DA2128"/>
<path d="M554.999 1294.5H554.899C552.199 1294.4 550.199 1292.2 550.199 1289.6L559.799 943.9C559.899 941.2 562.199 939.2 564.699 939.2C567.399 939.3 569.399 941.5 569.399 944.1L559.799 1289.8C559.699 1292.4 557.499 1294.5 554.999 1294.5Z" fill="#333333"/>
<path d="M967.901 1294.5C965.401 1294.5 963.201 1292.5 963.101 1289.9L946.3 937C946.2 934.4 948.201 932.1 950.901 932C953.501 931.8 955.801 933.9 955.901 936.6L972.7 1289.5C972.8 1292.1 970.801 1294.4 968.101 1294.5C968.101 1294.5 968.001 1294.5 967.901 1294.5Z" fill="#333333"/>
<path d="M781.401 1294.5C778.801 1294.5 776.601 1292.4 776.601 1289.8L767.801 808.8C767.801 806.1 769.901 804 772.501 803.9H772.601C775.201 803.9 777.401 806 777.401 808.6L786.201 1289.6C786.301 1292.3 784.201 1294.4 781.401 1294.5C781.501 1294.5 781.501 1294.5 781.401 1294.5Z" fill="#333333"/>
<path d="M884.601 482.801C896.101 473.301 905.901 461.801 907.601 446.501C909.301 430.801 902.201 414.901 886.501 410.101C865.001 403.501 838.701 419.201 820.701 429.001C801.501 439.501 783.901 452.201 767.801 466.801C768.701 460.601 768.101 454.501 764.501 448.801C757.201 437.301 745.001 436.801 733.801 442.601C697.701 461.501 671.001 508.801 655.001 544.501C653.301 548.301 656.401 551.101 659.701 551.301C659.701 551.401 659.701 551.501 659.801 551.501C660.501 552.601 661.201 553.501 662.001 554.401C672.301 558.001 680.901 563.201 685.301 568.101C685.301 568.101 684.101 528.801 745.301 509.801C797.901 493.401 833.601 500.101 854.201 532.301C854.401 532.201 854.701 532.101 854.901 532.001C855.701 532.201 856.401 532.201 857.401 531.901C873.701 527.101 902.601 514.101 892.101 491.201C890.301 487.301 887.601 484.601 884.601 482.801Z" fill="#333333"/>
<path d="M822.302 843.901C819.702 843.901 817.502 841.801 817.502 839.201L815.902 756C815.902 753.4 817.802 751.3 820.402 751.1C848.702 749.1 869.802 742.6 880.602 717.8C890.102 695.9 880.902 650.8 871.202 603.1C869.602 595.1 867.902 587.001 866.302 578.901C862.702 560.801 857.302 546 850.202 535C831.002 505 798.102 498.401 746.702 514.501C690.202 532.101 690.102 566.6 690.102 568.1C690.102 570.1 688.902 571.901 687.002 572.701C685.102 573.401 683.002 572.901 681.702 571.401C677.802 567.001 669.602 562.3 660.402 559C643.102 553 625.602 553.1 613.502 559.3C604.402 563.9 598.002 571.9 594.602 583.1C589.602 599.2 591.402 613.5 599.902 625.6C612.502 643.6 640.202 655.7 672.202 657.3C674.302 657.4 676.102 658.901 676.602 660.901C676.702 661.401 688.402 706.701 711.802 721.001C713.202 721.801 714.002 723.301 714.102 724.901C715.602 759.401 716.802 790.7 717.602 817.8C717.702 820.5 715.602 822.701 712.902 822.701C710.402 822.701 708.002 820.701 708.002 818C707.202 791.6 706.102 761.201 704.602 727.701C683.002 712.801 671.402 677.8 668.202 666.6C634.302 664.2 606.002 651.001 592.002 631.001C581.902 616.601 579.602 599.001 585.402 580.201C589.602 566.401 597.602 556.5 609.202 550.6C629.902 540.1 654.202 546.6 663.602 549.8C670.602 552.3 676.902 555.4 681.802 558.8C685.202 545 697.802 519.501 743.902 505.201C799.302 487.901 836.702 496.001 858.302 529.701C866.202 541.901 871.902 557.301 875.702 576.901C877.302 584.901 878.902 593.001 880.502 601.001C890.502 650.301 900.002 696.801 889.302 721.401C876.602 750.701 851.502 757.8 825.502 760.1L827.002 838.8C827.102 841.7 825.002 843.901 822.302 843.901Z" fill="#333333"/>
<path d="M713.401 846.701C710.701 846.701 708.601 844.501 708.601 841.801C708.601 841.501 708.701 834.801 707.101 791.201C707.001 789.401 708.001 787.701 709.601 786.801C711.201 785.901 713.101 786.001 714.601 787.001C738.201 803.101 776.301 805.501 816.301 793.601C818.801 792.801 821.501 794.301 822.301 796.801C823.101 799.301 821.601 802.001 819.101 802.801C780.401 814.401 743.101 813.101 717.101 799.601C718.301 836.101 718.301 841.701 718.301 841.901C718.201 844.701 716.001 846.701 713.401 846.701Z" fill="#333333"/>
<path d="M672.502 623.2C670.602 623.2 668.702 622 668.002 620.1C664.702 611.5 645.302 591.3 628.402 592.9C625.702 593.1 623.402 591.2 623.202 588.6C622.902 586 624.902 583.6 627.502 583.4C649.302 581.3 672.202 604.1 677.002 616.7C677.902 619.2 676.702 622 674.202 622.9C673.602 623.1 673.102 623.2 672.502 623.2Z" fill="#333333"/>
<path d="M856.301 625.5H730.101C705.301 625.5 685.301 605.4 685.301 580.7C685.301 555.9 705.401 535.9 730.101 535.9H856.201C881.001 535.9 901.001 556 901.001 580.7C901.101 605.4 881.001 625.5 856.301 625.5Z" fill="#FFF4B0"/>
<path d="M856.304 630.301H730.104C702.704 630.301 680.504 608.001 680.504 580.701C680.504 553.301 702.804 531.101 730.104 531.101H856.204C883.604 531.101 905.804 553.401 905.804 580.701C905.904 608.001 883.604 630.301 856.304 630.301ZM730.104 540.601C708.004 540.601 690.104 558.601 690.104 580.601C690.104 602.701 708.104 620.601 730.104 620.601H856.204C878.304 620.601 896.204 602.601 896.204 580.601C896.204 558.501 878.204 540.601 856.204 540.601H730.104Z" fill="#333333"/>
<path d="M835.703 695.101H791.203C787.103 695.101 783.403 693.601 780.503 691.001C777.203 688.101 775.203 683.801 775.203 679.101C775.203 673.801 777.703 669.201 781.603 666.301C784.303 664.301 787.603 663.101 791.203 663.101H835.703C840.703 663.101 845.203 665.401 848.203 669.101C850.403 671.801 851.703 675.301 851.703 679.101C851.703 683.301 850.103 687.001 847.503 689.901C844.603 693.101 840.403 695.101 835.703 695.101Z" fill="#333333"/>
<path d="M791.8 671.001C783.1 671.101 774.8 668.501 767.9 662.901C763.1 659.001 756.3 665.801 761.1 669.701C769.9 676.901 780.3 680.701 791.8 680.601C798 680.501 798 670.901 791.8 671.001Z" fill="#333333"/>
<path d="M876.301 687.1H823.901C818.601 687.1 814.301 682.8 814.301 677.5C814.301 672.2 818.601 667.9 823.901 667.9H876.301C896.801 667.9 913.501 651.2 913.501 630.7V343C913.501 337.7 917.801 333.4 923.101 333.4C928.401 333.4 932.701 337.7 932.701 343V630.7C932.701 661.8 907.401 687.1 876.301 687.1Z" fill="#333333"/>
<path d="M871.704 579.801C868.004 585.101 864.204 590.501 860.504 595.801C856.904 600.901 865.304 605.701 868.804 600.601C872.504 595.301 876.304 589.901 880.004 584.601C883.604 579.601 875.204 574.801 871.704 579.801Z" fill="white"/>
<path d="M824.803 658.501C824.003 658.501 823.103 658.301 822.303 657.801C820.003 656.401 819.303 653.501 820.703 651.201C833.003 630.801 826.403 608.601 795.303 566.401C793.703 564.301 794.203 561.301 796.303 559.701C798.403 558.101 801.403 558.601 803.003 560.701C832.003 600.201 845.603 628.501 828.903 656.201C828.003 657.701 826.403 658.501 824.803 658.501Z" fill="#333333"/>
<path d="M735.337 582.89C735.693 579.373 733.131 576.234 729.615 575.877C726.098 575.521 722.958 578.083 722.602 581.599C722.246 585.116 724.808 588.256 728.324 588.612C731.841 588.968 734.981 586.406 735.337 582.89Z" fill="#333333"/>
<path d="M840.642 572.942C840.998 569.425 838.436 566.285 834.919 565.929C831.403 565.573 828.263 568.135 827.907 571.651C827.551 575.168 830.112 578.307 833.629 578.664C837.146 579.02 840.285 576.458 840.642 572.942Z" fill="#333333"/>
<path d="M734.502 548.401C733.302 545.701 730.302 544.901 727.702 545.901C725.002 546.901 722.302 547.901 719.602 548.901C717.002 549.901 716.002 553.301 717.102 555.701C718.302 558.401 721.302 559.201 723.902 558.201C726.602 557.201 729.302 556.201 732.002 555.201C734.602 554.201 735.602 550.801 734.502 548.401Z" fill="#333333"/>
<path d="M838.101 542.4L831.701 541.8C825.101 541.1 824.101 551.3 830.701 552L837.101 552.6C843.601 553.3 844.701 543.1 838.101 542.4Z" fill="#333333"/>
<path d="M1114.4 1039.2C1112.3 1039.2 1110.4 1037.8 1109.8 1035.7C1109.6 1035 1089.8 964.501 1034.2 854.101C985.701 757.801 919.601 784.801 849.601 813.501C841.401 816.901 833.201 820.201 825.101 823.301C822.601 824.201 819.801 823.001 818.901 820.501C817.901 818.001 819.201 815.201 821.701 814.301C829.701 811.201 837.801 807.901 846.001 804.601C913.701 776.901 990.401 745.601 1042.9 849.801C1099 961.201 1119 1032.5 1119.2 1033.2C1119.9 1035.8 1118.4 1038.4 1115.9 1039.1C1115.3 1039.2 1114.8 1039.2 1114.4 1039.2Z" fill="#333333"/>
<path d="M1487.2 698.301C1485.3 694.001 1481.6 691.301 1478.4 689.801C1479.9 685.301 1479.4 681.701 1478.5 679.101C1476.4 673.201 1471.3 669.401 1467.4 667.301C1468.9 661.801 1467.9 657.701 1466.6 654.901C1463.3 648.001 1455.9 644.801 1452.3 643.701C1437 621.401 1390.1 628.301 1356.7 636.801C1370.3 626.901 1382.8 614.901 1381.5 605.201C1381 601.601 1378.7 597.001 1370.1 595.001C1343.5 588.801 1238.3 643.401 1217.3 679.901C1196.9 715.401 1093.2 1098.7 1088.8 1115C1088.1 1117.6 1089.6 1120.2 1092.2 1120.9C1094.7 1121.6 1097.4 1120.1 1098.1 1117.5C1099.2 1113.5 1205.9 719.101 1225.7 684.701C1245.8 649.601 1347.4 599.601 1368 604.301C1370.7 604.901 1372 605.801 1372.1 606.401C1372.8 611.901 1353.8 630.301 1321.2 647.601C1319 648.801 1318 651.501 1319.1 653.801C1320.1 656.101 1322.8 657.201 1325.1 656.401C1353.6 646.101 1430.6 625.001 1445.1 650.201C1445.8 651.401 1446.9 652.201 1448.2 652.501C1450.3 653.001 1456.2 655.101 1458 659.101C1459.1 661.401 1458.8 664.201 1457.1 667.701C1456.5 668.901 1456.4 670.401 1457 671.701C1457.5 673.001 1458.6 674.001 1459.9 674.401C1461.9 675.101 1468.1 678.101 1469.6 682.301C1470.4 684.501 1469.8 687.001 1467.9 690.001C1467 691.301 1466.9 693.001 1467.5 694.501C1468.1 696.001 1469.4 697.001 1471 697.301C1472.2 697.501 1477.2 699.101 1478.6 702.301C1479.6 704.501 1478.9 707.501 1476.7 711.201C1473.3 717.001 1452.6 721.401 1434.4 725.301C1405.3 731.501 1372.3 738.601 1357.2 756.401C1339.4 777.501 1297.3 936.801 1263.5 1064.8C1248.2 1122.5 1235.1 1172.4 1227.3 1197.6C1213.7 1241.5 1187.5 1268 1153.4 1272.4C1115 1277.3 1073.1 1252.7 1046.6 1209.8C990.999 1119.6 960.499 1060.7 960.199 1060.1C959.399 1058.5 957.899 1057.6 956.199 1057.5V1073.2C966.699 1092.8 994.899 1144.3 1038.4 1214.9C1064.4 1257 1104.7 1282.6 1143.6 1282.6C1147.3 1282.6 1150.9 1282.4 1154.5 1281.9C1192.6 1277.1 1221.6 1248.1 1236.4 1200.4C1244.3 1175 1257.5 1125 1272.8 1067.2C1304.6 946.901 1348.2 782.001 1364.6 762.501C1377.5 747.201 1410.2 740.201 1436.4 734.601C1460.5 729.501 1479.4 725.401 1485 715.901C1488.8 709.401 1489.6 703.401 1487.2 698.301Z" fill="#333333"/>
<path d="M1370.2 667.7C1368.3 667.7 1366.6 666.6 1365.8 664.8C1364.7 662.4 1365.8 659.5 1368.3 658.5C1385.8 650.8 1446 643.3 1448.6 643C1451.3 642.6 1453.6 644.5 1454 647.2C1454.4 649.9 1452.5 652.2 1449.8 652.6C1449.2 652.7 1388.4 660.3 1372.2 667.4C1371.5 667.6 1370.9 667.7 1370.2 667.7Z" fill="#333333"/>
<path d="M1382.4 688.901C1380.5 688.901 1378.7 687.801 1378 685.901C1377 683.401 1378.2 680.601 1380.6 679.601C1395.6 673.501 1458.1 665.301 1460.7 664.901C1463.3 664.501 1465.7 666.401 1466.1 669.001C1466.4 671.601 1464.6 674.001 1462 674.401C1444.3 676.701 1395.8 683.701 1384.3 688.401C1383.6 688.801 1383 688.901 1382.4 688.901Z" fill="#333333"/>
<path d="M1394.5 711.701C1392.6 711.701 1390.8 710.601 1390.1 708.701C1389.1 706.201 1390.3 703.401 1392.7 702.401C1407.7 696.301 1469.4 688.801 1472 688.501C1474.7 688.201 1477 690.101 1477.3 692.701C1477.6 695.301 1475.7 697.701 1473.1 698.001C1455.6 700.101 1407.7 706.601 1396.2 711.301C1395.7 711.601 1395.1 711.701 1394.5 711.701Z" fill="#333333"/>
<path d="M1329 649.301C1326.8 643.601 1318.3 648.201 1320.6 653.901C1328.6 674.501 1323.2 697.301 1307.3 712.501C1302.8 716.801 1309.4 723.801 1313.9 719.501C1333.1 701.001 1338.7 673.901 1329 649.301Z" fill="#333333"/>
<path d="M1344.4 806.501C1343.3 804.101 1340.4 803.001 1338 804.201C1315.1 814.801 1231.9 795.301 1198.9 753.001C1198.1 752.001 1197.1 751.501 1196 751.301C1194.8 754.301 1193.7 757.301 1192.5 760.401C1221.1 795.401 1283.4 816.501 1320.7 816.501C1329.4 816.501 1336.8 815.301 1342 812.901C1344.5 811.701 1345.5 808.901 1344.4 806.501Z" fill="#333333"/>
<path d="M1078.8 1256.7C1077.7 1256.7 1076.7 1256.4 1075.8 1255.6C1073.7 1253.9 1073.4 1250.9 1075 1248.8C1121.6 1190.6 1192.3 1168.7 1229.2 1184.8C1231.6 1185.9 1232.7 1188.7 1231.7 1191.1C1230.6 1193.5 1227.8 1194.7 1225.4 1193.6C1191.8 1178.9 1126.4 1200 1082.6 1254.8C1081.6 1256.1 1080.2 1256.7 1078.8 1256.7Z" fill="#333333"/>
<path d="M448.801 999.3C448.501 999.3 448.201 999.3 447.901 999.2C442.001 998.3 442.001 998.3 454.101 897.8C460.801 841.9 477.601 807.7 506.901 790.4C547.001 766.7 609.701 774.2 710.301 814.7C712.801 815.7 713.901 818.5 713.001 821C712.001 823.5 709.201 824.6 706.701 823.7C610.401 784.9 548.501 777 511.801 798.7C485.201 814.4 469.901 846.3 463.601 899C455.001 970.5 453.401 988.5 453.301 992.8L453.001 995.1C452.801 996.8 452.901 999.3 448.801 999.3Z" fill="#333333"/>
<path d="M444.801 1297.2C392.701 1297.2 347.801 1261 332.901 1206.9C325.801 1181.2 314.201 1130.9 300.701 1072.6C272.701 951.3 234.301 785.2 218.501 765.2C206.101 749.5 173.701 741.5 147.601 735.1C123.701 729.2 104.901 724.6 99.6012 714.9C95.9012 708.2 95.3012 702.2 97.8012 697.1C99.9012 692.8 103.601 690.3 106.901 688.9C105.601 684.4 106.201 680.7 107.201 678.2C109.401 672.3 114.801 668.7 118.701 666.7C117.301 661.2 118.501 657 119.901 654.3C123.401 647.5 130.901 644.6 134.601 643.5C154.501 616.5 221.601 635.9 251.401 646.3C246.901 640.3 241.801 634.5 237.001 629.3C226.301 617.3 217.101 607 218.201 597C218.701 592.5 221.201 588.6 225.701 585.5C240.801 574.6 309.301 631.6 310.001 632.1C315.001 636.3 319.801 639.7 324.901 643.3C338.201 652.6 352.001 662.2 368.001 686.8C392.701 724.7 477.601 1100.5 481.201 1116.5C481.801 1119.1 480.201 1121.7 477.601 1122.2C475.001 1122.8 472.401 1121.2 471.901 1118.6C471.001 1114.7 383.801 728.5 360.001 692C345.001 669 332.601 660.3 319.401 651.1C314.301 647.6 309.101 643.9 303.801 639.4C271.101 611.9 238.801 593.4 231.401 593.4C231.201 593.4 231.101 593.4 231.001 593.4C228.401 595.4 227.901 596.9 227.801 598C227.201 603.7 235.901 613.4 244.201 622.8C252.301 631.8 261.401 642.1 267.401 653.5C268.301 655.3 268.101 657.4 266.701 658.9C265.301 660.4 263.201 660.9 261.401 660.2C233.301 649 156.901 625.5 141.601 650.3C140.901 651.4 139.701 652.2 138.401 652.5C136.301 652.9 130.401 654.9 128.401 658.8C127.201 661.1 127.501 663.9 129.101 667.4C129.701 668.7 129.701 670.1 129.101 671.4C128.501 672.7 127.501 673.6 126.101 674C123.901 674.7 117.701 677.4 116.101 681.7C115.301 683.9 115.801 686.4 117.601 689.4C118.401 690.8 118.501 692.4 117.801 693.9C117.101 695.3 115.801 696.4 114.201 696.6C112.601 696.9 107.901 698.3 106.401 701.4C105.101 704.1 106.601 707.7 108.001 710.4C111.201 716.3 131.701 721.4 149.901 725.8C178.801 732.9 211.601 741 226.001 759.3C243.101 781 280.201 941.5 310.001 1070.5C323.401 1128.7 335.101 1178.9 342.101 1204.4C355.801 1254.2 397.001 1287.6 444.701 1287.6C444.901 1287.6 445.101 1287.6 445.301 1287.6C484.001 1287.4 531.801 1262.3 550.201 1192.4C550.901 1189.8 553.501 1188.3 556.101 1189C558.701 1189.7 560.201 1192.3 559.501 1194.9C539.701 1270 487.601 1297 445.301 1297.2C445.201 1297.2 445.001 1297.2 444.801 1297.2Z" fill="#333333"/>
<path d="M215.9 670.301C215.2 670.301 214.5 670.101 213.8 669.801C197.8 662.201 137.3 652.701 136.7 652.601C134.1 652.201 132.3 649.701 132.7 647.101C133.1 644.501 135.5 642.701 138.2 643.101C140.7 643.501 200.7 652.901 218 661.101C220.4 662.201 221.4 665.101 220.3 667.501C219.4 669.301 217.7 670.301 215.9 670.301Z" fill="#333333"/>
<path d="M203.101 691.1C202.401 691.1 201.801 691 201.201 690.7C189.901 685.7 141.601 677.1 124.001 674.2C121.401 673.8 119.601 671.3 120.001 668.7C120.401 666.1 122.901 664.3 125.501 664.7C128.101 665.1 190.301 675.3 205.101 681.9C207.501 683 208.601 685.8 207.501 688.2C206.701 690 205.001 691.1 203.101 691.1Z" fill="#333333"/>
<path d="M190.301 713.5C189.601 713.5 189.001 713.4 188.401 713.1C177.101 708.1 129.401 700.1 112.001 697.5C109.401 697.1 107.601 694.7 108.001 692C108.401 689.4 110.901 687.6 113.501 688C116.101 688.4 177.501 697.8 192.401 704.4C194.801 705.5 195.901 708.3 194.801 710.7C193.901 712.4 192.201 713.5 190.301 713.5Z" fill="#333333"/>
<path d="M257.5 653.1C259.9 647.4 268.2 652.3 265.8 657.9C257.1 678.2 261.9 701.2 277.3 716.8C281.6 721.2 274.9 728 270.5 723.6C251.8 704.7 247.1 677.5 257.5 653.1Z" fill="#333333"/>
<path d="M278.801 812.901C266.401 812.901 253.301 811.8 239.601 809.5C237.001 809.1 235.201 806.6 235.701 804C236.101 801.4 238.601 799.6 241.201 800.1C303.001 810.4 350.701 796.4 383.201 758.5C384.901 756.5 388.001 756.3 390.001 758C392.001 759.7 392.301 762.8 390.501 764.8C363.001 796.7 325.601 812.901 278.801 812.901Z" fill="#333333"/>
<path d="M487.7 1284.9C485.6 1284.9 483.601 1283.5 483.101 1281.3C474.301 1248.2 404.401 1169.7 332.001 1174.4C329.401 1174.6 327.1 1172.6 326.9 1169.9C326.7 1167.3 328.7 1165 331.4 1164.8C410.1 1159.7 482.701 1242.5 492.4 1278.8C493.1 1281.4 491.601 1284 489.001 1284.7C488.601 1284.8 488.1 1284.9 487.7 1284.9Z" fill="#333333"/>
<path d="M1224 483.801H1041.5V621.401H1224V483.801Z" fill="#FAA61A"/>
<path d="M1132.8 557.4C1131.8 557.4 1130.8 557.1 1129.9 556.5L1032.3 484.5C1030.2 482.9 1029.7 479.9 1031.3 477.8C1032.9 475.7 1035.9 475.2 1038 476.8L1132.7 546.7L1221.1 480C1223.2 478.4 1226.2 478.8 1227.8 480.9C1229.4 483 1229 486 1226.9 487.6L1135.7 556.4C1134.8 557.1 1133.8 557.4 1132.8 557.4Z" fill="white"/>
<path d="M252.502 996H92.4023V1156.1H252.502V996Z" fill="#FAA61A"/>
<path d="M252.402 1160.9C251.202 1160.9 249.902 1160.4 249.002 1159.5L88.9016 999.4C87.0016 997.5 87.0016 994.5 88.9016 992.6C90.8016 990.7 93.8016 990.7 95.7016 992.6L255.802 1152.7C257.702 1154.6 257.702 1157.6 255.802 1159.5C254.902 1160.4 253.702 1160.9 252.402 1160.9Z" fill="white"/>
<path d="M92.4031 1160.9C91.2031 1160.9 89.9031 1160.4 89.0031 1159.5C87.1031 1157.6 87.1031 1154.6 89.0031 1152.7L249.103 992.6C251.003 990.7 254.003 990.7 255.903 992.6C257.803 994.5 257.803 997.5 255.903 999.4L95.8031 1159.5C94.8031 1160.4 93.6031 1160.9 92.4031 1160.9Z" fill="white"/>
<path d="M532.601 378.2H257.301V461.4H532.601V378.2Z" fill="#DA2128"/>
<path d="M193.199 442.2C210.872 442.2 225.199 427.873 225.199 410.2C225.199 392.527 210.872 378.2 193.199 378.2C175.526 378.2 161.199 392.527 161.199 410.2C161.199 427.873 175.526 442.2 193.199 442.2Z" fill="#FFF4B0"/>
<path d="M442.9 498.201H257.3C254.6 498.201 252.5 496.101 252.5 493.401C252.5 490.701 254.6 488.601 257.3 488.601H443C445.7 488.601 447.8 490.701 447.8 493.401C447.8 496.101 445.6 498.201 442.9 498.201Z" fill="#333333"/>
<path d="M414.098 415H308.498C302.298 415 302.298 424.6 308.498 424.6H414.098C420.298 424.6 420.298 415 414.098 415Z" fill="white"/>
<path d="M1075.1 533.4C1046 533.4 1022.3 509.7 1022.3 480.6C1022.3 451.5 1046 427.8 1075.1 427.8C1104.2 427.8 1127.9 451.5 1127.9 480.6C1127.9 509.7 1104.2 533.4 1075.1 533.4ZM1075.1 437.4C1051.3 437.4 1031.9 456.8 1031.9 480.6C1031.9 504.4 1051.3 523.8 1075.1 523.8C1098.9 523.8 1118.3 504.4 1118.3 480.6C1118.3 456.8 1099 437.4 1075.1 437.4Z" fill="#DA2128"/>
<path d="M579.001 747.9C564.001 747.9 551.801 735.7 551.801 720.7C551.801 705.7 564.001 693.5 579.001 693.5C594.001 693.5 606.201 705.7 606.201 720.7C606.201 735.7 594.001 747.9 579.001 747.9ZM579.001 703.1C569.301 703.1 561.401 711 561.401 720.7C561.401 730.4 569.301 738.3 579.001 738.3C588.701 738.3 596.601 730.4 596.601 720.7C596.601 711 588.701 703.1 579.001 703.1Z" fill="#DA2128"/>
<path d="M751.801 1116C718.201 1116 686.801 1100.9 665.701 1074.6C664.001 1072.5 664.401 1069.5 666.401 1067.8C668.501 1066.1 671.501 1066.5 673.201 1068.5C692.501 1092.5 721.101 1106.3 751.901 1106.3C801.401 1106.3 844.301 1069.4 851.601 1020.5C852.001 1017.9 854.401 1016.1 857.101 1016.5C859.701 1016.9 861.501 1019.3 861.101 1022C853.001 1075.6 806.101 1116 751.801 1116Z" fill="white"/>
<path d="M1529.7 1077.6C1398.4 1077.6 1289.8 1176.2 1274 1303.3H1283.7C1299.5 1181.6 1403.8 1087.2 1529.7 1087.2V1077.6Z" fill="white"/>
<path d="M950.901 1208C944.501 1219.2 938.101 1230.4 931.701 1241.6C928.601 1247 936.901 1251.8 940.001 1246.4C946.401 1235.2 952.801 1224 959.201 1212.8C962.301 1207.5 954.001 1202.7 950.901 1208Z" fill="#FFF4B0"/>
<path d="M315.801 1116.8C311.001 1110.4 306.201 1104 301.401 1097.6C297.701 1092.7 289.401 1097.5 293.101 1102.4C297.901 1108.8 302.701 1115.2 307.501 1121.6C311.201 1126.5 319.501 1121.8 315.801 1116.8Z" fill="#FFF4B0"/>
<path d="M1504 1044.4C1499.1 1041.3 1494.3 1038.2 1489.4 1035.1C1484.2 1031.8 1479.3 1040.1 1484.6 1043.4L1499.2 1052.7C1504.4 1056.1 1509.2 1047.8 1504 1044.4Z" fill="#FFF4B0"/>
</svg>
