<svg width="24" height="24" viewBox="0 0 24 24" fill="none" xmlns="http://www.w3.org/2000/svg">
<rect width="24" height="24" rx="12" fill="#E7F0F9"/>
<circle cx="12" cy="12" r="10" fill="white"/>
<path fill-rule="evenodd" clip-rule="evenodd" d="M12 22C17.5229 22 22 17.5229 22 12C22 6.47716 17.5229 2 12 2C6.47716 2 2 6.47716 2 12C2 17.5229 6.47716 22 12 22ZM9.85714 15.3929C9.36403 15.3929 8.96429 15.7926 8.96429 16.2857C8.96429 16.7789 9.36403 17.1786 9.85714 17.1786H12H14.1429C14.636 17.1786 15.0357 16.7789 15.0357 16.2857C15.0357 15.7926 14.636 15.3929 14.1429 15.3929H12.8929V11.2857C12.8929 10.7926 12.4931 10.3929 12 10.3929H10.5714C10.0783 10.3929 9.67857 10.7926 9.67857 11.2857C9.67857 11.7788 10.0783 12.1786 10.5714 12.1786H11.1071V15.3929H9.85714ZM13.4286 7.71429C13.4286 8.50326 12.789 9.14286 12 9.14286C11.211 9.14286 10.5714 8.50326 10.5714 7.71429C10.5714 6.92531 11.211 6.28571 12 6.28571C12.789 6.28571 13.4286 6.92531 13.4286 7.71429Z" fill="#0A6DC7"/>
</svg>
