<svg width="12" height="12" viewBox="0 0 12 12" fill="none" xmlns="http://www.w3.org/2000/svg">
<path d="M10.7197 0.219727C11.0126 -0.0731665 11.4874 -0.0731666 11.7803 0.219727C12.0732 0.51262 12.0732 0.98738 11.7803 1.28027L7.06055 6L11.7803 10.7197C12.0732 11.0126 12.0732 11.4874 11.7803 11.7803C11.4874 12.0732 11.0126 12.0732 10.7197 11.7803L6 7.06055L1.28027 11.7803C0.98738 12.0732 0.51262 12.0732 0.219727 11.7803C-0.0731666 11.4874 -0.0731665 11.0126 0.219727 10.7197L4.93945 6L0.219727 1.28027C-0.0731666 0.98738 -0.0731666 0.51262 0.219727 0.219727C0.51262 -0.0731666 0.98738 -0.0731666 1.28027 0.219727L6 4.93945L10.7197 0.219727Z" fill="#333333"/>
</svg>
