<svg width="24" height="24" viewBox="0 0 24 24" fill="none" xmlns="http://www.w3.org/2000/svg">
<path fill-rule="evenodd" clip-rule="evenodd" d="M20.2894 15.7531C20.6818 15.7531 20.9999 16.0712 20.9999 16.4636V19.0142C20.9999 19.5409 20.7907 20.046 20.4183 20.4184C20.0458 20.7908 19.5407 21 19.0141 21H16.4635C16.071 21 15.7529 20.6819 15.7529 20.2895C15.7529 19.8971 16.071 19.579 16.4635 19.579H19.0141C19.1639 19.579 19.3075 19.5195 19.4134 19.4135C19.5193 19.3076 19.5788 19.164 19.5788 19.0142V16.4636C19.5788 16.0712 19.897 15.7531 20.2894 15.7531Z" fill="#333333"/>
<path fill-rule="evenodd" clip-rule="evenodd" d="M15.7529 3.71053C15.7529 3.31811 16.071 3 16.4635 3H19.0141C19.5407 3 20.0458 3.20922 20.4183 3.58164C20.7907 3.95405 20.9999 4.45915 20.9999 4.98583V7.53644C20.9999 7.92885 20.6818 8.24696 20.2894 8.24696C19.897 8.24696 19.5788 7.92885 19.5788 7.53644V4.98583C19.5788 4.83604 19.5193 4.69239 19.4134 4.58647C19.3075 4.48056 19.1639 4.42105 19.0141 4.42105H16.4635C16.071 4.42105 15.7529 4.10294 15.7529 3.71053Z" fill="#333333"/>
<path fill-rule="evenodd" clip-rule="evenodd" d="M4.98583 4.42105C4.83604 4.42105 4.69239 4.48056 4.58647 4.58647C4.48056 4.69239 4.42105 4.83604 4.42105 4.98583V7.53644C4.42105 7.92885 4.10294 8.24696 3.71053 8.24696C3.31811 8.24696 3 7.92885 3 7.53644V4.98583C3 4.45916 3.20922 3.95405 3.58164 3.58164C3.95405 3.20922 4.45916 3 4.98583 3H7.53644C7.92885 3 8.24696 3.31811 8.24696 3.71053C8.24696 4.10294 7.92885 4.42105 7.53644 4.42105H4.98583Z" fill="#333333"/>
<path fill-rule="evenodd" clip-rule="evenodd" d="M3.71053 15.7531C4.10294 15.7531 4.42105 16.0712 4.42105 16.4636V19.0142C4.42105 19.164 4.48056 19.3076 4.58647 19.4135C4.69239 19.5195 4.83604 19.579 4.98583 19.579H7.53644C7.92885 19.579 8.24696 19.8971 8.24696 20.2895C8.24696 20.6819 7.92885 21 7.53644 21H4.98583C4.45915 21 3.95405 20.7908 3.58164 20.4184C3.20922 20.046 3 19.5409 3 19.0142V16.4636C3 16.0712 3.31811 15.7531 3.71053 15.7531Z" fill="#333333"/>
<path fill-rule="evenodd" clip-rule="evenodd" d="M8.17439 6.82617C8.56681 6.82617 8.88492 7.14429 8.88492 7.5367V10.0873C8.88492 10.4797 8.56681 10.7978 8.17439 10.7978C7.78198 10.7978 7.46387 10.4797 7.46387 10.0873V7.5367C7.46387 7.14429 7.78198 6.82617 8.17439 6.82617Z" fill="#333333"/>
<path fill-rule="evenodd" clip-rule="evenodd" d="M15.8258 6.82617C16.2182 6.82617 16.5363 7.14429 16.5363 7.5367V10.0873C16.5363 10.4797 16.2182 10.7978 15.8258 10.7978C15.4333 10.7978 15.1152 10.4797 15.1152 10.0873V7.5367C15.1152 7.14429 15.4333 6.82617 15.8258 6.82617Z" fill="#333333"/>
<path fill-rule="evenodd" clip-rule="evenodd" d="M12.0004 8.10156C12.3928 8.10156 12.711 8.41968 12.711 8.81209V13.2757C12.711 13.6681 12.3928 13.9862 12.0004 13.9862H10.0875C9.69507 13.9862 9.37695 13.6681 9.37695 13.2757C9.37695 12.8832 9.69507 12.5651 10.0875 12.5651H11.2899V8.81209C11.2899 8.41968 11.608 8.10156 12.0004 8.10156Z" fill="#333333"/>
<path fill-rule="evenodd" clip-rule="evenodd" d="M8.29693 15.3364C8.56719 15.0519 9.01692 15.0403 9.30143 15.3106C10.0297 16.0024 10.9959 16.3881 12.0003 16.3881C13.0048 16.3881 13.971 16.0024 14.6993 15.3106C14.9838 15.0403 15.4335 15.0519 15.7038 15.3364C15.974 15.6209 15.9625 16.0707 15.678 16.3409C14.6856 17.2836 13.3691 17.8092 12.0003 17.8092C10.6316 17.8092 9.31514 17.2836 8.32275 16.3409C8.03823 16.0707 8.02667 15.6209 8.29693 15.3364Z" fill="#333333"/>
</svg>
