<svg width="21" height="23" viewBox="0 0 21 23" fill="none" xmlns="http://www.w3.org/2000/svg">
<mask id="mask0_49913_7419" style="mask-type:alpha" maskUnits="userSpaceOnUse" x="-1" y="0" width="22" height="23">
<path fill-rule="evenodd" clip-rule="evenodd" d="M20.158 0.5H-0.00195312V22.5H20.158V0.5ZM13.8769 7.54289C14.2517 7.93342 14.2517 8.56658 13.8769 8.95711L11.4357 11.5L13.8769 14.0429C14.2517 14.4334 14.2517 15.0666 13.8769 15.4571C13.502 15.8476 12.8941 15.8476 12.5192 15.4571L10.078 12.9142L7.63687 15.4571C7.26196 15.8476 6.65413 15.8476 6.27922 15.4571C5.90432 15.0666 5.90432 14.4334 6.27922 14.0429L8.72042 11.5L6.27922 8.95711C5.90432 8.56658 5.90432 7.93342 6.27922 7.54289C6.65413 7.15237 7.26196 7.15237 7.63687 7.54289L10.078 10.0858L12.5192 7.54289C12.8941 7.15237 13.502 7.15237 13.8769 7.54289Z" fill="#D9D9D9"/>
</mask>
<g mask="url(#mask0_49913_7419)">
<path d="M10.249 21C15.3576 21 19.499 16.8586 19.499 11.75C19.499 6.64137 15.3576 2.5 10.249 2.5C5.14039 2.5 0.999023 6.64137 0.999023 11.75C0.999023 16.8586 5.14039 21 10.249 21Z" fill="#9DA4AE" stroke="#9DA4AE" stroke-width="1.5" stroke-miterlimit="10" stroke-linecap="round"/>
</g>
</svg>
