<svg width="14" height="16" viewBox="0 0 14 16" fill="none" xmlns="http://www.w3.org/2000/svg">
<mask id="mask0_49394_3331" style="mask-type:alpha" maskUnits="userSpaceOnUse" x="0" y="0" width="14" height="16">
<path fill-rule="evenodd" clip-rule="evenodd" d="M13.7203 0.666626H0.280273V15.3333H13.7203V0.666626ZM10.0256 6.80469C10.2756 6.54435 10.2756 6.12224 10.0256 5.86189C9.7757 5.60154 9.37045 5.60154 9.12053 5.86189L6.04578 9.06476L4.89192 7.86763C4.64148 7.60776 4.23626 7.60863 3.98682 7.86949C3.73739 8.13036 3.73819 8.55249 3.98863 8.81229L5.59503 10.479C5.84514 10.7384 6.24962 10.738 6.49922 10.478L10.0256 6.80469Z" fill="#D9D9D9"/>
</mask>
<g mask="url(#mask0_49394_3331)">
<path d="M7.00008 14.1667C10.2696 14.1667 12.9201 11.4058 12.9201 8.00004C12.9201 4.59429 10.2696 1.83337 7.00008 1.83337C3.73055 1.83337 1.08008 4.59429 1.08008 8.00004C1.08008 11.4058 3.73055 14.1667 7.00008 14.1667Z" fill="#FAA61A" stroke="#FAA61A" stroke-miterlimit="10" stroke-linecap="round"/>
</g>
</svg>
